<svg width="117" height="71" viewBox="0 0 117 71" fill="none" xmlns="http://www.w3.org/2000/svg">
<path d="M27.56 29.66H13.68V33.07H27.56V29.66Z" fill="white"/>
<path d="M27.65 33.15H13.6V29.57H27.65V33.15ZM13.77 32.98H27.48V29.74H13.77V32.98Z" fill="#D6D2D2"/>
<path d="M34.36 33.07H20.77V36.48H34.36V33.07Z" fill="white"/>
<path d="M34.44 36.56H20.68V32.98H34.44V36.56ZM20.85 36.39H34.27V33.15H20.85V36.39Z" fill="#D6D2D2"/>
<path d="M20.76 33.07H6.88V36.48H20.76V33.07Z" fill="white"/>
<path d="M20.85 36.56H6.79999V32.98H20.85V36.56ZM6.96999 36.39H20.68V33.15H6.96999V36.39Z" fill="#D6D2D2"/>
<path d="M55.03 29.66H41.15V33.07H55.03V29.66Z" fill="white"/>
<path d="M55.12 33.15H41.07V29.57H55.12V33.15ZM41.24 32.98H54.95V29.74H41.24V32.98Z" fill="#D6D2D2"/>
<path d="M61.83 33.07H48.24V36.48H61.83V33.07Z" fill="white"/>
<path d="M61.91 36.56H48.15V32.98H61.91V36.56ZM48.32 36.39H61.74V33.15H48.32V36.39Z" fill="#D6D2D2"/>
<path d="M41.15 29.66H27.56V33.07H41.15V29.66Z" fill="white"/>
<path d="M41.23 33.15H27.47V29.57H41.23V33.15ZM27.64 32.98H41.06V29.74H27.64V32.98Z" fill="#D6D2D2"/>
<path d="M48.23 33.07H34.35V36.48H48.23V33.07Z" fill="white"/>
<path d="M48.32 36.56H34.27V32.98H48.32V36.56ZM34.44 36.39H48.15V33.15H34.44V36.39Z" fill="#D6D2D2"/>
<path d="M27.56 22.85H13.68V26.26H27.56V22.85Z" fill="white"/>
<path d="M27.65 26.34H13.6V22.76H27.65V26.34ZM13.77 26.17H27.48V22.93H13.77V26.17Z" fill="#D6D2D2"/>
<path d="M34.36 26.25H20.77V29.66H34.36V26.25Z" fill="white"/>
<path d="M34.44 29.74H20.68V26.16H34.44V29.74ZM20.85 29.57H34.27V26.33H20.85V29.57Z" fill="#D6D2D2"/>
<path d="M13.68 22.85H0.0899658V26.26H13.68V22.85Z" fill="white"/>
<path d="M13.76 26.34H0V22.76H13.76V26.34ZM0.169998 26.17H13.59V22.93H0.169998V26.17Z" fill="#D6D2D2"/>
<path d="M20.76 26.25H6.88V29.66H20.76V26.25Z" fill="white"/>
<path d="M20.85 29.74H6.79999V26.16H20.85V29.74ZM6.96999 29.57H20.68V26.33H6.96999V29.57Z" fill="#D6D2D2"/>
<path d="M55.03 22.85H41.15V26.26H55.03V22.85Z" fill="white"/>
<path d="M55.12 26.34H41.07V22.76H55.12V26.34ZM41.24 26.17H54.95V22.93H41.24V26.17Z" fill="#D6D2D2"/>
<path d="M61.83 26.25H48.24V29.66H61.83V26.25Z" fill="white"/>
<path d="M61.91 29.74H48.15V26.16H61.91V29.74ZM48.32 29.57H61.74V26.33H48.32V29.57Z" fill="#D6D2D2"/>
<path d="M41.15 22.85H27.56V26.26H41.15V22.85Z" fill="white"/>
<path d="M41.23 26.34H27.47V22.76H41.23V26.34ZM27.64 26.17H41.06V22.93H27.64V26.17Z" fill="#D6D2D2"/>
<path d="M48.23 26.25H34.35V29.66H48.23V26.25Z" fill="white"/>
<path d="M48.32 29.74H34.27V26.16H48.32V29.74ZM34.44 29.57H48.15V26.33H34.44V29.57Z" fill="#D6D2D2"/>
<path d="M27.56 43.29H13.68V46.7H27.56V43.29Z" fill="white"/>
<path d="M27.65 46.78H13.6V43.2H27.65V46.78ZM13.77 46.61H27.48V43.37H13.77V46.61Z" fill="#D6D2D2"/>
<path d="M34.36 46.7H20.77V50.11H34.36V46.7Z" fill="white"/>
<path d="M34.44 50.19H20.68V46.61H34.44V50.19ZM20.85 50.02H34.27V46.78H20.85V50.02Z" fill="#D6D2D2"/>
<path d="M13.68 43.29H0.0899658V46.7H13.68V43.29Z" fill="white"/>
<path d="M13.76 46.78H0V43.2H13.76V46.78ZM0.169998 46.61H13.59V43.37H0.169998V46.61Z" fill="#D6D2D2"/>
<path d="M20.76 46.7H6.88V50.11H20.76V46.7Z" fill="white"/>
<path d="M20.85 50.19H6.79999V46.61H20.85V50.19ZM6.96999 50.02H20.68V46.78H6.96999V50.02Z" fill="#D6D2D2"/>
<path d="M55.03 43.29H41.15V46.7H55.03V43.29Z" fill="white"/>
<path d="M55.12 46.78H41.07V43.2H55.12V46.78ZM41.24 46.61H54.95V43.37H41.24V46.61Z" fill="#D6D2D2"/>
<path d="M61.83 46.7H48.24V50.11H61.83V46.7Z" fill="white"/>
<path d="M61.91 50.19H48.15V46.61H61.91V50.19ZM48.32 50.02H61.74V46.78H48.32V50.02Z" fill="#D6D2D2"/>
<path d="M41.15 43.29H27.56V46.7H41.15V43.29Z" fill="white"/>
<path d="M41.23 46.78H27.47V43.2H41.23V46.78ZM27.64 46.61H41.06V43.37H27.64V46.61Z" fill="#D6D2D2"/>
<path d="M48.24 46.7H34.36V50.11H48.24V46.7Z" fill="white"/>
<path d="M48.32 50.19H34.27V46.61H48.32V50.19ZM34.44 50.02H48.15V46.78H34.44V50.02Z" fill="#D6D2D2"/>
<path d="M27.56 36.48H13.68V39.89H27.56V36.48Z" fill="white"/>
<path d="M27.65 39.97H13.6V36.39H27.65V39.97ZM13.77 39.8H27.48V36.56H13.77V39.8Z" fill="#D6D2D2"/>
<path d="M34.36 39.88H20.77V43.29H34.36V39.88Z" fill="white"/>
<path d="M34.44 43.37H20.68V39.79H34.44V43.37ZM20.85 43.2H34.27V39.96H20.85V43.2Z" fill="#D6D2D2"/>
<path d="M13.68 36.47H0.0899658V39.88H13.68V36.47Z" fill="white"/>
<path d="M13.76 39.97H0V36.39H13.76V39.97ZM0.169998 39.8H13.59V36.56H0.169998V39.8Z" fill="#D6D2D2"/>
<path d="M20.76 39.88H6.88V43.29H20.76V39.88Z" fill="white"/>
<path d="M20.85 43.37H6.79999V39.79H20.85V43.37ZM6.96999 43.2H20.68V39.96H6.96999V43.2Z" fill="#D6D2D2"/>
<path d="M55.03 36.48H41.15V39.89H55.03V36.48Z" fill="white"/>
<path d="M55.12 39.97H41.07V36.39H55.12V39.97ZM41.24 39.8H54.95V36.56H41.24V39.8Z" fill="#D6D2D2"/>
<path d="M61.83 39.88H48.24V43.29H61.83V39.88Z" fill="white"/>
<path d="M61.91 43.37H48.15V39.79H61.91V43.37ZM48.32 43.2H61.74V39.96H48.32V43.2Z" fill="#D6D2D2"/>
<path d="M41.15 36.48H27.56V39.89H41.15V36.48Z" fill="white"/>
<path d="M41.23 39.97H27.47V36.39H41.23V39.97ZM27.64 39.8H41.06V36.56H27.64V39.8Z" fill="#D6D2D2"/>
<path d="M48.24 39.88H34.36V43.29H48.24V39.88Z" fill="white"/>
<path d="M48.32 43.37H34.27V39.79H48.32V43.37ZM34.44 43.2H48.15V39.96H34.44V43.2Z" fill="#D6D2D2"/>
<path d="M82.5 29.66H68.62V33.07H82.5V29.66Z" fill="white"/>
<path d="M82.59 33.15H68.54V29.57H82.59V33.15ZM68.71 32.98H82.42V29.74H68.71V32.98Z" fill="#D6D2D2"/>
<path d="M89.3 33.07H75.71V36.48H89.3V33.07Z" fill="white"/>
<path d="M89.38 36.56H75.62V32.98H89.38V36.56ZM75.79 36.39H89.21V33.15H75.79V36.39Z" fill="#D6D2D2"/>
<path d="M68.62 29.66H55.03V33.07H68.62V29.66Z" fill="white"/>
<path d="M68.71 33.15H54.95V29.57H68.71V33.15ZM55.12 32.98H68.54V29.74H55.12V32.98Z" fill="#D6D2D2"/>
<path d="M75.71 33.07H61.83V36.48H75.71V33.07Z" fill="white"/>
<path d="M75.8 36.56H61.75V32.98H75.8V36.56ZM61.92 36.39H75.63V33.15H61.92V36.39Z" fill="#D6D2D2"/>
<path d="M109.97 29.66H96.09V33.07H109.97V29.66Z" fill="white"/>
<path d="M110.06 33.15H96.01V29.57H110.06V33.15ZM96.18 32.98H109.89V29.74H96.18V32.98Z" fill="#D6D2D2"/>
<path d="M96.1 29.66H82.51V33.07H96.1V29.66Z" fill="white"/>
<path d="M96.18 33.15H82.42V29.57H96.18V33.15ZM82.59 32.98H96.01V29.74H82.59V32.98Z" fill="#D6D2D2"/>
<path d="M103.18 33.07H89.3V36.48H103.18V33.07Z" fill="white"/>
<path d="M103.27 36.56H89.22V32.98H103.27V36.56ZM89.39 36.39H103.1V33.15H89.39V36.39Z" fill="#D6D2D2"/>
<path d="M82.5 22.85H68.62V26.26H82.5V22.85Z" fill="white"/>
<path d="M82.59 26.34H68.54V22.76H82.59V26.34ZM68.71 26.17H82.42V22.93H68.71V26.17Z" fill="#D6D2D2"/>
<path d="M89.3 26.25H75.71V29.66H89.3V26.25Z" fill="white"/>
<path d="M89.38 29.74H75.62V26.16H89.38V29.74ZM75.79 29.57H89.21V26.33H75.79V29.57Z" fill="#D6D2D2"/>
<path d="M68.62 22.85H55.03V26.26H68.62V22.85Z" fill="white"/>
<path d="M68.71 26.34H54.95V22.76H68.71V26.34ZM55.12 26.17H68.54V22.93H55.12V26.17Z" fill="#D6D2D2"/>
<path d="M75.71 26.25H61.83V29.66H75.71V26.25Z" fill="white"/>
<path d="M75.8 29.74H61.75V26.16H75.8V29.74ZM61.92 29.57H75.63V26.33H61.92V29.57Z" fill="#D6D2D2"/>
<path d="M109.97 22.85H96.09V26.26H109.97V22.85Z" fill="white"/>
<path d="M110.06 26.34H96.01V22.76H110.06V26.34ZM96.18 26.17H109.89V22.93H96.18V26.17Z" fill="#D6D2D2"/>
<path d="M116.77 26.25H103.18V29.66H116.77V26.25Z" fill="white"/>
<path d="M116.86 29.74H103.1V26.16H116.86V29.74ZM103.27 29.57H116.69V26.33H103.27V29.57Z" fill="#D6D2D2"/>
<path d="M96.1 22.85H82.51V26.26H96.1V22.85Z" fill="white"/>
<path d="M96.18 26.34H82.42V22.76H96.18V26.34ZM82.59 26.17H96.01V22.93H82.59V26.17Z" fill="#D6D2D2"/>
<path d="M103.18 26.25H89.3V29.66H103.18V26.25Z" fill="white"/>
<path d="M103.27 29.74H89.22V26.16H103.27V29.74ZM89.39 29.57H103.1V26.33H89.39V29.57Z" fill="#D6D2D2"/>
<path d="M82.5 43.29H68.62V46.7H82.5V43.29Z" fill="white"/>
<path d="M82.59 46.78H68.54V43.2H82.59V46.78ZM68.71 46.61H82.42V43.37H68.71V46.61Z" fill="#D6D2D2"/>
<path d="M89.3 46.7H75.71V50.11H89.3V46.7Z" fill="white"/>
<path d="M89.38 50.19H75.62V46.61H89.38V50.19ZM75.79 50.02H89.21V46.78H75.79V50.02Z" fill="#D6D2D2"/>
<path d="M68.62 43.29H55.03V46.7H68.62V43.29Z" fill="white"/>
<path d="M68.71 46.78H54.95V43.2H68.71V46.78ZM55.12 46.61H68.54V43.37H55.12V46.61Z" fill="#D6D2D2"/>
<path d="M75.71 46.7H61.83V50.11H75.71V46.7Z" fill="white"/>
<path d="M75.8 50.19H61.75V46.61H75.8V50.19ZM61.92 50.02H75.63V46.78H61.92V50.02Z" fill="#D6D2D2"/>
<path d="M109.97 43.29H96.09V46.7H109.97V43.29Z" fill="white"/>
<path d="M110.06 46.78H96.01V43.2H110.06V46.78ZM96.18 46.61H109.89V43.37H96.18V46.61Z" fill="#D6D2D2"/>
<path d="M96.1 43.29H82.51V46.7H96.1V43.29Z" fill="white"/>
<path d="M96.18 46.78H82.42V43.2H96.18V46.78ZM82.59 46.61H96.01V43.37H82.59V46.61Z" fill="#D6D2D2"/>
<path d="M103.18 46.7H89.3V50.11H103.18V46.7Z" fill="white"/>
<path d="M103.27 50.19H89.22V46.61H103.27V50.19ZM89.39 50.02H103.1V46.78H89.39V50.02Z" fill="#D6D2D2"/>
<path d="M82.5 36.48H68.62V39.89H82.5V36.48Z" fill="white"/>
<path d="M82.59 39.97H68.54V36.39H82.59V39.97ZM68.71 39.8H82.42V36.56H68.71V39.8Z" fill="#D6D2D2"/>
<path d="M89.3 39.88H75.71V43.29H89.3V39.88Z" fill="white"/>
<path d="M89.38 43.37H75.62V39.79H89.38V43.37ZM75.79 43.2H89.21V39.96H75.79V43.2Z" fill="#D6D2D2"/>
<path d="M68.62 36.47H55.03V39.88H68.62V36.47Z" fill="white"/>
<path d="M68.71 39.97H54.95V36.39H68.71V39.97ZM55.12 39.8H68.54V36.56H55.12V39.8Z" fill="#D6D2D2"/>
<path d="M75.71 39.88H61.83V43.29H75.71V39.88Z" fill="white"/>
<path d="M75.8 43.37H61.75V39.79H75.8V43.37ZM61.92 43.2H75.63V39.96H61.92V43.2Z" fill="#D6D2D2"/>
<path d="M109.97 36.48H96.09V39.89H109.97V36.48Z" fill="white"/>
<path d="M110.06 39.97H96.01V36.39H110.06V39.97ZM96.18 39.8H109.89V36.56H96.18V39.8Z" fill="#D6D2D2"/>
<path d="M116.77 39.88H103.18V43.29H116.77V39.88Z" fill="white"/>
<path d="M116.86 43.37H103.1V39.79H116.86V43.37ZM103.27 43.2H116.69V39.96H103.27V43.2Z" fill="#D6D2D2"/>
<path d="M96.1 36.48H82.51V39.89H96.1V36.48Z" fill="white"/>
<path d="M96.18 39.97H82.42V36.39H96.18V39.97ZM82.59 39.8H96.01V36.56H82.59V39.8Z" fill="#D6D2D2"/>
<path d="M103.18 39.88H89.3V43.29H103.18V39.88Z" fill="white"/>
<path d="M103.27 43.37H89.22V39.79H103.27V43.37ZM89.39 43.2H103.1V39.96H89.39V43.2Z" fill="#D6D2D2"/>
<path d="M27.56 56.92H13.68V60.33H27.56V56.92Z" fill="white"/>
<path d="M27.65 60.41H13.6V56.83H27.65V60.41ZM13.77 60.24H27.48V57H13.77V60.24Z" fill="#D6D2D2"/>
<path d="M34.36 60.33H20.77V63.74H34.36V60.33Z" fill="white"/>
<path d="M34.44 63.82H20.68V60.24H34.44V63.82ZM20.85 63.65H34.27V60.41H20.85V63.65Z" fill="#D6D2D2"/>
<path d="M13.68 56.92H0.0899658V60.33H13.68V56.92Z" fill="white"/>
<path d="M13.76 60.41H0V56.83H13.76V60.41ZM0.169998 60.24H13.59V57H0.169998V60.24Z" fill="#D6D2D2"/>
<path d="M20.76 60.33H6.88V63.74H20.76V60.33Z" fill="white"/>
<path d="M20.85 63.82H6.79999V60.24H20.85V63.82ZM6.96999 63.65H20.68V60.41H6.96999V63.65Z" fill="#D6D2D2"/>
<path d="M55.03 56.92H41.15V60.33H55.03V56.92Z" fill="white"/>
<path d="M55.12 60.41H41.07V56.83H55.12V60.41ZM41.24 60.24H54.95V57H41.24V60.24Z" fill="#D6D2D2"/>
<path d="M61.83 60.33H48.24V63.74H61.83V60.33Z" fill="white"/>
<path d="M61.91 63.82H48.15V60.24H61.91V63.82ZM48.32 63.65H61.74V60.41H48.32V63.65Z" fill="#D6D2D2"/>
<path d="M41.15 56.92H27.56V60.33H41.15V56.92Z" fill="white"/>
<path d="M41.23 60.41H27.47V56.83H41.23V60.41ZM27.64 60.24H41.06V57H27.64V60.24Z" fill="#D6D2D2"/>
<path d="M48.24 60.33H34.36V63.74H48.24V60.33Z" fill="white"/>
<path d="M48.32 63.82H34.27V60.24H48.32V63.82ZM34.44 63.65H48.15V60.41H34.44V63.65Z" fill="#D6D2D2"/>
<path d="M27.56 50.1H13.68V53.51H27.56V50.1Z" fill="white"/>
<path d="M27.65 53.6H13.6V50.02H27.65V53.6ZM13.77 53.43H27.48V50.19H13.77V53.43Z" fill="#D6D2D2"/>
<path d="M34.36 53.51H20.77V56.92H34.36V53.51Z" fill="white"/>
<path d="M34.44 57H20.68V53.42H34.44V57ZM20.85 56.83H34.27V53.59H20.85V56.83Z" fill="#D6D2D2"/>
<path d="M20.76 53.51H6.88V56.92H20.76V53.51Z" fill="white"/>
<path d="M20.85 57H6.79999V53.42H20.85V57ZM6.96999 56.83H20.68V53.59H6.96999V56.83Z" fill="#D6D2D2"/>
<path d="M55.03 50.1H41.15V53.51H55.03V50.1Z" fill="white"/>
<path d="M55.12 53.6H41.07V50.02H55.12V53.6ZM41.24 53.43H54.95V50.19H41.24V53.43Z" fill="#D6D2D2"/>
<path d="M61.83 53.51H48.24V56.92H61.83V53.51Z" fill="white"/>
<path d="M61.91 57H48.15V53.42H61.91V57ZM48.32 56.83H61.74V53.59H48.32V56.83Z" fill="#D6D2D2"/>
<path d="M41.15 50.1H27.56V53.51H41.15V50.1Z" fill="white"/>
<path d="M41.23 53.6H27.47V50.02H41.23V53.6ZM27.64 53.43H41.06V50.19H27.64V53.43Z" fill="#D6D2D2"/>
<path d="M48.24 53.51H34.36V56.92H48.24V53.51Z" fill="white"/>
<path d="M48.32 57H34.27V53.42H48.32V57ZM34.44 56.83H48.15V53.59H34.44V56.83Z" fill="#D6D2D2"/>
<path d="M27.56 63.73H13.68V67.14H27.56V63.73Z" fill="white"/>
<path d="M27.65 67.23H13.6V63.65H27.65V67.23ZM13.77 67.06H27.48V63.82H13.77V67.06Z" fill="#D6D2D2"/>
<path d="M34.36 67.14H20.77V70.55H34.36V67.14Z" fill="white"/>
<path d="M34.44 70.63H20.68V67.05H34.44V70.63ZM20.85 70.46H34.27V67.22H20.85V70.46Z" fill="#D6D2D2"/>
<path d="M55.03 63.73H41.15V67.14H55.03V63.73Z" fill="white"/>
<path d="M55.12 67.23H41.07V63.65H55.12V67.23ZM41.24 67.06H54.95V63.82H41.24V67.06Z" fill="#D6D2D2"/>
<path d="M61.83 67.14H48.24V70.55H61.83V67.14Z" fill="white"/>
<path d="M61.91 70.63H48.15V67.05H61.91V70.63ZM48.32 70.46H61.74V67.22H48.32V70.46Z" fill="#D6D2D2"/>
<path d="M41.15 63.73H27.56V67.14H41.15V63.73Z" fill="white"/>
<path d="M41.23 67.23H27.47V63.65H41.23V67.23ZM27.64 67.06H41.06V63.82H27.64V67.06Z" fill="#D6D2D2"/>
<path d="M48.24 67.14H34.36V70.55H48.24V67.14Z" fill="white"/>
<path d="M48.32 70.63H34.27V67.05H48.32V70.63ZM34.44 70.46H48.15V67.22H34.44V70.46Z" fill="#D6D2D2"/>
<path d="M82.5 56.92H68.62V60.33H82.5V56.92Z" fill="white"/>
<path d="M82.59 60.41H68.54V56.83H82.59V60.41ZM68.71 60.24H82.42V57H68.71V60.24Z" fill="#D6D2D2"/>
<path d="M89.3 60.33H75.71V63.74H89.3V60.33Z" fill="white"/>
<path d="M89.38 63.82H75.62V60.24H89.38V63.82ZM75.79 63.65H89.21V60.41H75.79V63.65Z" fill="#D6D2D2"/>
<path d="M68.62 56.92H55.03V60.33H68.62V56.92Z" fill="white"/>
<path d="M68.71 60.41H54.95V56.83H68.71V60.41ZM55.12 60.24H68.54V57H55.12V60.24Z" fill="#D6D2D2"/>
<path d="M75.71 60.33H61.83V63.74H75.71V60.33Z" fill="white"/>
<path d="M75.8 63.82H61.75V60.24H75.8V63.82ZM61.92 63.65H75.63V60.41H61.92V63.65Z" fill="#D6D2D2"/>
<path d="M109.97 56.92H96.09V60.33H109.97V56.92Z" fill="white"/>
<path d="M110.06 60.41H96.01V56.83H110.06V60.41ZM96.18 60.24H109.89V57H96.18V60.24Z" fill="#D6D2D2"/>
<path d="M96.1 56.92H82.51V60.33H96.1V56.92Z" fill="white"/>
<path d="M96.18 60.41H82.42V56.83H96.18V60.41ZM82.59 60.24H96.01V57H82.59V60.24Z" fill="#D6D2D2"/>
<path d="M103.18 60.33H89.3V63.74H103.18V60.33Z" fill="white"/>
<path d="M103.27 63.82H89.22V60.24H103.27V63.82ZM89.39 63.65H103.1V60.41H89.39V63.65Z" fill="#D6D2D2"/>
<path d="M82.5 50.1H68.62V53.51H82.5V50.1Z" fill="white"/>
<path d="M82.59 53.6H68.54V50.02H82.59V53.6ZM68.71 53.43H82.42V50.19H68.71V53.43Z" fill="#D6D2D2"/>
<path d="M89.3 53.51H75.71V56.92H89.3V53.51Z" fill="white"/>
<path d="M89.38 57H75.62V53.42H89.38V57ZM75.79 56.83H89.21V53.59H75.79V56.83Z" fill="#D6D2D2"/>
<path d="M68.62 50.1H55.03V53.51H68.62V50.1Z" fill="white"/>
<path d="M68.71 53.6H54.95V50.02H68.71V53.6ZM55.12 53.43H68.54V50.19H55.12V53.43Z" fill="#D6D2D2"/>
<path d="M75.71 53.51H61.83V56.92H75.71V53.51Z" fill="white"/>
<path d="M75.8 57H61.75V53.42H75.8V57ZM61.92 56.83H75.63V53.59H61.92V56.83Z" fill="#D6D2D2"/>
<path d="M109.97 50.1H96.09V53.51H109.97V50.1Z" fill="white"/>
<path d="M110.06 53.6H96.01V50.02H110.06V53.6ZM96.18 53.43H109.89V50.19H96.18V53.43Z" fill="#D6D2D2"/>
<path d="M116.77 53.51H103.18V56.92H116.77V53.51Z" fill="white"/>
<path d="M116.86 57H103.1V53.42H116.86V57ZM103.27 56.83H116.69V53.59H103.27V56.83Z" fill="#D6D2D2"/>
<path d="M96.1 50.1H82.51V53.51H96.1V50.1Z" fill="white"/>
<path d="M96.18 53.6H82.42V50.02H96.18V53.6ZM82.59 53.43H96.01V50.19H82.59V53.43Z" fill="#D6D2D2"/>
<path d="M103.18 53.51H89.3V56.92H103.18V53.51Z" fill="white"/>
<path d="M103.27 57H89.22V53.42H103.27V57ZM89.39 56.83H103.1V53.59H89.39V56.83Z" fill="#D6D2D2"/>
<path d="M82.5 63.73H68.62V67.14H82.5V63.73Z" fill="white"/>
<path d="M82.59 67.23H68.54V63.65H82.59V67.23ZM68.71 67.06H82.42V63.82H68.71V67.06Z" fill="#D6D2D2"/>
<path d="M89.3 67.14H75.71V70.55H89.3V67.14Z" fill="white"/>
<path d="M89.38 70.63H75.62V67.05H89.38V70.63ZM75.79 70.46H89.21V67.22H75.79V70.46Z" fill="#D6D2D2"/>
<path d="M68.62 63.73H55.03V67.14H68.62V63.73Z" fill="white"/>
<path d="M68.71 67.23H54.95V63.65H68.71V67.23ZM55.12 67.06H68.54V63.82H55.12V67.06Z" fill="#D6D2D2"/>
<path d="M75.71 67.14H61.83V70.55H75.71V67.14Z" fill="white"/>
<path d="M75.8 70.63H61.75V67.05H75.8V70.63ZM61.92 70.46H75.63V67.22H61.92V70.46Z" fill="#D6D2D2"/>
<path d="M96.1 63.73H82.51V67.14H96.1V63.73Z" fill="white"/>
<path d="M96.18 67.23H82.42V63.65H96.18V67.23ZM82.59 67.06H96.01V63.82H82.59V67.06Z" fill="#D6D2D2"/>
<path d="M103.18 67.14H89.3V70.55H103.18V67.14Z" fill="white"/>
<path d="M103.27 70.63H89.22V67.05H103.27V70.63ZM89.39 70.46H103.1V67.22H89.39V70.46Z" fill="#D6D2D2"/>
<path d="M110.86 0.279999H6.53998V23.12H110.86V0.279999Z" fill="white"/>
<path d="M29.1 23.66C29.01 23.66 28.93 23.58 28.93 23.49V0.93001C28.93 0.84001 29.01 0.76001 29.1 0.76001C29.19 0.76001 29.27 0.84001 29.27 0.93001V23.49C29.27 23.58 29.19 23.66 29.1 23.66Z" fill="#BBBBBB"/>
<path d="M47.15 23.66C47.06 23.66 46.98 23.58 46.98 23.49V0.93001C46.98 0.84001 47.06 0.76001 47.15 0.76001C47.24 0.76001 47.32 0.84001 47.32 0.93001V23.49C47.32 23.58 47.24 23.66 47.15 23.66Z" fill="#BBBBBB"/>
<path d="M37.71 17.36C36.29 17.36 35.13 16.21 35.13 14.78C35.13 13.35 36.28 12.2 37.71 12.2C39.14 12.2 40.29 13.35 40.29 14.78C40.29 16.21 39.14 17.36 37.71 17.36Z" fill="white"/>
<path d="M37.71 17.53C36.2 17.53 34.96 16.3 34.96 14.78C34.96 13.26 36.19 12.03 37.71 12.03C39.23 12.03 40.46 13.26 40.46 14.78C40.46 16.3 39.23 17.53 37.71 17.53ZM37.71 12.37C36.38 12.37 35.3 13.45 35.3 14.78C35.3 16.11 36.38 17.19 37.71 17.19C39.04 17.19 40.12 16.11 40.12 14.78C40.12 13.45 39.04 12.37 37.71 12.37Z" fill="#BBBBBB"/>
<path d="M37.0842 9.78571L37.0581 10.1247L41.2457 10.4476L41.2718 10.1087L37.0842 9.78571Z" fill="#BBBBBB"/>
<path d="M38.83 6.58999C38.83 6.58999 38.78 6.58999 38.76 6.58999L32.94 5.72999C32.68 5.68999 32.51 5.44999 32.54 5.18999L32.7 4.12999C32.74 3.86999 32.98 3.69999 33.24 3.72999L39.06 4.58999C39.18 4.60999 39.29 4.66999 39.37 4.76999C39.44 4.86999 39.48 4.98999 39.46 5.11999L39.3 6.17999C39.28 6.29999 39.21 6.40999 39.11 6.48999C39.03 6.54999 38.93 6.57999 38.83 6.57999M33.17 4.04999C33.11 4.04999 33.05 4.09999 33.04 4.15999L32.88 5.21999C32.88 5.21999 32.88 5.28999 32.9 5.31999C32.92 5.34999 32.95 5.36999 32.99 5.36999L38.81 6.22999C38.81 6.22999 38.88 6.22999 38.91 6.20999C38.94 6.18999 38.96 6.15999 38.96 6.11999L39.12 5.05999C39.12 5.05999 39.12 4.98999 39.1 4.95999C39.08 4.92999 39.05 4.90999 39.01 4.90999L33.19 4.04999C33.19 4.04999 33.18 4.04999 33.17 4.04999Z" fill="#BBBBBB"/>
<path d="M33.65 16.83L33.57 16.5L37.67 15.57L37.75 15.9L33.65 16.83Z" fill="#BBBBBB"/>
<path d="M43.51 14.01C42.87 14.01 42.35 13.49 42.35 12.85C42.35 12.21 42.87 11.69 43.51 11.69C44.15 11.69 44.67 12.21 44.67 12.85C44.67 13.49 44.15 14.01 43.51 14.01ZM43.51 12.03C43.06 12.03 42.69 12.4 42.69 12.85C42.69 13.3 43.06 13.67 43.51 13.67C43.96 13.67 44.33 13.3 44.33 12.85C44.33 12.4 43.96 12.03 43.51 12.03Z" fill="#BBBBBB"/>
<path d="M71.32 23.66C71.23 23.66 71.15 23.58 71.15 23.49V0.93001C71.15 0.84001 71.23 0.76001 71.32 0.76001C71.41 0.76001 71.49 0.84001 71.49 0.93001V23.49C71.49 23.58 71.41 23.66 71.32 23.66Z" fill="#BBBBBB"/>
<path d="M64.47 11.93C62.31 11.93 60.54 10.17 60.54 8.01C60.54 5.85 62.3 4.09 64.47 4.09C66.64 4.09 68.39 5.85 68.39 8.01C68.39 10.17 66.63 11.93 64.47 11.93ZM64.47 4.43C62.49 4.43 60.88 6.04 60.88 8.01C60.88 9.98 62.49 11.59 64.47 11.59C66.45 11.59 68.06 9.98 68.06 8.01C68.06 6.04 66.45 4.43 64.47 4.43Z" fill="#BBBBBB"/>
<path d="M64.47 20.28C62.97 20.28 61.75 19.06 61.75 17.56C61.75 16.06 62.97 14.84 64.47 14.84C65.97 14.84 67.19 16.06 67.19 17.56C67.19 19.06 65.97 20.28 64.47 20.28ZM64.47 15.18C63.15 15.18 62.09 16.25 62.09 17.56C62.09 18.87 63.16 19.94 64.47 19.94C65.78 19.94 66.85 18.87 66.85 17.56C66.85 16.25 65.78 15.18 64.47 15.18Z" fill="#BBBBBB"/>
<path d="M53.54 20.28C51.38 20.28 49.61 18.52 49.61 16.36C49.61 14.2 51.37 12.44 53.54 12.44C55.71 12.44 57.47 14.2 57.47 16.36C57.47 18.52 55.71 20.28 53.54 20.28ZM53.54 12.78C51.56 12.78 49.95 14.39 49.95 16.36C49.95 18.33 51.56 19.94 53.54 19.94C55.52 19.94 57.13 18.33 57.13 16.36C57.13 14.39 55.52 12.78 53.54 12.78Z" fill="#BBBBBB"/>
<path d="M53.54 9.53C52.04 9.53 50.82 8.31 50.82 6.81C50.82 5.31 52.04 4.09 53.54 4.09C55.04 4.09 56.26 5.31 56.26 6.81C56.26 8.31 55.04 9.53 53.54 9.53ZM53.54 4.43C52.22 4.43 51.16 5.5 51.16 6.81C51.16 8.12 52.23 9.19 53.54 9.19C54.85 9.19 55.92 8.12 55.92 6.81C55.92 5.5 54.85 4.43 53.54 4.43Z" fill="#BBBBBB"/>
<path d="M25.07 7.15C24.22 7.15 23.54 6.46 23.54 5.62C23.54 4.78 24.23 4.09 25.07 4.09C25.91 4.09 26.6 4.78 26.6 5.62C26.6 6.46 25.91 7.15 25.07 7.15ZM25.07 4.43C24.41 4.43 23.88 4.97 23.88 5.62C23.88 6.27 24.42 6.81 25.07 6.81C25.72 6.81 26.26 6.28 26.26 5.62C26.26 4.96 25.72 4.43 25.07 4.43Z" fill="#BBBBBB"/>
<path d="M87.82 23.35C87.73 23.35 87.65 23.27 87.65 23.18V0.339983C87.65 0.249983 87.73 0.169983 87.82 0.169983C87.91 0.169983 87.99 0.249983 87.99 0.339983V23.18C87.99 23.27 87.91 23.35 87.82 23.35Z" fill="#BBBBBB"/>
<path d="M105.38 11.93H93.15C93.06 11.93 92.98 11.85 92.98 11.76C92.98 11.67 93.06 11.59 93.15 11.59H105.38C105.47 11.59 105.55 11.67 105.55 11.76C105.55 11.85 105.47 11.93 105.38 11.93Z" fill="#BBBBBB"/>
<path d="M99.27 18.03C99.18 18.03 99.1 17.95 99.1 17.86V5.65001C99.1 5.56001 99.18 5.48001 99.27 5.48001C99.36 5.48001 99.44 5.56001 99.44 5.65001V17.86C99.44 17.95 99.36 18.03 99.27 18.03Z" fill="#BBBBBB"/>
<path d="M103.59 16.24C103.59 16.24 103.5 16.22 103.47 16.19L94.82 7.56002C94.75 7.49002 94.75 7.39002 94.82 7.32002C94.89 7.25002 94.99 7.25002 95.06 7.32002L103.7 15.95C103.77 16.02 103.77 16.12 103.7 16.19C103.67 16.22 103.62 16.24 103.58 16.24" fill="#BBBBBB"/>
<path d="M94.95 16.24C94.95 16.24 94.86 16.22 94.83 16.19C94.76 16.12 94.76 16.02 94.83 15.95L103.47 7.32002C103.54 7.25002 103.64 7.25002 103.71 7.32002C103.78 7.39002 103.78 7.49002 103.71 7.56002L95.06 16.19C95.06 16.19 94.98 16.24 94.94 16.24" fill="#BBBBBB"/>
<path d="M110.91 23.52H6.59C6.4 23.52 6.25 23.37 6.25 23.18V0.34C6.25 0.15 6.4 0 6.59 0H110.91C111.1 0 111.25 0.15 111.25 0.34V23.18C111.25 23.37 111.1 23.52 110.91 23.52ZM6.92999 22.84H110.57V0.68H6.92999V22.84Z" fill="#595A5C"/>
<path d="M60.04 51.21H58.11V59.59H60.04V51.21Z" fill="white"/>
<path d="M109.68 23.49H6.53998V28.65H109.68V23.49Z" fill="#D3D3D3"/>
<path d="M58.11 28.65C72.35 28.65 85.92 28.51 98.26 28.25C101.34 28.18 104.35 28.11 107.28 28.03C108.74 27.99 110.18 27.95 111.6 27.91H110.03V23.16H6.21002V27.91H4.64001C6.06001 27.95 7.50002 28 8.96002 28.03C11.88 28.11 14.89 28.18 17.98 28.25C30.32 28.51 43.89 28.65 58.13 28.65" fill="#D3D3D3"/>
<path d="M58.11 28.3C71.4 28.3 84.07 28.16 95.58 27.92C101.34 27.8 106.81 27.65 111.93 27.48H110.02V23.15H6.19998V27.48H4.28998C9.40998 27.65 14.88 27.8 20.64 27.92C32.16 28.16 44.82 28.3 58.11 28.3Z" fill="#D2D2D2"/>
<path d="M58.11 27.96C70.45 27.96 82.21 27.84 92.9 27.61C98.25 27.5 103.33 27.36 108.08 27.2C109.27 27.16 110.44 27.12 111.59 27.08H110.02V23.16H6.2V27.08H4.63C5.78 27.12 6.95001 27.16 8.13 27.2C12.89 27.36 17.97 27.5 23.31 27.61C34 27.84 45.76 27.96 58.1 27.96" fill="#D1D1D1"/>
<path d="M58.11 27.62C69.5 27.62 80.36 27.51 90.23 27.3C95.17 27.2 99.86 27.07 104.25 26.92C106.45 26.85 108.57 26.77 110.6 26.68H110.02V23.16H6.2V26.68H5.62C7.66 26.76 9.78 26.84 11.97 26.92C16.36 27.07 21.05 27.2 25.99 27.3C35.86 27.51 46.72 27.62 58.11 27.62Z" fill="#D0D0D0"/>
<path d="M58.11 27.27C79 27.27 97.91 26.85 111.6 26.16H110.03V23.15H6.21002V26.16H4.64001C18.33 26.84 37.24 27.27 58.12 27.27" fill="#CFCFCF"/>
<path d="M58.11 26.93C77.1 26.93 94.29 26.54 106.73 25.92C108.28 25.84 109.77 25.76 111.17 25.68H110.02V23.15H6.19998V25.68H5.04999C6.44999 25.77 7.92999 25.85 9.48999 25.92C21.93 26.54 39.12 26.93 58.11 26.93Z" fill="#CECECE"/>
<path d="M58.11 26.58C75.2 26.58 90.67 26.23 101.87 25.67C104.67 25.53 107.2 25.38 109.43 25.21C109.99 25.17 110.52 25.13 111.04 25.08H110.02V23.14H6.2V25.08H5.17999C5.69999 25.12 6.22999 25.16 6.78999 25.21C9.00999 25.37 11.55 25.53 14.35 25.67C25.55 26.23 41.02 26.58 58.11 26.58Z" fill="#CDCDCD"/>
<path d="M58.11 26.24C73.3 26.24 87.05 25.93 97.01 25.43C101.99 25.18 106.02 24.88 108.8 24.56C110.19 24.4 111.27 24.22 112.01 24.04H110.03V23.15H6.20999V24.04H4.22998C4.95998 24.22 6.03999 24.39 7.43999 24.56C10.22 24.89 14.25 25.19 19.23 25.43C29.18 25.93 42.94 26.24 58.13 26.24" fill="#CCCCCC"/>
<path d="M58.11 25.9C84.69 25.9 106.24 24.82 106.24 23.49C106.24 22.16 84.69 21.08 58.11 21.08C31.53 21.08 9.97998 22.16 9.97998 23.49C9.97998 24.82 31.53 25.9 58.11 25.9Z" fill="#CBCBCB"/>
<path d="M58.11 25.55C80.9 25.55 99.37 24.63 99.37 23.49C99.37 22.35 80.9 21.43 58.11 21.43C35.32 21.43 16.85 22.35 16.85 23.49C16.85 24.63 35.32 25.55 58.11 25.55Z" fill="#CACACA"/>
<path d="M58.11 25.21C77.1 25.21 92.49 24.44 92.49 23.49C92.49 22.54 77.1 21.77 58.11 21.77C39.12 21.77 23.73 22.54 23.73 23.49C23.73 24.44 39.12 25.21 58.11 25.21Z" fill="#C9C9C9"/>
<path d="M58.11 24.86C73.3 24.86 85.61 24.24 85.61 23.48C85.61 22.72 73.29 22.1 58.11 22.1C42.93 22.1 30.6 22.71 30.6 23.48C30.6 24.25 42.92 24.86 58.11 24.86Z" fill="#C8C8C8"/>
<path d="M58.11 24.52C69.5 24.52 78.74 24.06 78.74 23.49C78.74 22.92 69.5 22.46 58.11 22.46C46.72 22.46 37.48 22.92 37.48 23.49C37.48 24.06 46.72 24.52 58.11 24.52Z" fill="#C7C7C7"/>
<path d="M58.11 24.18C65.71 24.18 71.86 23.87 71.86 23.49C71.86 23.11 65.7 22.8 58.11 22.8C50.52 22.8 44.36 23.11 44.36 23.49C44.36 23.87 50.52 24.18 58.11 24.18Z" fill="#C6C6C6"/>
<path d="M58.11 23.83C61.91 23.83 64.99 23.68 64.99 23.49C64.99 23.3 61.91 23.15 58.11 23.15C54.31 23.15 51.23 23.3 51.23 23.49C51.23 23.68 54.31 23.83 58.11 23.83Z" fill="#C5C5C4"/>
<path d="M30.96 28.09C30.82 28.09 30.28 27.62 29.76 27.06C28.8 26.03 28.62 25.7 29.03 25.72C29.15 25.72 29.27 25.53 29.28 25.28C29.29 25.03 29.4 24.83 29.53 24.84C29.65 24.84 29.77 24.57 29.79 24.22C29.81 23.85 30.02 23.47 30.29 23.29C30.55 23.12 30.77 22.83 30.78 22.64C30.79 22.45 31.01 22.15 31.27 21.99C31.53 21.82 31.75 21.55 31.76 21.39C31.76 21.22 32.52 20.43 33.44 19.61C34.35 18.8 35.11 18.02 35.12 17.89C35.14 17.52 37.22 15.73 37.61 15.75C37.8 15.76 37.96 15.67 37.97 15.54C37.97 15.42 38.08 15.32 38.21 15.33C38.61 15.35 38.41 16.14 37.92 16.45C37.66 16.62 37.45 16.83 37.44 16.93C37.44 17.03 37.63 17.12 37.88 17.13C38.13 17.14 38.33 17.21 38.33 17.28C38.32 17.51 37.65 18.02 37.39 18.01C37.01 17.99 35.49 19.43 35.47 19.83C35.47 20.02 35.35 20.17 35.23 20.16C35.11 20.16 34.99 20.35 34.98 20.6C34.97 20.85 34.85 21.05 34.73 21.04C34.61 21.04 34.49 21.23 34.48 21.48C34.47 21.73 34.36 21.93 34.23 21.92C34.11 21.92 33.99 22.11 33.98 22.36C33.97 22.61 33.85 22.81 33.73 22.8C33.61 22.8 33.49 22.99 33.48 23.24C33.47 23.49 33.36 23.69 33.23 23.68C33.11 23.68 32.99 23.87 32.98 24.12C32.97 24.37 32.85 24.57 32.73 24.56C32.61 24.56 32.49 24.75 32.48 25C32.46 25.3 32.61 25.46 32.91 25.48C33.16 25.49 33.36 25.61 33.35 25.73C33.35 25.85 33.54 25.97 33.79 25.98C34.04 25.99 34.24 26.1 34.23 26.23C34.23 26.35 34.42 26.47 34.67 26.48C34.92 26.49 35.12 26.61 35.11 26.73C35.11 26.85 35.4 26.97 35.78 26.99C36.24 27.01 36.46 26.91 36.48 26.68C36.5 26.23 37.56 25.27 38.02 25.3C38.21 25.3 38.37 25.22 38.38 25.09C38.4 24.76 39.24 24.86 39.34 25.2C39.4 25.4 39.58 25.33 39.91 25C40.17 24.73 40.56 24.52 40.76 24.53C40.96 24.54 41.14 24.45 41.14 24.32C41.14 24.2 41.46 24.11 41.83 24.13C42.2 24.15 42.5 24.27 42.5 24.39C42.5 24.51 42.65 24.63 42.86 24.64C43.06 24.65 43.42 24.9 43.65 25.19C43.94 25.55 44.11 25.63 44.19 25.45C44.33 25.12 45.18 25.12 45.16 25.45C45.14 25.79 45.81 25.76 46.2 25.41C46.59 25.06 46.72 23.95 46.38 23.93C46.26 23.93 46.18 23.51 46.2 23.01C46.23 22.51 46.15 22.1 46.02 22.09C45.89 22.09 45.83 21.47 45.87 20.72C45.91 19.97 45.84 19.36 45.72 19.35C45.59 19.35 45.53 18.66 45.58 17.76C45.63 16.86 45.57 16.17 45.44 16.17C45.32 16.17 45.22 16 45.23 15.8C45.23 15.6 44.96 15.14 44.6 14.77C43.84 13.98 43.81 13.82 44.42 13.85C44.72 13.87 44.88 13.72 44.9 13.42C44.91 13.17 44.82 12.96 44.7 12.96C44.58 12.96 44.48 12.74 44.5 12.5C44.51 12.24 44.67 12.06 44.87 12.07C45.32 12.09 46.28 13.15 46.25 13.61C46.25 13.8 46.33 13.96 46.46 13.97C46.58 13.97 46.67 14.29 46.65 14.66C46.63 15.03 46.72 15.34 46.84 15.35C46.96 15.35 47.05 15.77 47.02 16.27C46.99 16.77 47.07 17.18 47.2 17.19C47.32 17.19 47.41 17.4 47.4 17.65C47.39 17.9 47.48 18.11 47.6 18.11C47.72 18.11 47.81 18.43 47.79 18.8C47.77 19.17 47.86 19.48 47.98 19.49C48.1 19.49 48.19 19.81 48.17 20.18C48.15 20.55 48.24 20.86 48.36 20.87C48.48 20.87 48.57 21.19 48.55 21.56C48.53 21.93 48.62 22.24 48.74 22.25C48.88 22.25 48.88 23.84 48.74 26.56C48.6 29.27 48.43 30.85 48.29 30.84C48.17 30.84 48.06 30.98 48.05 31.17C48.05 31.36 47.66 31.85 47.21 32.26C46.58 32.83 46.2 32.99 45.59 32.96C45.15 32.94 44.79 33.02 44.78 33.14C44.78 33.26 44.46 33.35 44.09 33.33C43.72 33.31 43.41 33.4 43.4 33.52C43.4 33.65 42.64 33.71 41.58 33.65C40.53 33.59 39.78 33.46 39.78 33.33C39.78 33.21 39.59 33.09 39.34 33.08C39.09 33.07 38.89 32.96 38.9 32.83C38.92 32.5 38.07 32.51 37.9 32.83C37.78 33.05 37.73 33.05 37.64 32.82C37.57 32.66 37.33 32.52 37.09 32.51C36.85 32.5 36.66 32.39 36.67 32.26C36.67 32.14 36.48 32.02 36.23 32.01C35.98 32 35.78 31.89 35.79 31.76C35.79 31.64 35.62 31.53 35.4 31.51C35.18 31.5 34.86 31.28 34.7 31.02C34.54 30.76 34.24 30.54 34.05 30.53C33.86 30.53 33.56 30.3 33.4 30.04C33.23 29.78 32.96 29.56 32.79 29.55C32.62 29.55 32.21 29.21 31.88 28.82C31.55 28.43 31.17 28.1 31.03 28.09" fill="#010101"/>
</svg>
