<svg width="474" height="223" viewBox="0 0 474 223" fill="none" xmlns="http://www.w3.org/2000/svg">
<g clip-path="url(#clip0_1_8)">
<path d="M148.794 51.5025L120.623 24.4906L145.293 0H151.528L126.287 24.331L155.085 51.5025H148.794Z" fill="white"/>
<path d="M118.142 0H113.236V51.4919H118.142V0Z" fill="white"/>
<path d="M173.098 0H168.192V51.4919H173.098V0Z" fill="white"/>
<path d="M203.769 51.5025V3.97892H184.913V0H227.53V3.97892H208.675V51.5025H203.769Z" fill="white"/>
<path d="M113.068 122.123V70.6311H135.069C137.531 70.6311 139.853 71.0035 141.988 71.7375C144.094 72.4716 145.966 73.5461 147.549 74.9398C149.112 76.3229 150.348 78.0251 151.219 80.0145C152.089 81.9934 152.529 84.302 152.529 86.8766C152.529 89.4512 152.089 91.7492 151.219 93.7386C150.348 95.7281 149.112 97.4303 147.549 98.8133C145.966 100.218 144.094 101.292 141.988 102.016C139.862 102.75 137.54 103.122 135.069 103.122H117.973V122.134H113.068V122.123ZM117.973 99.1218H135.069C138.72 99.1218 141.744 97.9835 144.057 95.76C146.416 93.4833 147.614 90.4831 147.614 86.8553C147.614 83.2275 146.416 80.0784 144.047 77.8655C141.735 75.6952 138.711 74.5887 135.069 74.5887H117.973V99.1218V99.1218Z" fill="white"/>
<path d="M200.511 122.123V109.835C200.511 107.41 200.061 105.452 199.172 104.026C198.264 102.569 196.785 101.537 194.762 100.952C192.89 100.409 190.315 100.133 187.104 100.133H170.093V122.112H165.187V70.6205H188.817C192.572 70.6205 195.811 71.1631 198.432 72.2482C200.979 73.2908 202.945 74.876 204.274 76.9399C205.604 78.9932 206.269 81.6423 206.269 84.7914C206.269 86.9085 205.913 88.7384 205.229 90.2278C204.527 91.7279 203.544 93.0046 202.308 94.0259C201.035 95.0685 199.509 95.8983 197.768 96.4622C196.7 96.8132 193.077 98.0686 191.514 98.3027C193.527 98.4729 197.777 100.005 199.303 100.43C201.26 100.984 202.795 101.973 203.853 103.377C204.892 104.76 205.417 106.941 205.417 109.846V122.123H200.511V122.123ZM170.093 96.1536H188.817C192.927 96.1536 196.073 95.1004 198.161 93.0258C200.286 90.9087 201.363 88.1426 201.363 84.7914C201.363 81.4402 200.258 78.94 198.086 77.1527C196.008 75.4505 192.89 74.5888 188.817 74.5888H170.093V96.1536V96.1536Z" fill="white"/>
<path d="M294.863 122.942C292.392 122.942 290.06 122.58 287.935 121.878C285.829 121.176 283.975 120.155 282.412 118.825C280.867 117.516 279.622 115.899 278.695 114.006C277.927 112.442 277.44 110.697 277.234 108.793H281.644C282.355 111.995 283.844 114.495 286.082 116.208C288.469 118.038 291.418 118.963 294.854 118.963C297.7 118.963 300.069 118.357 301.904 117.165C303.748 115.963 305.152 114.282 306.061 112.197C306.95 110.144 307.409 107.771 307.409 105.133V70.6205H312.315V105.133C312.315 107.675 311.931 110.069 311.182 112.25C310.433 114.399 309.319 116.304 307.858 117.889C306.388 119.485 304.563 120.74 302.419 121.612C300.247 122.495 297.709 122.942 294.863 122.942V122.942Z" fill="white"/>
<path d="M327.987 122.123V70.6205H365.473V74.5994H332.893V94.5046H359.556V98.4835H332.893V118.144H365.557V122.123H327.987Z" fill="white"/>
<path d="M402.875 122.942C399.177 122.942 395.704 122.314 392.567 121.059C389.44 119.814 386.679 118.016 384.357 115.697C382.044 113.389 380.209 110.569 378.899 107.314C377.588 104.058 376.932 100.377 376.932 96.3664C376.932 92.3556 377.597 88.6107 378.899 85.3872C380.209 82.153 382.044 79.3443 384.357 77.0357C386.679 74.7164 389.44 72.9078 392.567 71.6737C395.704 70.429 399.177 69.7906 402.875 69.7906C406.901 69.7906 410.571 70.5247 413.782 71.9823C416.965 73.4185 419.624 75.525 421.684 78.206C423.481 80.5571 424.717 83.3445 425.345 86.4936H420.879C420.027 83.9084 418.772 81.6848 417.143 79.8656C415.364 77.8868 413.211 76.3654 410.758 75.3228C408.315 74.2909 405.665 73.7696 402.875 73.7696C399.252 73.7696 395.816 74.6419 392.642 76.3548C389.44 78.0889 386.81 80.6635 384.834 84.0147C382.849 87.3873 381.838 91.5364 381.838 96.3664C381.838 101.196 382.849 105.356 384.834 108.718C386.81 112.069 389.44 114.644 392.642 116.378C395.816 118.102 399.261 118.963 402.875 118.963C405.665 118.963 408.305 118.453 410.711 117.453C413.146 116.442 415.28 114.92 417.059 112.952C418.688 111.144 419.943 108.941 420.795 106.409H425.26C424.624 109.505 423.397 112.25 421.6 114.569C419.54 117.24 416.881 119.314 413.698 120.761C410.496 122.208 406.854 122.942 402.875 122.942V122.942Z" fill="white"/>
<path d="M450.239 122.123V74.5994H431.374V70.6205H474V74.5994H455.135V122.123H450.239Z" fill="white"/>
<path d="M93.7252 124.591H59.1037C58.6543 124.591 58.233 124.378 57.9334 124.006L26.8134 85.2595C26.261 84.5679 26.261 83.504 26.8228 82.8232L91.6562 3.59592H59.6186L2.74313 72.961C2.30311 73.5036 1.6103 73.6738 1.00176 73.4078C0.393213 73.1418 0 72.4716 0 71.7375V1.8086C0 0.819189 0.711529 0 1.58222 0H28.1522C29.0229 0 29.7344 0.80855 29.7344 1.79796V18.4903C29.7344 19.4797 29.0229 20.2882 28.1522 20.2882C27.2815 20.2882 26.57 19.4797 26.57 18.4903V3.60656H3.16443V67.1735L57.7649 0.585135C58.0645 0.223415 58.4858 0.0106388 58.9258 0.0106388H95.2887C95.916 0.0106388 96.4871 0.436191 96.7398 1.0958C96.9926 1.7554 96.8803 2.51076 96.4496 3.0427L30.1276 84.0785L59.7965 121.006H90.1488L53.5519 74.9398C52.9621 74.2057 53.0183 73.0674 53.6643 72.3971C54.3102 71.7269 55.312 71.7907 55.9018 72.5248L94.8861 121.602C95.3074 122.134 95.4104 122.889 95.1576 123.538C94.9142 124.176 94.3525 124.591 93.7252 124.591Z" fill="white"/>
<path d="M4.9245 126.293H25.5495C28.4799 126.293 29.9872 122.293 27.9556 119.889L7.39613 95.4515C5.31772 92.9832 1.66645 94.6429 1.65709 98.058L1.59155 122.495C1.59155 124.591 3.08015 126.293 4.9245 126.293V126.293Z" fill="#424E9C"/>
<path d="M245.075 125.155C258.891 125.155 270.091 112.428 270.091 96.7281C270.091 81.0284 258.891 68.3012 245.075 68.3012C231.259 68.3012 220.059 81.0284 220.059 96.7281C220.059 112.428 231.259 125.155 245.075 125.155Z" stroke="white" stroke-width="2" stroke-miterlimit="10"/>
<path d="M1.47827 179.133H8.90386V190.739H8.19255V179.912H2.21113V190.739H1.47827V179.133V179.133Z" fill="white"/>
<path d="M16.0492 179.133H16.7821V181.922H16.8467C17.6227 179.858 19.1423 178.778 20.7481 178.778C23.5179 178.778 25.3824 181.416 25.3824 184.929C25.3824 188.443 23.4856 191.054 20.7481 191.054C19.1423 191.054 17.558 189.974 16.8467 187.964H16.7821V196.754H16.0492V179.12V179.133ZM24.628 184.929C24.628 182.045 23.1191 179.557 20.705 179.557C18.2909 179.557 16.7066 181.963 16.7066 184.929C16.7066 187.896 18.3879 190.274 20.705 190.274C23.0221 190.274 24.628 187.841 24.628 184.929Z" fill="white"/>
<path d="M30.9758 184.902C30.9758 181.334 32.9804 178.778 35.7825 178.778C38.5846 178.778 40.6108 181.334 40.6108 184.902C40.6108 188.47 38.6062 191.054 35.7825 191.054C32.9589 191.054 30.9758 188.47 30.9758 184.902ZM39.8671 184.902C39.8671 181.936 38.3044 179.557 35.7933 179.557C33.2822 179.557 31.7302 181.949 31.7302 184.902C31.7302 187.855 33.2714 190.274 35.7933 190.274C38.3152 190.274 39.8671 187.868 39.8671 184.902Z" fill="white"/>
<path d="M46.2257 184.834C46.2257 181.32 48.1656 178.778 50.666 178.778C53.522 178.778 54.9661 181.512 54.9661 184.424C54.9661 184.601 54.9446 184.806 54.9446 184.97H46.9693C46.9909 187.636 48.3381 190.274 50.8492 190.274C52.2502 190.274 53.3064 189.468 54.1147 188.21L54.6105 188.743C53.6621 190.274 52.4119 191.054 50.8492 191.054C48.1333 191.054 46.2365 188.443 46.2365 184.82L46.2257 184.834ZM54.244 184.232C54.1794 181.471 52.7999 179.557 50.6552 179.557C48.198 179.557 47.0125 182.414 46.9693 184.232H54.2333H54.244Z" fill="white"/>
<path d="M61.3679 179.133H62.0792V184.588H62.1223L66.8967 179.133H67.9313L62.963 184.629L68.4702 190.725H67.4032L62.1331 184.752H62.09V190.725H61.3787V179.12L61.3679 179.133Z" fill="white"/>
<path d="M76.0035 179.912H72.5225V179.133H80.2067V179.912H76.7256V190.739H76.0143V179.912H76.0035Z" fill="white"/>
<path d="M85.8647 179.133H86.5976V184.301H92.6976V179.133H93.4089V190.739H92.6976V185.093H86.5976V190.739H85.8647V179.133Z" fill="white"/>
<path d="M99.8862 187.663C99.8862 184.301 102.893 183.822 105.21 183.822H106.417V183.07C106.417 180.664 105.329 179.557 103.626 179.557C102.537 179.557 101.567 180.104 100.856 180.938L100.457 180.282C101.266 179.352 102.462 178.778 103.669 178.778C105.728 178.778 107.118 180.131 107.118 183.029V188.128C107.118 189.003 107.172 190.11 107.279 190.739H106.611C106.536 190.11 106.471 188.907 106.471 188.251H106.407C105.792 190.179 104.445 191.067 102.979 191.067C101.514 191.067 99.8862 190.056 99.8862 187.677V187.663ZM106.417 185.572V184.547H105.307C103.249 184.547 100.598 184.929 100.598 187.636C100.598 189.618 101.988 190.302 103.087 190.302C105.544 190.302 106.417 187.786 106.417 185.586V185.572Z" fill="white"/>
<path d="M116.041 185.859C114.576 185.504 113.649 184.355 113.649 182.523C113.649 180.364 114.877 179.133 117.033 179.133H120.622V190.739H119.889V185.914H116.839L114.349 190.739H113.498L116.052 185.873L116.041 185.859ZM119.878 185.107V179.912H117.044C115.319 179.912 114.349 180.869 114.349 182.523C114.349 184 115.265 185.107 116.882 185.107H119.867H119.878Z" fill="white"/>
<path d="M136.508 171.888V197H135.839V171.888H136.508Z" fill="white"/>
<path d="M151.757 179.133H152.911L156.866 189.399L160.886 179.133H161.996V190.739H161.285V180.09H161.242L157.103 190.739H156.65L152.533 180.117H152.49V190.739H151.757V179.133Z" fill="white"/>
<path d="M171.103 185.859C169.637 185.504 168.71 184.355 168.71 182.523C168.71 180.364 169.939 179.133 172.094 179.133H175.683V190.739H174.95V185.914H171.9L169.411 190.739H168.559L171.114 185.873L171.103 185.859ZM174.94 185.107V179.912H172.105C170.381 179.912 169.411 180.869 169.411 182.523C169.411 184 170.327 185.107 171.943 185.107H174.929H174.94Z" fill="white"/>
<path d="M182.839 179.133H188.659V179.912H183.572V190.739H182.839V179.133V179.133Z" fill="white"/>
<path d="M194.35 179.133H195.061V184.588H195.104L199.878 179.133H200.913L195.945 184.629L201.452 190.725H200.385L195.115 184.752H195.072V190.725H194.36V179.12L194.35 179.133Z" fill="white"/>
<path d="M206.291 187.663C206.291 184.301 209.298 183.822 211.615 183.822H212.822V183.07C212.822 180.664 211.733 179.557 210.031 179.557C208.942 179.557 207.972 180.104 207.261 180.938L206.862 180.282C207.67 179.352 208.867 178.778 210.074 178.778C212.132 178.778 213.522 180.131 213.522 183.029V188.128C213.522 189.003 213.576 190.11 213.684 190.739H213.016C212.94 190.11 212.876 188.907 212.876 188.251H212.811C212.197 190.179 210.85 191.067 209.384 191.067C207.918 191.067 206.291 190.056 206.291 187.677V187.663ZM212.822 185.572V184.547H211.712C209.653 184.547 207.002 184.929 207.002 187.636C207.002 189.618 208.392 190.302 209.492 190.302C211.949 190.302 212.822 187.786 212.822 185.586V185.572Z" fill="white"/>
<path d="M222.446 185.859C220.98 185.504 220.053 184.355 220.053 182.523C220.053 180.364 221.282 179.133 223.438 179.133H227.026V190.739H226.294V185.914H223.244L220.754 190.739H219.903L222.457 185.873L222.446 185.859ZM226.283 185.107V179.912H223.448C221.724 179.912 220.754 180.869 220.754 182.523C220.754 184 221.67 185.107 223.287 185.107H226.272H226.283Z" fill="white"/>
<path d="M242.912 171.888V197H242.244V171.888H242.912Z" fill="white"/>
<path d="M258.184 179.133H258.895V184.588H258.938L263.712 179.133H264.747L259.779 184.629L265.286 190.725H264.219L258.949 184.752H258.906V190.725H258.194V179.12L258.184 179.133Z" fill="white"/>
<path d="M269.705 184.902C269.705 181.334 271.709 178.778 274.511 178.778C277.314 178.778 279.34 181.334 279.34 184.902C279.34 188.47 277.335 191.054 274.511 191.054C271.688 191.054 269.705 188.47 269.705 184.902V184.902ZM278.596 184.902C278.596 181.936 277.033 179.557 274.522 179.557C272.011 179.557 270.459 181.949 270.459 184.902C270.459 187.855 272 190.274 274.522 190.274C277.044 190.274 278.596 187.868 278.596 184.902Z" fill="white"/>
<path d="M285.709 179.133H286.442V181.922H286.496C287.272 179.858 288.791 178.778 290.397 178.778C293.167 178.778 295.031 181.416 295.031 184.929C295.031 188.443 293.135 191.054 290.397 191.054C288.791 191.054 287.207 189.974 286.496 187.964H286.442V196.754H285.709V179.12V179.133ZM294.288 184.929C294.288 182.045 292.779 179.557 290.365 179.557C287.951 179.557 286.367 181.963 286.367 184.929C286.367 187.896 288.048 190.274 290.365 190.274C292.682 190.274 294.288 187.841 294.288 184.929Z" fill="white"/>
<path d="M301.422 179.133H308.848V190.739H308.137V179.912H302.155V190.739H301.422V179.133V179.133Z" fill="white"/>
<path d="M314.571 196.631L314.689 195.797C314.905 195.893 315.228 195.975 315.498 195.975C316.543 195.975 317.028 194.922 317.362 193.787L318.192 190.944L314.485 179.12H315.271L318.558 189.864L321.684 179.12H322.46L317.901 194.293C317.427 195.852 316.748 196.781 315.487 196.781C315.207 196.781 314.819 196.727 314.56 196.631H314.571Z" fill="white"/>
<path d="M334.627 181.006C334.013 180.104 333.065 179.543 332.052 179.543C329.616 179.543 328.075 182.004 328.075 184.916C328.075 187.827 329.616 190.247 332.052 190.247C333.119 190.247 334.056 189.741 334.767 188.894L335.199 189.44C334.369 190.548 333.302 191.054 332.052 191.054C329.282 191.054 327.32 188.497 327.32 184.929C327.32 181.361 329.282 178.778 332.052 178.778C333.259 178.778 334.369 179.352 335.123 180.432L334.627 181.006V181.006Z" fill="white"/>
<path d="M340.964 179.133H341.697V184.301H347.797V179.133H348.509V190.739H347.797V185.093H341.697V190.739H340.964V179.133Z" fill="white"/>
<path d="M354.89 187.447C354.89 184.084 357.897 183.606 360.214 183.606H361.421V182.854C361.421 180.448 360.333 179.341 358.63 179.341C357.541 179.341 356.572 179.888 355.86 180.722L355.461 180.065C356.27 179.136 357.466 178.562 358.673 178.562C360.732 178.562 362.122 179.915 362.122 182.813V187.912C362.122 188.787 362.176 189.894 362.283 190.523H361.615C361.54 189.894 361.475 188.691 361.475 188.035H361.421C360.807 189.963 359.46 190.851 357.994 190.851C356.528 190.851 354.901 189.84 354.901 187.461L354.89 187.447ZM361.421 185.356V184.33H360.311C358.253 184.33 355.602 184.713 355.602 187.42C355.602 189.402 356.992 190.086 358.102 190.086C360.559 190.086 361.432 187.57 361.432 185.369L361.421 185.356Z" fill="white"/>
<path d="M371.141 185.859C369.675 185.504 368.748 184.355 368.748 182.523C368.748 180.364 369.977 179.133 372.133 179.133H375.721V190.739H374.989V185.914H371.939L369.438 190.739H368.587L371.141 185.873V185.859ZM374.978 185.107V179.912H372.143C370.419 179.912 369.449 180.869 369.449 182.523C369.449 184 370.354 185.107 371.982 185.107H374.967H374.978Z" fill="white"/>
<path d="M391.057 179.133H392.211L396.166 189.399L400.186 179.133H401.296V190.739H400.585V180.09H400.542L396.403 190.739H395.95L391.833 180.117H391.79V190.739H391.057V179.133V179.133Z" fill="white"/>
<path d="M407.687 184.834C407.687 181.32 409.627 178.778 412.127 178.778C414.983 178.778 416.427 181.512 416.427 184.424C416.427 184.601 416.406 184.806 416.406 184.97H408.431C408.452 187.636 409.799 190.274 412.31 190.274C413.712 190.274 414.768 189.468 415.576 188.21L416.072 188.743C415.123 190.274 413.873 191.054 412.31 191.054C409.595 191.054 407.698 188.443 407.698 184.82L407.687 184.834ZM415.705 184.232C415.641 181.471 414.261 179.557 412.116 179.557C409.659 179.557 408.474 182.414 408.431 184.232H415.695H415.705Z" fill="white"/>
<path d="M422.269 184.355C422.269 178.682 422.484 173.706 426.17 173.132L429.382 172.626C430.071 172.531 430.804 172.326 431.009 171.519L431.526 171.724C431.311 172.681 430.772 173.187 429.565 173.378L426.461 173.884C423.67 174.335 422.98 177.247 422.937 182.1H423.002C423.896 179.885 425.437 178.887 427.194 178.887C430.007 178.887 431.731 181.621 431.731 185.011C431.731 188.402 429.748 191.067 426.935 191.067C424.338 191.067 422.279 189.003 422.279 184.355H422.269ZM430.977 185.011C430.977 181.99 429.468 179.666 427.075 179.666C424.683 179.666 423.002 182.031 423.002 185.066C423.002 188.101 424.564 190.288 426.924 190.288C429.285 190.288 430.988 188.032 430.988 185.011H430.977Z" fill="white"/>
<path d="M437.314 184.834C437.314 181.32 439.254 178.778 441.754 178.778C444.61 178.778 446.054 181.512 446.054 184.424C446.054 184.601 446.033 184.806 446.033 184.97H438.058C438.079 187.636 439.426 190.274 441.937 190.274C443.339 190.274 444.395 189.468 445.203 188.21L445.699 188.743C444.75 190.274 443.5 191.054 441.937 191.054C439.222 191.054 437.325 188.443 437.325 184.82L437.314 184.834ZM445.332 184.232C445.268 181.471 443.888 179.557 441.743 179.557C439.286 179.557 438.101 182.414 438.058 184.232H445.322H445.332Z" fill="white"/>
<path d="M450.775 190.725L450.915 189.919C451.033 189.987 451.271 190.042 451.464 190.042C453.329 190.042 453.879 187.281 453.879 183.262V179.12H459.957V190.725H459.246V179.899H454.568V183.467C454.568 187.54 453.954 190.848 451.518 190.848C451.303 190.848 450.926 190.78 450.764 190.725H450.775Z" fill="white"/>
<path d="M467.167 179.133H467.9V183.931H470.67C473.03 183.931 474 185.367 474 187.417C474 189.468 473.009 190.725 470.691 190.725H467.167V179.12V179.133ZM470.735 189.933C472.577 189.933 473.267 188.976 473.267 187.417C473.267 185.859 472.61 184.711 470.735 184.711H467.9V189.933H470.735Z" fill="white"/>
<path d="M0.0803223 147.177L474 148.012" stroke="white" stroke-width="2" stroke-miterlimit="10"/>
</g>
<defs>
<clipPath id="clip0_1_8">
<rect width="474" height="223" fill="white"/>
</clipPath>
</defs>
</svg>
