<svg width="474" height="204" viewBox="0 0 474 204" fill="none" xmlns="http://www.w3.org/2000/svg">
<g clip-path="url(#clip0_1_8)">
<path d="M148.794 47.1144L120.623 22.4039L145.293 0H151.528L126.287 22.2579L155.085 47.1144H148.794Z" fill="white"/>
<path d="M118.142 0H113.236V47.1047H118.142V0Z" fill="white"/>
<path d="M173.098 0H168.192V47.1047H173.098V0Z" fill="white"/>
<path d="M203.769 47.1144V3.63991H184.913V0H227.53V3.63991H208.675V47.1144H203.769Z" fill="white"/>
<path d="M113.068 111.718V64.6132H135.069C137.531 64.6132 139.853 64.9538 141.988 65.6253C144.094 66.2969 145.966 67.2798 147.549 68.5548C149.112 69.82 150.348 71.3772 151.219 73.1971C152.089 75.0073 152.529 77.1193 152.529 79.4745C152.529 81.8297 152.089 83.9319 151.219 85.7519C150.348 87.5718 149.112 89.129 147.549 90.3942C145.966 91.6789 144.094 92.6618 141.988 93.3236C139.862 93.9952 137.54 94.3358 135.069 94.3358H117.973V111.728H113.068V111.718ZM117.973 90.6764H135.069C138.72 90.6764 141.744 89.6351 144.057 87.601C146.416 85.5183 147.614 82.7738 147.614 79.455C147.614 76.1363 146.416 73.2555 144.047 71.2312C141.735 69.2458 138.711 68.2336 135.069 68.2336H117.973V90.6764V90.6764Z" fill="white"/>
<path d="M200.511 111.718V100.477C200.511 98.258 200.061 96.4673 199.172 95.1632C198.264 93.8298 196.785 92.8858 194.762 92.3505C192.89 91.8541 190.315 91.6011 187.104 91.6011H170.093V111.708H165.187V64.6035H188.817C192.572 64.6035 195.811 65.0999 198.432 66.0926C200.979 67.0463 202.945 68.4965 204.274 70.3845C205.604 72.2629 206.269 74.6862 206.269 77.567C206.269 79.5038 205.913 81.1777 205.229 82.5403C204.527 83.9125 203.544 85.0804 202.308 86.0147C201.035 86.9685 199.509 87.7276 197.768 88.2434C196.7 88.5646 193.077 89.713 191.514 89.9271C193.527 90.0829 197.777 91.4843 199.303 91.8736C201.26 92.3797 202.795 93.2848 203.853 94.5695C204.892 95.8347 205.417 97.8298 205.417 100.487V111.718H200.511V111.718ZM170.093 87.9612H188.817C192.927 87.9612 196.073 86.9977 198.161 85.0999C200.286 83.1631 201.363 80.6327 201.363 77.567C201.363 74.5013 200.258 72.2142 198.086 70.5792C196.008 69.022 192.89 68.2337 188.817 68.2337H170.093V87.9612V87.9612Z" fill="white"/>
<path d="M294.863 112.467C292.392 112.467 290.06 112.136 287.935 111.494C285.829 110.852 283.975 109.917 282.412 108.701C280.867 107.504 279.622 106.024 278.695 104.292C277.927 102.861 277.44 101.265 277.234 99.5233H281.644C282.355 102.453 283.844 104.74 286.082 106.307C288.469 107.981 291.418 108.827 294.854 108.827C297.7 108.827 300.069 108.273 301.904 107.183C303.748 106.083 305.152 104.545 306.061 102.638C306.95 100.759 307.409 98.589 307.409 96.1753V64.6035H312.315V96.1753C312.315 98.5014 311.931 100.691 311.182 102.686C310.433 104.652 309.319 106.394 307.858 107.844C306.388 109.304 304.563 110.453 302.419 111.251C300.247 112.059 297.709 112.467 294.863 112.467V112.467Z" fill="white"/>
<path d="M327.987 111.718V64.6035H365.473V68.2434H332.893V86.4527H359.556V90.0926H332.893V108.078H365.557V111.718H327.987Z" fill="white"/>
<path d="M402.875 112.467C399.177 112.467 395.704 111.893 392.567 110.745C389.44 109.606 386.679 107.961 384.357 105.84C382.044 103.728 380.209 101.149 378.899 98.1704C377.588 95.1923 376.932 91.8249 376.932 88.1558C376.932 84.4867 377.597 81.0609 378.899 78.112C380.209 75.1534 382.044 72.584 384.357 70.4721C386.679 68.3505 389.44 66.6959 392.567 65.567C395.704 64.4283 399.177 63.8444 402.875 63.8444C406.901 63.8444 410.571 64.5159 413.782 65.8492C416.965 67.1631 419.624 69.0901 421.684 71.5427C423.481 73.6935 424.717 76.2434 425.345 79.1242H420.879C420.027 76.7592 418.772 74.7251 417.143 73.0609C415.364 71.2507 413.211 69.859 410.758 68.9052C408.315 67.9612 405.665 67.4843 402.875 67.4843C399.252 67.4843 395.816 68.2823 392.642 69.8492C389.44 71.4356 386.81 73.7908 384.834 76.8565C382.849 79.9417 381.838 83.7373 381.838 88.1558C381.838 92.5743 382.849 96.3797 384.834 99.4551C386.81 102.521 389.44 104.876 392.642 106.462C395.816 108.039 399.261 108.827 402.875 108.827C405.665 108.827 408.305 108.36 410.711 107.445C413.146 106.521 415.28 105.129 417.059 103.329C418.688 101.674 419.943 99.6595 420.795 97.3432H425.26C424.624 100.175 423.397 102.686 421.6 104.808C419.54 107.251 416.881 109.149 413.698 110.472C410.496 111.796 406.854 112.467 402.875 112.467V112.467Z" fill="white"/>
<path d="M450.239 111.718V68.2434H431.374V64.6035H474V68.2434H455.135V111.718H450.239Z" fill="white"/>
<path d="M93.7252 113.976H59.1037C58.6543 113.976 58.233 113.781 57.9334 113.44L26.8134 77.9952C26.261 77.3626 26.261 76.3894 26.8228 75.7665L91.6562 3.28954H59.6186L2.74313 66.7446C2.30311 67.2409 1.6103 67.3967 1.00176 67.1533C0.393213 66.91 0 66.2969 0 65.6254V1.6545C0 0.749392 0.711529 0 1.58222 0H28.1522C29.0229 0 29.7344 0.73966 29.7344 1.64477V16.9149C29.7344 17.82 29.0229 18.5596 28.1522 18.5596C27.2815 18.5596 26.57 17.82 26.57 16.9149V3.29927H3.16443V61.4502L57.7649 0.53528C58.0645 0.20438 58.4858 0.00973237 58.9258 0.00973237H95.2887C95.916 0.00973237 96.4871 0.399027 96.7398 1.00243C96.9926 1.60584 96.8803 2.29684 96.4496 2.78346L30.1276 76.9149L59.7965 110.696H90.1488L53.5519 68.5548C52.9621 67.8833 53.0183 66.8419 53.6643 66.2288C54.3102 65.6156 55.312 65.674 55.9018 66.3456L94.8861 111.241C95.3074 111.728 95.4104 112.419 95.1576 113.012C94.9142 113.596 94.3525 113.976 93.7252 113.976Z" fill="white"/>
<path d="M4.9245 115.533H25.5495C28.4799 115.533 29.9872 111.874 27.9556 109.674L7.39613 87.3188C5.31772 85.0609 1.66645 86.5791 1.65709 89.7032L1.59155 112.058C1.59155 113.976 3.08015 115.533 4.9245 115.533V115.533Z" fill="#424E9C"/>
<path d="M245.075 114.492C258.891 114.492 270.091 102.849 270.091 88.4867C270.091 74.1246 258.891 62.4818 245.075 62.4818C231.259 62.4818 220.059 74.1246 220.059 88.4867C220.059 102.849 231.259 114.492 245.075 114.492Z" stroke="white" stroke-width="2" stroke-miterlimit="10"/>
<path d="M1.47827 163.871H8.90386V174.488H8.19255V164.584H2.21113V174.488H1.47827V163.871V163.871Z" fill="white"/>
<path d="M16.0492 163.871H16.7821V166.422H16.8467C17.6227 164.534 19.1423 163.546 20.7481 163.546C23.5179 163.546 25.3824 165.959 25.3824 169.173C25.3824 172.387 23.4856 174.775 20.7481 174.775C19.1423 174.775 17.558 173.788 16.8467 171.949H16.7821V179.99H16.0492V163.858V163.871ZM24.628 169.173C24.628 166.534 23.1191 164.258 20.705 164.258C18.2909 164.258 16.7066 166.459 16.7066 169.173C16.7066 171.887 18.3879 174.063 20.705 174.063C23.0221 174.063 24.628 171.837 24.628 169.173Z" fill="white"/>
<path d="M30.9758 169.148C30.9758 165.884 32.9804 163.546 35.7825 163.546C38.5846 163.546 40.6108 165.884 40.6108 169.148C40.6108 172.412 38.6062 174.775 35.7825 174.775C32.9589 174.775 30.9758 172.412 30.9758 169.148ZM39.8671 169.148C39.8671 166.434 38.3044 164.258 35.7933 164.258C33.2822 164.258 31.7302 166.447 31.7302 169.148C31.7302 171.849 33.2714 174.063 35.7933 174.063C38.3152 174.063 39.8671 171.862 39.8671 169.148Z" fill="white"/>
<path d="M46.2257 169.086C46.2257 165.872 48.1656 163.546 50.666 163.546C53.522 163.546 54.9661 166.047 54.9661 168.71C54.9661 168.873 54.9446 169.061 54.9446 169.211H46.9693C46.9909 171.649 48.3381 174.063 50.8492 174.063C52.2502 174.063 53.3064 173.325 54.1147 172.174L54.6105 172.662C53.6621 174.063 52.4119 174.775 50.8492 174.775C48.1333 174.775 46.2365 172.387 46.2365 169.073L46.2257 169.086ZM54.244 168.535C54.1794 166.009 52.7999 164.258 50.6552 164.258C48.198 164.258 47.0125 166.872 46.9693 168.535H54.2333H54.244Z" fill="white"/>
<path d="M61.3679 163.871H62.0792V168.86H62.1223L66.8967 163.871H67.9313L62.963 168.898L68.4702 174.475H67.4032L62.1331 169.01H62.09V174.475H61.3787V163.858L61.3679 163.871Z" fill="white"/>
<path d="M76.0035 164.584H72.5225V163.871H80.2067V164.584H76.7256V174.488H76.0143V164.584H76.0035Z" fill="white"/>
<path d="M85.8647 163.871H86.5976V168.598H92.6976V163.871H93.4089V174.488H92.6976V169.323H86.5976V174.488H85.8647V163.871Z" fill="white"/>
<path d="M99.8862 171.674C99.8862 168.598 102.893 168.16 105.21 168.16H106.417V167.472C106.417 165.271 105.329 164.258 103.626 164.258C102.537 164.258 101.567 164.759 100.856 165.522L100.457 164.921C101.266 164.071 102.462 163.546 103.669 163.546C105.728 163.546 107.118 164.784 107.118 167.435V172.099C107.118 172.9 107.172 173.913 107.279 174.488H106.611C106.536 173.913 106.471 172.812 106.471 172.212H106.407C105.792 173.975 104.445 174.788 102.979 174.788C101.514 174.788 99.8862 173.863 99.8862 171.687V171.674ZM106.417 169.761V168.823H105.307C103.249 168.823 100.598 169.173 100.598 171.649C100.598 173.462 101.988 174.088 103.087 174.088C105.544 174.088 106.417 171.787 106.417 169.773V169.761Z" fill="white"/>
<path d="M116.041 170.023C114.576 169.698 113.649 168.648 113.649 166.972C113.649 164.996 114.877 163.871 117.033 163.871H120.622V174.488H119.889V170.073H116.839L114.349 174.488H113.498L116.052 170.036L116.041 170.023ZM119.878 169.336V164.584H117.044C115.319 164.584 114.349 165.459 114.349 166.972C114.349 168.323 115.265 169.336 116.882 169.336H119.867H119.878Z" fill="white"/>
<path d="M136.508 157.243V180.215H135.839V157.243H136.508Z" fill="white"/>
<path d="M151.757 163.871H152.911L156.866 173.262L160.886 163.871H161.996V174.488H161.285V164.746H161.242L157.103 174.488H156.65L152.533 164.771H152.49V174.488H151.757V163.871Z" fill="white"/>
<path d="M171.103 170.023C169.637 169.698 168.71 168.648 168.71 166.972C168.71 164.996 169.939 163.871 172.094 163.871H175.683V174.488H174.95V170.073H171.9L169.411 174.488H168.559L171.114 170.036L171.103 170.023ZM174.94 169.336V164.584H172.105C170.381 164.584 169.411 165.459 169.411 166.972C169.411 168.323 170.327 169.336 171.943 169.336H174.929H174.94Z" fill="white"/>
<path d="M182.839 163.871H188.659V164.584H183.572V174.488H182.839V163.871V163.871Z" fill="white"/>
<path d="M194.35 163.871H195.061V168.86H195.104L199.878 163.871H200.913L195.945 168.898L201.452 174.475H200.385L195.115 169.01H195.072V174.475H194.36V163.858L194.35 163.871Z" fill="white"/>
<path d="M206.291 171.674C206.291 168.598 209.298 168.16 211.615 168.16H212.822V167.472C212.822 165.271 211.733 164.258 210.031 164.258C208.942 164.258 207.972 164.759 207.261 165.522L206.862 164.921C207.67 164.071 208.867 163.546 210.074 163.546C212.132 163.546 213.522 164.784 213.522 167.435V172.099C213.522 172.9 213.576 173.913 213.684 174.488H213.016C212.94 173.913 212.876 172.812 212.876 172.212H212.811C212.197 173.975 210.85 174.788 209.384 174.788C207.918 174.788 206.291 173.863 206.291 171.687V171.674ZM212.822 169.761V168.823H211.712C209.653 168.823 207.002 169.173 207.002 171.649C207.002 173.462 208.392 174.088 209.492 174.088C211.949 174.088 212.822 171.787 212.822 169.773V169.761Z" fill="white"/>
<path d="M222.446 170.023C220.98 169.698 220.053 168.648 220.053 166.972C220.053 164.996 221.282 163.871 223.438 163.871H227.026V174.488H226.294V170.073H223.244L220.754 174.488H219.903L222.457 170.036L222.446 170.023ZM226.283 169.336V164.584H223.448C221.724 164.584 220.754 165.459 220.754 166.972C220.754 168.323 221.67 169.336 223.287 169.336H226.272H226.283Z" fill="white"/>
<path d="M242.912 157.243V180.215H242.244V157.243H242.912Z" fill="white"/>
<path d="M258.184 163.871H258.895V168.86H258.938L263.712 163.871H264.747L259.779 168.898L265.286 174.475H264.219L258.949 169.01H258.906V174.475H258.194V163.858L258.184 163.871Z" fill="white"/>
<path d="M269.705 169.148C269.705 165.884 271.709 163.546 274.511 163.546C277.314 163.546 279.34 165.884 279.34 169.148C279.34 172.412 277.335 174.775 274.511 174.775C271.688 174.775 269.705 172.412 269.705 169.148V169.148ZM278.596 169.148C278.596 166.434 277.033 164.258 274.522 164.258C272.011 164.258 270.459 166.447 270.459 169.148C270.459 171.849 272 174.063 274.522 174.063C277.044 174.063 278.596 171.862 278.596 169.148Z" fill="white"/>
<path d="M285.709 163.871H286.442V166.422H286.496C287.272 164.534 288.791 163.546 290.397 163.546C293.167 163.546 295.031 165.959 295.031 169.173C295.031 172.387 293.135 174.775 290.397 174.775C288.791 174.775 287.207 173.788 286.496 171.949H286.442V179.99H285.709V163.858V163.871ZM294.288 169.173C294.288 166.534 292.779 164.258 290.365 164.258C287.951 164.258 286.367 166.459 286.367 169.173C286.367 171.887 288.048 174.063 290.365 174.063C292.682 174.063 294.288 171.837 294.288 169.173Z" fill="white"/>
<path d="M301.422 163.871H308.848V174.488H308.137V164.584H302.155V174.488H301.422V163.871V163.871Z" fill="white"/>
<path d="M314.571 179.878L314.689 179.115C314.905 179.202 315.228 179.277 315.498 179.277C316.543 179.277 317.028 178.314 317.362 177.276L318.192 174.675L314.485 163.858H315.271L318.558 173.687L321.684 163.858H322.46L317.901 177.739C317.427 179.165 316.748 180.015 315.487 180.015C315.207 180.015 314.819 179.965 314.56 179.878H314.571Z" fill="white"/>
<path d="M334.627 165.584C334.013 164.759 333.065 164.246 332.052 164.246C329.616 164.246 328.075 166.497 328.075 169.161C328.075 171.824 329.616 174.038 332.052 174.038C333.119 174.038 334.056 173.575 334.767 172.8L335.199 173.3C334.369 174.313 333.302 174.775 332.052 174.775C329.282 174.775 327.32 172.437 327.32 169.173C327.32 165.909 329.282 163.546 332.052 163.546C333.259 163.546 334.369 164.071 335.123 165.059L334.627 165.584V165.584Z" fill="white"/>
<path d="M340.964 163.871H341.697V168.598H347.797V163.871H348.509V174.488H347.797V169.323H341.697V174.488H340.964V163.871Z" fill="white"/>
<path d="M354.89 171.476C354.89 168.4 357.897 167.962 360.214 167.962H361.421V167.275C361.421 165.074 360.333 164.061 358.63 164.061C357.541 164.061 356.572 164.561 355.86 165.324L355.461 164.724C356.27 163.873 357.466 163.348 358.673 163.348C360.732 163.348 362.122 164.586 362.122 167.237V171.902C362.122 172.702 362.176 173.715 362.283 174.29H361.615C361.54 173.715 361.475 172.614 361.475 172.014H361.421C360.807 173.777 359.46 174.59 357.994 174.59C356.528 174.59 354.901 173.665 354.901 171.489L354.89 171.476ZM361.421 169.563V168.625H360.311C358.253 168.625 355.602 168.975 355.602 171.451C355.602 173.265 356.992 173.89 358.102 173.89C360.559 173.89 361.432 171.589 361.432 169.576L361.421 169.563Z" fill="white"/>
<path d="M371.141 170.023C369.675 169.698 368.748 168.648 368.748 166.972C368.748 164.996 369.977 163.871 372.133 163.871H375.721V174.488H374.989V170.073H371.939L369.438 174.488H368.587L371.141 170.036V170.023ZM374.978 169.336V164.584H372.143C370.419 164.584 369.449 165.459 369.449 166.972C369.449 168.323 370.354 169.336 371.982 169.336H374.967H374.978Z" fill="white"/>
<path d="M391.057 163.871H392.211L396.166 173.262L400.186 163.871H401.296V174.488H400.585V164.746H400.542L396.403 174.488H395.95L391.833 164.771H391.79V174.488H391.057V163.871V163.871Z" fill="white"/>
<path d="M422.269 168.648C422.269 163.458 422.484 158.906 426.17 158.381L429.382 157.918C430.071 157.831 430.804 157.643 431.009 156.905L431.526 157.093C431.311 157.968 430.772 158.431 429.565 158.606L426.461 159.069C423.67 159.481 422.98 162.145 422.937 166.584H423.002C423.896 164.559 425.437 163.646 427.194 163.646C430.007 163.646 431.731 166.147 431.731 169.248C431.731 172.349 429.748 174.788 426.935 174.788C424.338 174.788 422.279 172.9 422.279 168.648H422.269ZM430.977 169.248C430.977 166.484 429.468 164.358 427.075 164.358C424.683 164.358 423.002 166.522 423.002 169.298C423.002 172.074 424.564 174.075 426.924 174.075C429.285 174.075 430.988 172.012 430.988 169.248H430.977Z" fill="white"/>
<path d="M437.314 169.086C437.314 165.872 439.254 163.546 441.754 163.546C444.61 163.546 446.054 166.047 446.054 168.71C446.054 168.873 446.033 169.061 446.033 169.211H438.058C438.079 171.649 439.426 174.063 441.937 174.063C443.339 174.063 444.395 173.325 445.203 172.174L445.699 172.662C444.75 174.063 443.5 174.775 441.937 174.775C439.222 174.775 437.325 172.387 437.325 169.073L437.314 169.086ZM445.332 168.535C445.268 166.009 443.888 164.258 441.743 164.258C439.286 164.258 438.101 166.872 438.058 168.535H445.322H445.332Z" fill="white"/>
<path d="M450.775 174.475L450.915 173.737C451.033 173.8 451.271 173.85 451.464 173.85C453.329 173.85 453.879 171.324 453.879 167.647V163.858H459.957V174.475H459.246V164.571H454.568V167.835C454.568 171.562 453.954 174.588 451.518 174.588C451.303 174.588 450.926 174.525 450.764 174.475H450.775Z" fill="white"/>
<path d="M467.167 163.871H467.9V168.26H470.67C473.03 168.26 474 169.573 474 171.449C474 173.325 473.009 174.475 470.691 174.475H467.167V163.858V163.871ZM470.735 173.75C472.577 173.75 473.267 172.875 473.267 171.449C473.267 170.023 472.61 168.973 470.735 168.973H467.9V173.75H470.735Z" fill="white"/>
<path d="M0.0803223 134.638L474 135.401" stroke="white" stroke-width="2" stroke-miterlimit="10"/>
</g>
<defs>
<clipPath id="clip0_1_8">
<rect width="474" height="204" fill="white"/>
</clipPath>
</defs>
</svg>
