<svg width="106" height="80" viewBox="0 0 106 80" fill="none" xmlns="http://www.w3.org/2000/svg">
<path d="M33.69 34.04H25.88V26.23H33.69V34.04ZM26.05 33.87H33.52V26.4H26.05V33.87Z" fill="#D6D2D2"/>
<path d="M43.1 34.04H35.29V26.23H43.1V34.04ZM35.46 33.87H42.93V26.4H35.46V33.87Z" fill="#D6D2D2"/>
<path d="M33.69 42.86H25.88V35.05H33.69V42.86ZM26.05 42.69H33.52V35.22H26.05V42.69Z" fill="#D6D2D2"/>
<path d="M43.1 42.86H35.29V35.05H43.1V42.86ZM35.46 42.69H42.93V35.22H35.46V42.69Z" fill="#D6D2D2"/>
<path d="M51.92 34.04H44.11V26.23H51.92V34.04ZM44.28 33.87H51.7499V26.4H44.28V33.87Z" fill="#D6D2D2"/>
<path d="M61.32 34.04H53.51V26.23H61.32V34.04ZM53.68 33.87H61.15V26.4H53.68V33.87Z" fill="#D6D2D2"/>
<path d="M51.92 42.86H44.11V35.05H51.92V42.86ZM44.28 42.69H51.7499V35.22H44.28V42.69Z" fill="#D6D2D2"/>
<path d="M61.32 42.86H53.51V35.05H61.32V42.86ZM53.68 42.69H61.15V35.22H53.68V42.69Z" fill="#D6D2D2"/>
<path d="M70.15 34.04H62.34V26.23H70.15V34.04ZM62.5099 33.87H69.98V26.4H62.5099V33.87Z" fill="#D6D2D2"/>
<path d="M79.55 34.04H71.74V26.23H79.55V34.04ZM71.91 33.87H79.38V26.4H71.91V33.87Z" fill="#D6D2D2"/>
<path d="M70.15 42.86H62.34V35.05H70.15V42.86ZM62.5099 42.69H69.98V35.22H62.5099V42.69Z" fill="#D6D2D2"/>
<path d="M79.55 42.86H71.74V35.05H79.55V42.86ZM71.91 42.69H79.38V35.22H71.91V42.69Z" fill="#D6D2D2"/>
<path d="M33.69 51.68H25.88V43.87H33.69V51.68ZM26.05 51.51H33.52V44.04H26.05V51.51Z" fill="#D6D2D2"/>
<path d="M43.1 51.68H35.29V43.87H43.1V51.68ZM35.46 51.51H42.93V44.04H35.46V51.51Z" fill="#D6D2D2"/>
<path d="M33.69 60.5H25.88V52.69H33.69V60.5ZM26.05 60.33H33.52V52.86H26.05V60.33Z" fill="#D6D2D2"/>
<path d="M43.1 60.5H35.29V52.69H43.1V60.5ZM35.46 60.33H42.93V52.86H35.46V60.33Z" fill="#D6D2D2"/>
<path d="M51.92 51.68H44.11V43.87H51.92V51.68ZM44.28 51.51H51.7499V44.04H44.28V51.51Z" fill="#D6D2D2"/>
<path d="M61.32 51.68H53.51V43.87H61.32V51.68ZM53.68 51.51H61.15V44.04H53.68V51.51Z" fill="#D6D2D2"/>
<path d="M51.92 60.5H44.11V52.69H51.92V60.5ZM44.28 60.33H51.7499V52.86H44.28V60.33Z" fill="#D6D2D2"/>
<path d="M61.32 60.5H53.51V52.69H61.32V60.5ZM53.68 60.33H61.15V52.86H53.68V60.33Z" fill="#D6D2D2"/>
<path d="M70.15 51.68H62.34V43.87H70.15V51.68ZM62.5099 51.51H69.98V44.04H62.5099V51.51Z" fill="#D6D2D2"/>
<path d="M79.55 51.68H71.74V43.87H79.55V51.68ZM71.91 51.51H79.38V44.04H71.91V51.51Z" fill="#D6D2D2"/>
<path d="M70.15 60.5H62.34V52.69H70.15V60.5ZM62.5099 60.33H69.98V52.86H62.5099V60.33Z" fill="#D6D2D2"/>
<path d="M79.55 60.5H71.74V52.69H79.55V60.5ZM71.91 60.33H79.38V52.86H71.91V60.33Z" fill="#D6D2D2"/>
<path d="M33.69 69.43H25.88V61.62H33.69V69.43ZM26.05 69.26H33.52V61.79H26.05V69.26Z" fill="#D6D2D2"/>
<path d="M43.1 69.43H35.29V61.62H43.1V69.43ZM35.46 69.26H42.93V61.79H35.46V69.26Z" fill="#D6D2D2"/>
<path d="M33.69 78.25H25.88V70.44H33.69V78.25ZM26.05 78.08H33.52V70.61H26.05V78.08Z" fill="#D6D2D2"/>
<path d="M43.1 78.25H35.29V70.44H43.1V78.25ZM35.46 78.08H42.93V70.61H35.46V78.08Z" fill="#D6D2D2"/>
<path d="M51.92 69.43H44.11V61.62H51.92V69.43ZM44.28 69.26H51.7499V61.79H44.28V69.26Z" fill="#D6D2D2"/>
<path d="M61.32 69.43H53.51V61.62H61.32V69.43ZM53.68 69.26H61.15V61.79H53.68V69.26Z" fill="#D6D2D2"/>
<path d="M51.92 78.25H44.11V70.44H51.92V78.25ZM44.28 78.08H51.7499V70.61H44.28V78.08Z" fill="#D6D2D2"/>
<path d="M61.32 78.25H53.51V70.44H61.32V78.25ZM53.68 78.08H61.15V70.61H53.68V78.08Z" fill="#D6D2D2"/>
<path d="M70.15 69.43H62.34V61.62H70.15V69.43ZM62.5099 69.26H69.98V61.79H62.5099V69.26Z" fill="#D6D2D2"/>
<path d="M79.55 69.43H71.74V61.62H79.55V69.43ZM71.91 69.26H79.38V61.79H71.91V69.26Z" fill="#D6D2D2"/>
<path d="M70.15 78.25H62.34V70.44H70.15V78.25ZM62.5099 78.08H69.98V70.61H62.5099V78.08Z" fill="#D6D2D2"/>
<path d="M79.55 78.25H71.74V70.44H79.55V78.25ZM71.91 78.08H79.38V70.61H71.91V78.08Z" fill="#D6D2D2"/>
<g opacity="0.8">
<path d="M82.04 24.38H23.3799V29.54H82.04V24.38Z" fill="#D3D3D3"/>
<path d="M52.7099 29.54C60.8099 29.54 68.5299 29.4 75.5399 29.14C77.2899 29.07 79.01 29 80.67 28.92C81.5 28.88 82.3199 28.84 83.1299 28.8H82.3799V24.05H23.0399V28.8H22.2899C23.0999 28.84 23.9199 28.89 24.7499 28.92C26.4099 29 28.1199 29.07 29.8799 29.14C36.8999 29.4 44.6099 29.54 52.7099 29.54Z" fill="#D3D3D3"/>
<path d="M52.71 29.19C60.27 29.19 67.47 29.05 74.02 28.81C77.29 28.69 80.41 28.54 83.32 28.37H82.38V24.04H23.04V28.37H22.1C25.01 28.54 28.13 28.69 31.4 28.81C37.95 29.05 45.15 29.19 52.71 29.19Z" fill="#D2D2D2"/>
<path d="M52.7099 28.85C59.7299 28.85 66.4199 28.73 72.4999 28.5C75.5399 28.39 78.4299 28.25 81.1399 28.09C81.8199 28.05 82.4799 28.01 83.1299 27.97H82.3799V24.05H23.0399V27.97H22.2899C22.9399 28.01 23.6099 28.05 24.2799 28.09C26.9899 28.25 29.8799 28.39 32.9199 28.5C38.9999 28.73 45.6899 28.85 52.7099 28.85Z" fill="#D1D1D1"/>
<path d="M52.71 28.51C59.19 28.51 65.36 28.4 70.98 28.19C73.79 28.09 76.45 27.96 78.95 27.81C80.2 27.74 81.4 27.66 82.56 27.57H82.38V24.05H23.04V27.57H22.86C24.02 27.65 25.22 27.73 26.47 27.81C28.97 27.96 31.63 28.09 34.44 28.19C40.05 28.4 46.23 28.51 52.71 28.51Z" fill="#D0D0D0"/>
<path d="M52.7099 28.16C64.5899 28.16 75.3399 27.74 83.1299 27.05H82.3799V24.04H23.0399V27.05H22.2899C30.0699 27.73 40.8299 28.16 52.7099 28.16Z" fill="#CFCFCF"/>
<path d="M52.71 27.82C63.51 27.82 73.29 27.43 80.36 26.81C81.25 26.73 82.0899 26.65 82.8799 26.57H82.3699V24.04H23.03V26.57H22.52C23.32 26.66 24.1599 26.74 25.0399 26.81C32.1199 27.43 41.8899 27.82 52.6899 27.82" fill="#CECECE"/>
<path d="M52.71 27.47C62.43 27.47 71.23 27.12 77.6 26.56C79.19 26.42 80.63 26.27 81.9 26.1C82.53 26.02 83.12 25.93 83.66 25.85H82.3799V24.03H23.0399V25.85H21.7599C22.2999 25.94 22.89 26.02 23.52 26.1C24.79 26.27 26.2299 26.42 27.8199 26.56C34.1899 27.12 42.99 27.47 52.71 27.47Z" fill="#CDCDCD"/>
<path d="M52.7099 27.13C69.9899 27.13 83.9999 25.9 83.9999 24.38C83.9999 23.62 80.4999 22.93 74.8399 22.43V24.04H30.5899V22.43C24.9299 22.93 21.4299 23.61 21.4299 24.38C21.4299 25.9 35.4399 27.13 52.7199 27.13" fill="#CCCCCC"/>
<path d="M52.71 26.79C67.83 26.79 80.09 25.71 80.09 24.38C80.09 23.05 67.83 21.97 52.71 21.97C37.59 21.97 25.33 23.05 25.33 24.38C25.33 25.71 37.59 26.79 52.71 26.79Z" fill="#CBCBCB"/>
<path d="M52.71 26.44C65.67 26.44 76.18 25.52 76.18 24.38C76.18 23.24 65.67 22.32 52.71 22.32C39.75 22.32 29.24 23.24 29.24 24.38C29.24 25.52 39.75 26.44 52.71 26.44Z" fill="#CACACA"/>
<path d="M52.7099 26.1C63.5099 26.1 72.2599 25.33 72.2599 24.38C72.2599 23.43 63.4999 22.66 52.7099 22.66C41.9199 22.66 33.1599 23.43 33.1599 24.38C33.1599 25.33 41.9199 26.1 52.7099 26.1Z" fill="#C9C9C9"/>
<path d="M52.71 25.76C61.35 25.76 68.35 25.14 68.35 24.38C68.35 23.62 61.35 23 52.71 23C44.07 23 37.0699 23.61 37.0699 24.38C37.0699 25.15 44.07 25.76 52.71 25.76Z" fill="#C8C8C8"/>
<path d="M52.71 25.41C59.19 25.41 64.4399 24.95 64.4399 24.38C64.4399 23.81 59.19 23.35 52.71 23.35C46.23 23.35 40.98 23.81 40.98 24.38C40.98 24.95 46.23 25.41 52.71 25.41Z" fill="#C7C7C7"/>
<path d="M52.71 25.07C57.03 25.07 60.53 24.76 60.53 24.38C60.53 24 57.03 23.69 52.71 23.69C48.39 23.69 44.89 24 44.89 24.38C44.89 24.76 48.39 25.07 52.71 25.07Z" fill="#C6C6C6"/>
<path d="M52.71 24.72C54.87 24.72 56.6199 24.57 56.6199 24.38C56.6199 24.19 54.87 24.04 52.71 24.04C50.55 24.04 48.7999 24.19 48.7999 24.38C48.7999 24.57 50.55 24.72 52.71 24.72Z" fill="#C5C5C4"/>
<path d="M28.5399 24.38H23.3799V77.89H28.5399V24.38Z" fill="#D3D3D3"/>
<path d="M28.5399 51.13C28.5399 43.74 28.3899 36.7 28.1299 30.3C28.0599 28.7 27.9899 27.14 27.9099 25.62C27.8699 24.86 27.8299 24.12 27.7899 23.38V24.03H23.0399V78.21H27.7899V78.86C27.8299 78.12 27.8799 77.38 27.9099 76.62C27.9899 75.1 28.0599 73.54 28.1299 71.94C28.3899 65.54 28.5399 58.5 28.5399 51.11" fill="#D3D3D3"/>
<path d="M28.1999 51.13C28.1999 44.23 28.0699 37.67 27.8199 31.69C27.6999 28.7 27.5499 25.86 27.3799 23.21V24.04H23.0499V78.22H27.3799V79.05C27.5499 76.39 27.6999 73.55 27.8199 70.57C28.0599 64.6 28.1999 58.03 28.1999 51.13Z" fill="#D2D2D2"/>
<path d="M27.8499 51.13C27.8499 44.73 27.7299 38.63 27.4999 33.08C27.3899 30.31 27.2499 27.67 27.0899 25.2C27.0499 24.58 27.0099 23.98 26.9699 23.38V24.03H23.0499V78.21H26.9699V78.86C27.0099 78.26 27.0599 77.66 27.0899 77.04C27.2499 74.57 27.3899 71.94 27.4999 69.16C27.7299 63.61 27.8499 57.51 27.8499 51.11" fill="#D1D1D1"/>
<path d="M27.5099 51.13C27.5099 45.22 27.3999 39.59 27.1899 34.47C27.0799 31.91 26.9599 29.48 26.8099 27.2C26.7399 26.06 26.6599 24.96 26.5699 23.9V24.04H23.0499V78.22H26.5699V78.36C26.6499 77.3 26.7299 76.2 26.8099 75.06C26.9599 72.78 27.0899 70.35 27.1899 67.79C27.3999 62.67 27.5099 57.04 27.5099 51.13Z" fill="#D0D0D0"/>
<path d="M27.1699 51.13C27.1699 40.29 26.7499 30.48 26.0599 23.38V24.03H23.0499V78.21H26.0599V78.86C26.7399 71.76 27.1699 61.95 27.1699 51.12" fill="#CFCFCF"/>
<path d="M26.8199 51.13C26.8199 41.28 26.4299 32.36 25.8099 25.91C25.7299 25.1 25.6499 24.34 25.5699 23.61V24.04H23.0399V78.22H25.5699V78.65C25.6499 77.92 25.7399 77.16 25.8099 76.35C26.4299 69.89 26.8199 60.98 26.8199 51.13Z" fill="#CECECE"/>
<path d="M26.4799 51.13C26.4799 42.26 26.1299 34.24 25.5699 28.43C25.4299 26.98 25.2799 25.66 25.1099 24.51C25.0299 23.93 24.9399 23.4 24.8499 22.9V24.04H23.0399V78.22H24.8499V79.36C24.9399 78.86 25.0199 78.33 25.1099 77.75C25.2699 76.6 25.4299 75.28 25.5699 73.83C26.1299 68.02 26.4799 60 26.4799 51.13Z" fill="#CDCDCD"/>
<path d="M26.1299 51.13C26.1299 35.37 24.8999 22.59 23.3799 22.59C22.6199 22.59 21.9299 25.78 21.4299 30.95H23.0299V71.31H21.4299C21.9299 76.47 22.6099 79.67 23.3799 79.67C24.8999 79.67 26.1299 66.89 26.1299 51.13Z" fill="#CCCCCC"/>
<path d="M25.7899 51.13C25.7899 37.34 24.7099 26.16 23.3799 26.16C22.0499 26.16 20.97 37.34 20.97 51.13C20.97 64.92 22.0499 76.1 23.3799 76.1C24.7099 76.1 25.7899 64.92 25.7899 51.13Z" fill="#CBCBCB"/>
<path d="M25.45 51.13C25.45 39.31 24.53 29.73 23.39 29.73C22.25 29.73 21.33 39.31 21.33 51.13C21.33 62.95 22.25 72.53 23.39 72.53C24.53 72.53 25.45 62.95 25.45 51.13Z" fill="#CACACA"/>
<path d="M25.0999 51.13C25.0999 41.28 24.3299 33.29 23.3799 33.29C22.4299 33.29 21.6599 41.28 21.6599 51.13C21.6599 60.98 22.4299 68.97 23.3799 68.97C24.3299 68.97 25.0999 60.98 25.0999 51.13Z" fill="#C9C9C9"/>
<path d="M24.76 51.13C24.76 43.25 24.14 36.86 23.38 36.86C22.62 36.86 22 43.25 22 51.13C22 59.01 22.61 65.4 23.38 65.4C24.15 65.4 24.76 59.01 24.76 51.13Z" fill="#C8C8C8"/>
<path d="M24.41 51.13C24.41 45.22 23.95 40.43 23.38 40.43C22.81 40.43 22.35 45.22 22.35 51.13C22.35 57.04 22.81 61.83 23.38 61.83C23.95 61.83 24.41 57.04 24.41 51.13Z" fill="#C7C7C7"/>
<path d="M24.0699 51.13C24.0699 47.19 23.7599 44 23.3799 44C22.9999 44 22.6899 47.19 22.6899 51.13C22.6899 55.07 22.9999 58.26 23.3799 58.26C23.7599 58.26 24.0699 55.07 24.0699 51.13Z" fill="#C6C6C6"/>
<path d="M23.7299 51.13C23.7299 49.16 23.5799 47.56 23.3899 47.56C23.1999 47.56 23.0499 49.16 23.0499 51.13C23.0499 53.1 23.1999 54.7 23.3899 54.7C23.5799 54.7 23.7299 53.1 23.7299 51.13Z" fill="#C5C5C4"/>
<path d="M82.0499 24.38H76.89V77.89H82.0499V24.38Z" fill="#D3D3D3"/>
<path d="M76.89 51.13C76.89 43.74 77.0399 36.7 77.2999 30.3C77.3699 28.7 77.44 27.14 77.52 25.62C77.56 24.86 77.6 24.12 77.64 23.38V24.03H82.39V78.21H77.64V78.86C77.6 78.12 77.55 77.38 77.52 76.62C77.44 75.1 77.3699 73.54 77.2999 71.94C77.0399 65.54 76.89 58.5 76.89 51.11" fill="#D3D3D3"/>
<path d="M77.23 51.13C77.23 44.23 77.37 37.67 77.61 31.69C77.73 28.7 77.8799 25.86 78.0499 23.21V24.04H82.3799V78.22H78.0499V79.05C77.8799 76.39 77.73 73.55 77.61 70.57C77.37 64.6 77.23 58.03 77.23 51.13Z" fill="#D2D2D2"/>
<path d="M77.58 51.13C77.58 44.73 77.6999 38.63 77.9299 33.08C78.0399 30.31 78.18 27.67 78.34 25.2C78.38 24.58 78.42 23.98 78.46 23.38V24.03H82.3799V78.21H78.46V78.86C78.42 78.26 78.38 77.66 78.34 77.04C78.18 74.57 78.0399 71.94 77.9299 69.16C77.6999 63.61 77.58 57.51 77.58 51.11" fill="#D1D1D1"/>
<path d="M77.92 51.13C77.92 45.22 78.0399 39.59 78.2399 34.47C78.3499 31.91 78.4699 29.48 78.6199 27.2C78.6899 26.06 78.77 24.96 78.86 23.9V24.04H82.3799V78.22H78.86V78.36C78.78 77.3 78.6999 76.2 78.6199 75.06C78.4699 72.78 78.3399 70.35 78.2399 67.79C78.0299 62.67 77.92 57.04 77.92 51.13Z" fill="#D0D0D0"/>
<path d="M78.2599 51.13C78.2599 40.29 78.6799 30.48 79.3699 23.38V24.03H82.3799V78.21H79.3699V78.86C78.6899 71.76 78.2599 61.95 78.2599 51.12" fill="#CFCFCF"/>
<path d="M78.61 51.13C78.61 41.28 78.9999 32.36 79.6199 25.91C79.6999 25.1 79.78 24.34 79.86 23.61V24.04H82.39V78.22H79.86V78.65C79.78 77.92 79.6899 77.16 79.6199 76.35C78.9999 69.89 78.61 60.98 78.61 51.13Z" fill="#CECECE"/>
<path d="M78.95 51.13C78.95 42.26 79.3 34.24 79.86 28.43C80 26.98 80.1499 25.66 80.3199 24.51C80.3999 23.93 80.49 23.4 80.58 22.9V24.04H82.4V78.22H80.58V79.36C80.49 78.86 80.4099 78.33 80.3199 77.75C80.1599 76.6 80 75.28 79.86 73.83C79.3 68.02 78.95 60 78.95 51.13Z" fill="#CDCDCD"/>
<path d="M79.2999 51.13C79.2999 35.37 80.5299 22.59 82.0499 22.59C82.8099 22.59 83.4999 25.78 83.9999 30.95H82.4V71.31H83.9999C83.4999 76.47 82.8199 79.67 82.0499 79.67C80.5299 79.67 79.2999 66.89 79.2999 51.13Z" fill="#CCCCCC"/>
<path d="M79.64 51.13C79.64 37.34 80.7199 26.16 82.0499 26.16C83.3799 26.16 84.46 37.34 84.46 51.13C84.46 64.92 83.3799 76.1 82.0499 76.1C80.7199 76.1 79.64 64.92 79.64 51.13Z" fill="#CBCBCB"/>
<path d="M79.98 51.13C79.98 39.31 80.9 29.73 82.04 29.73C83.18 29.73 84.1 39.31 84.1 51.13C84.1 62.95 83.18 72.53 82.04 72.53C80.9 72.53 79.98 62.95 79.98 51.13Z" fill="#CACACA"/>
<path d="M80.33 51.13C80.33 41.28 81.0999 33.29 82.0499 33.29C82.9999 33.29 83.77 41.28 83.77 51.13C83.77 60.98 82.9999 68.97 82.0499 68.97C81.0999 68.97 80.33 60.98 80.33 51.13Z" fill="#C9C9C9"/>
<path d="M80.67 51.13C80.67 43.25 81.2899 36.86 82.0499 36.86C82.8099 36.86 83.4299 43.25 83.4299 51.13C83.4299 59.01 82.8199 65.4 82.0499 65.4C81.2799 65.4 80.67 59.01 80.67 51.13Z" fill="#C8C8C8"/>
<path d="M81.0099 51.13C81.0099 45.22 81.47 40.43 82.04 40.43C82.61 40.43 83.0699 45.22 83.0699 51.13C83.0699 57.04 82.61 61.83 82.04 61.83C81.47 61.83 81.0099 57.04 81.0099 51.13Z" fill="#C7C7C7"/>
<path d="M81.36 51.13C81.36 47.19 81.6699 44 82.0499 44C82.4299 44 82.7399 47.19 82.7399 51.13C82.7399 55.07 82.4299 58.26 82.0499 58.26C81.6699 58.26 81.36 55.07 81.36 51.13Z" fill="#C6C6C6"/>
<path d="M81.7 51.13C81.7 49.16 81.85 47.56 82.04 47.56C82.23 47.56 82.3799 49.16 82.3799 51.13C82.3799 53.1 82.23 54.7 82.04 54.7C81.85 54.7 81.7 53.1 81.7 51.13Z" fill="#C5C5C4"/>
</g>
<path d="M23.35 1.16998H0.47998V24.03V77.12H23.35V24.03H81.93V77.12H104.8V24.03V1.16998H23.35Z" fill="white"/>
<path d="M23 24.2C22.91 24.2 22.83 24.12 22.83 24.03V1.16998C22.83 1.07998 22.91 0.999985 23 0.999985C23.09 0.999985 23.17 1.07998 23.17 1.16998V24.03C23.17 24.12 23.09 24.2 23 24.2Z" fill="#BBBBBB"/>
<path d="M41.29 24.2C41.2 24.2 41.12 24.12 41.12 24.03V1.16998C41.12 1.07998 41.2 0.999985 41.29 0.999985C41.38 0.999985 41.46 1.07998 41.46 1.16998V24.03C41.46 24.12 41.38 24.2 41.29 24.2Z" fill="#BBBBBB"/>
<path d="M104.84 48.99H81.97C81.88 48.99 81.7999 48.91 81.7999 48.82C81.7999 48.73 81.88 48.65 81.97 48.65H104.84C104.93 48.65 105.01 48.73 105.01 48.82C105.01 48.91 104.93 48.99 104.84 48.99Z" fill="#BBBBBB"/>
<path d="M104.8 24.2H81.93C81.84 24.2 81.76 24.12 81.76 24.03C81.76 23.94 81.84 23.86 81.93 23.86H104.8C104.89 23.86 104.97 23.94 104.97 24.03C104.97 24.12 104.89 24.2 104.8 24.2Z" fill="#BBBBBB"/>
<path d="M64.45 24.2C64.36 24.2 64.28 24.12 64.28 24.03V1.16998C64.28 1.07998 64.36 0.999985 64.45 0.999985C64.54 0.999985 64.62 1.07998 64.62 1.16998V24.03C64.62 24.12 64.54 24.2 64.45 24.2Z" fill="#BBBBBB"/>
<path d="M81.84 24.2C81.75 24.2 81.67 24.12 81.67 24.03V1.16998C81.67 1.07998 81.75 0.999985 81.84 0.999985C81.93 0.999985 82.01 1.07998 82.01 1.16998V24.03C82.01 24.12 81.93 24.2 81.84 24.2Z" fill="#BBBBBB"/>
<path d="M86.12 26.97H100.69C101.79 26.97 102.68 27.86 102.68 28.96V44.75C102.68 45.85 101.79 46.74 100.69 46.74H86.12C85.02 46.74 84.13 45.85 84.13 44.75V28.96C84.13 27.86 85.02 26.97 86.12 26.97Z" fill="white"/>
<path d="M100.69 46.91H86.1199C84.9299 46.91 83.96 45.94 83.96 44.75V28.96C83.96 27.77 84.9299 26.8 86.1199 26.8H100.69C101.88 26.8 102.85 27.77 102.85 28.96V44.75C102.85 45.94 101.88 46.91 100.68 46.91M86.11 27.13C85.1 27.13 84.28 27.95 84.28 28.95V44.74C84.28 45.75 85.1 46.56 86.11 46.56H100.68C101.69 46.56 102.51 45.74 102.51 44.74V28.95C102.51 27.94 101.69 27.13 100.68 27.13H86.11Z" fill="#BBBBBB"/>
<path d="M98 45.46H87.26C86.36 45.46 85.62 44.62 85.62 43.59V30.11C85.62 29.08 86.36 28.24 87.26 28.24H98C98.9 28.24 99.64 29.08 99.64 30.11V43.59C99.64 44.62 98.91 45.46 98 45.46ZM87.26 28.58C86.54 28.58 85.96 29.27 85.96 30.11V43.59C85.96 44.43 86.54 45.12 87.26 45.12H98C98.72 45.12 99.3 44.43 99.3 43.59V30.11C99.3 29.27 98.72 28.58 98 28.58H87.26Z" fill="#BBBBBB"/>
<path d="M98.89 35.93H90.67V37.86H98.89V35.93Z" fill="white"/>
<path d="M98.89 38.03H90.67C90.58 38.03 90.5 37.95 90.5 37.86V35.93C90.5 35.84 90.58 35.76 90.67 35.76H98.89C98.98 35.76 99.06 35.84 99.06 35.93V37.86C99.06 37.95 98.99 38.03 98.89 38.03ZM90.84 37.69H98.72V36.09H90.84V37.69Z" fill="#BBBBBB"/>
<path d="M58.36 12.12C56.2 12.12 54.4299 10.36 54.4299 8.19998C54.4299 6.03998 56.19 4.27998 58.36 4.27998C60.53 4.27998 62.29 6.03998 62.29 8.19998C62.29 10.36 60.53 12.12 58.36 12.12ZM58.36 4.60998C56.38 4.60998 54.77 6.21998 54.77 8.18998C54.77 10.16 56.38 11.77 58.36 11.77C60.34 11.77 61.95 10.16 61.95 8.18998C61.95 6.21998 60.34 4.60998 58.36 4.60998Z" fill="#BBBBBB"/>
<path d="M58.36 20.48C56.86 20.48 55.64 19.26 55.64 17.76C55.64 16.26 56.86 15.04 58.36 15.04C59.86 15.04 61.08 16.26 61.08 17.76C61.08 19.26 59.86 20.48 58.36 20.48ZM58.36 15.37C57.05 15.37 55.98 16.44 55.98 17.75C55.98 19.06 57.05 20.13 58.36 20.13C59.67 20.13 60.75 19.06 60.75 17.75C60.75 16.44 59.68 15.37 58.36 15.37Z" fill="#BBBBBB"/>
<path d="M47.42 20.48C45.26 20.48 43.49 18.72 43.49 16.56C43.49 14.4 45.25 12.64 47.42 12.64C49.59 12.64 51.35 14.4 51.35 16.56C51.35 18.72 49.59 20.48 47.42 20.48ZM47.42 12.97C45.44 12.97 43.83 14.58 43.83 16.55C43.83 18.52 45.44 20.13 47.42 20.13C49.4 20.13 51.01 18.52 51.01 16.55C51.01 14.58 49.4 12.97 47.42 12.97Z" fill="#BBBBBB"/>
<path d="M47.42 9.71998C45.92 9.71998 44.7 8.49998 44.7 6.99998C44.7 5.49998 45.92 4.27998 47.42 4.27998C48.92 4.27998 50.14 5.49998 50.14 6.99998C50.14 8.49998 48.92 9.71998 47.42 9.71998ZM47.42 4.60998C46.1 4.60998 45.04 5.67998 45.04 6.98998C45.04 8.29998 46.11 9.36998 47.42 9.36998C48.73 9.36998 49.8099 8.29998 49.8099 6.98998C49.8099 5.67998 48.74 4.60998 47.42 4.60998Z" fill="#BBBBBB"/>
<path d="M23.04 48.34H0.169983C0.0799829 48.34 0 48.26 0 48.17C0 48.08 0.0799829 48 0.169983 48H23.04C23.13 48 23.21 48.08 23.21 48.17C23.21 48.26 23.13 48.34 23.04 48.34Z" fill="#BBBBBB"/>
<path d="M11.77 69.59C11.68 69.59 11.6 69.51 11.6 69.42V57.2C11.6 57.11 11.68 57.03 11.77 57.03C11.86 57.03 11.94 57.11 11.94 57.2V69.42C11.94 69.51 11.86 69.59 11.77 69.59Z" fill="#BBBBBB"/>
<path d="M17.89 63.48H5.65997C5.56997 63.48 5.48999 63.4 5.48999 63.31C5.48999 63.22 5.56997 63.14 5.65997 63.14H17.89C17.98 63.14 18.06 63.22 18.06 63.31C18.06 63.4 17.98 63.48 17.89 63.48Z" fill="#BBBBBB"/>
<path d="M7.44996 67.8C7.44996 67.8 7.35997 67.78 7.32997 67.75C7.25997 67.68 7.25997 67.58 7.32997 67.51L15.97 58.87C16.04 58.8 16.14 58.8 16.21 58.87C16.28 58.94 16.28 59.04 16.21 59.11L7.55998 67.75C7.55998 67.75 7.47995 67.8 7.43995 67.8" fill="#BBBBBB"/>
<path d="M16.1 67.8C16.1 67.8 16.01 67.78 15.98 67.75L7.32997 59.11C7.25997 59.04 7.25997 58.94 7.32997 58.87C7.39997 58.8 7.49996 58.8 7.56996 58.87L16.22 67.51C16.29 67.58 16.29 67.68 16.22 67.75C16.19 67.78 16.14 67.8 16.1 67.8Z" fill="#BBBBBB"/>
<path d="M23.35 24.2H0.47998C0.38998 24.2 0.309998 24.12 0.309998 24.03C0.309998 23.94 0.38998 23.86 0.47998 23.86H23.35C23.44 23.86 23.52 23.94 23.52 24.03C23.52 24.12 23.44 24.2 23.35 24.2Z" fill="#BBBBBB"/>
<path d="M104.8 77.46H81.93C81.74 77.46 81.59 77.31 81.59 77.12V24.37H23.69V77.13C23.69 77.32 23.54 77.47 23.35 77.47H0.480011C0.290011 77.47 0.140015 77.32 0.140015 77.13V1.16999C0.140015 0.979987 0.290011 0.829987 0.480011 0.829987H104.79C104.98 0.829987 105.13 0.979987 105.13 1.16999V77.12C105.13 77.31 104.98 77.46 104.79 77.46M82.26 76.78H104.45V1.50999H0.810028V76.78H23V24.03C23 23.84 23.15 23.69 23.34 23.69H81.92C82.11 23.69 82.26 23.84 82.26 24.03V76.79V76.78Z" fill="#595A5C"/>
<path d="M17.58 15.36C19 15.36 20.16 16.51 20.16 17.94C20.16 19.37 19.01 20.52 17.58 20.52C16.15 20.52 15 19.37 15 17.94C15 16.51 16.15 15.36 17.58 15.36Z" fill="white"/>
<path d="M17.58 20.68C16.06 20.68 14.83 19.45 14.83 17.93C14.83 16.41 16.06 15.18 17.58 15.18C19.1 15.18 20.33 16.41 20.33 17.93C20.33 19.45 19.1 20.68 17.58 20.68ZM17.58 15.52C16.25 15.52 15.17 16.6 15.17 17.93C15.17 19.26 16.25 20.34 17.58 20.34C18.91 20.34 19.99 19.26 19.99 17.93C19.99 16.6 18.91 15.52 17.58 15.52Z" fill="#BBBBBB"/>
<path d="M14.0182 22.2714L13.9921 22.6104L18.1798 22.9319L18.2058 22.5929L14.0182 22.2714Z" fill="#BBBBBB"/>
<path d="M17.62 17.15L17.54 16.82L21.64 15.89L21.72 16.22L17.62 17.15Z" fill="#BBBBBB"/>
<path d="M11.78 21.02C11.14 21.02 10.62 20.5 10.62 19.86C10.62 19.22 11.14 18.7 11.78 18.7C12.42 18.7 12.94 19.22 12.94 19.86C12.94 20.5 12.42 21.02 11.78 21.02ZM11.78 19.04C11.33 19.04 10.96 19.41 10.96 19.86C10.96 20.31 11.33 20.68 11.78 20.68C12.23 20.68 12.6 20.31 12.6 19.86C12.6 19.41 12.23 19.04 11.78 19.04Z" fill="#BBBBBB"/>
<path d="M27.86 21.45C27.8 21.51 27.5 21.33 27.19 21.04C26.88 20.75 26.67 20.47 26.72 20.4C26.78 20.34 26.88 20.33 26.94 20.39C27 20.45 27.15 20.39 27.26 20.26C27.38 20.13 27.42 19.98 27.36 19.93C27.11 19.7 27.81 19.23 28.43 19.22C28.78 19.22 29.12 19.15 29.19 19.08C29.51 18.73 29.94 18.92 30.92 19.81C31.5 20.34 31.94 20.66 32 20.59C32.06 20.53 32.3 20.65 32.54 20.87C32.84 21.14 33.09 21.24 33.35 21.18C33.74 21.1 34.21 21.38 34.03 21.59C33.97 21.65 34.08 21.85 34.27 22.02C34.46 22.19 34.56 22.38 34.51 22.45C34.45 22.51 34.61 22.75 34.86 22.98C35.11 23.21 35.27 23.45 35.21 23.51C35.15 23.57 35.26 23.77 35.45 23.94C35.64 24.11 35.75 24.3 35.69 24.37C35.63 24.43 35.74 24.63 35.93 24.8C36.12 24.97 36.22 25.16 36.17 25.23C36.11 25.29 36.22 25.49 36.41 25.66C36.65 25.88 36.7 26.03 36.58 26.16C36.49 26.26 36.43 26.63 36.46 26.98C36.49 27.33 36.46 27.68 36.38 27.75C36.31 27.83 36.28 28.17 36.3 28.52C36.33 28.87 36.28 29.23 36.2 29.31C36.12 29.4 36.09 29.64 36.13 29.84C36.17 30.05 36.13 30.29 36.04 30.39C35.95 30.49 35.91 30.74 35.95 30.94C35.99 31.14 35.95 31.39 35.86 31.49C35.77 31.59 35.73 31.84 35.77 32.04C35.81 32.24 35.77 32.51 35.66 32.62C35.56 32.73 35.52 32.87 35.59 32.93C35.65 32.99 35.56 33.19 35.39 33.38C35.22 33.57 35.13 33.77 35.19 33.83C35.25 33.89 35.02 34.24 34.67 34.62C34.32 35 33.99 35.26 33.93 35.2C33.87 35.14 33.67 35.25 33.5 35.44C33.33 35.63 33.13 35.74 33.07 35.68C33.01 35.62 32.81 35.73 32.64 35.92C32.47 36.11 32.27 36.22 32.21 36.16C32.15 36.1 32 36.16 31.89 36.29C31.77 36.42 31.63 36.47 31.56 36.42C31.5 36.36 31.3 36.47 31.13 36.66C30.96 36.85 30.76 36.96 30.7 36.9C30.64 36.84 30.49 36.9 30.38 37.03C30.26 37.16 30.12 37.21 30.06 37.16C30 37.1 29.85 37.16 29.74 37.29C29.62 37.42 29.48 37.47 29.42 37.41C29.36 37.35 29.22 37.4 29.12 37.51C29.02 37.62 28.76 37.69 28.55 37.67C28.34 37.65 28.09 37.72 27.98 37.83C27.88 37.94 27.74 37.99 27.68 37.93C27.62 37.87 27.47 37.93 27.36 38.05C27.24 38.18 27.07 38.21 26.97 38.11C26.87 38.02 26.5 37.97 26.15 38C25.8 38.03 25.44 37.99 25.36 37.91C25.27 37.83 25.03 37.8 24.83 37.85C24.55 37.91 24.32 37.81 23.91 37.43C23.61 37.16 23.41 36.88 23.47 36.82C23.53 36.76 23.42 36.56 23.23 36.39C23.04 36.22 22.94 36.03 22.99 35.96C23.04 35.89 22.99 35.75 22.87 35.64C22.74 35.53 22.69 35.38 22.75 35.32C22.81 35.26 22.77 35.13 22.67 35.04C22.57 34.95 22.49 34.59 22.48 34.24C22.48 33.89 22.42 33.55 22.35 33.48C22.28 33.42 22.2 32.92 22.18 32.38C22.15 31.64 22.22 31.31 22.46 31.05C22.72 30.77 22.77 30.43 22.72 29.39C22.66 28.18 22.69 28.05 23.13 27.56C23.39 27.27 23.66 27.08 23.72 27.14C23.78 27.2 23.98 27.09 24.15 26.9C24.32 26.71 24.52 26.6 24.58 26.66C24.64 26.72 24.58 26.9 24.42 27.06C24.18 27.33 24.07 27.89 24.24 28.04C24.28 28.07 24.45 27.94 24.62 27.76C24.79 27.57 24.88 27.37 24.82 27.31C24.76 27.25 24.8 27.1 24.92 26.98C25.21 26.67 25.25 26.74 25.28 27.62C25.3 28.09 25.21 28.49 25.05 28.67C24.9 28.83 24.84 29.01 24.9 29.06C24.96 29.12 24.9 29.3 24.75 29.46C24.46 29.78 24.43 30.74 24.7 30.99C24.8 31.08 24.83 31.2 24.77 31.27C24.71 31.33 24.77 31.48 24.89 31.59C25.01 31.7 25.07 31.85 25.01 31.91C24.95 31.97 25.01 32.12 25.13 32.23C25.28 32.37 25.43 32.36 25.57 32.21C25.69 32.08 25.73 31.93 25.67 31.88C25.61 31.82 25.75 31.57 25.98 31.32C26.21 31.07 26.35 30.81 26.29 30.75C26.23 30.69 26.32 30.49 26.49 30.3C26.66 30.11 26.76 29.91 26.69 29.85C26.62 29.79 26.89 29.4 27.31 28.94C27.73 28.48 28.09 28.18 28.16 28.24C28.23 28.3 28.59 28 29.01 27.54C29.43 27.08 29.79 26.78 29.86 26.84C29.92 26.9 30.26 26.64 30.6 26.25C30.94 25.86 31.28 25.61 31.34 25.66C31.51 25.81 31.79 25.45 31.77 25.09C31.77 24.92 31.69 24.71 31.6 24.64C31.52 24.56 31.47 24.33 31.49 24.12C31.51 23.91 31.44 23.66 31.33 23.55C31.22 23.44 31.17 23.31 31.23 23.25C31.29 23.19 31.05 22.87 30.7 22.55C30.14 22.04 29.99 21.97 29.43 22.02C28.95 22.06 28.69 21.98 28.38 21.7C28.15 21.49 27.92 21.38 27.86 21.44" fill="#010101"/>
</svg>
