<svg width="108" height="80" viewBox="0 0 108 80" fill="none" xmlns="http://www.w3.org/2000/svg">
<path d="M17.44 15.46H11.09V18.18H17.44V15.46Z" fill="white"/>
<path d="M17.52 18.27H11V15.38H17.52V18.27ZM11.17 18.1H17.35V15.55H11.17V18.1Z" fill="#D6D2D2"/>
<path d="M29.53 15.46H23.18V18.18H29.53V15.46Z" fill="white"/>
<path d="M29.61 18.27H23.09V15.38H29.61V18.27ZM23.26 18.1H29.44V15.55H23.26V18.1Z" fill="#D6D2D2"/>
<path d="M41.62 15.46H35.27V18.18H41.62V15.46Z" fill="white"/>
<path d="M41.71 18.27H35.19V15.38H41.71V18.27ZM35.36 18.1H41.54V15.55H35.36V18.1Z" fill="#D6D2D2"/>
<path d="M53.72 15.46H47.37V18.18H53.72V15.46Z" fill="white"/>
<path d="M53.8 18.27H47.28V15.38H53.8V18.27ZM47.45 18.1H53.63V15.55H47.45V18.1Z" fill="#D6D2D2"/>
<path d="M65.81 15.46H59.46V18.18H65.81V15.46Z" fill="white"/>
<path d="M65.9 18.27H59.38V15.38H65.9V18.27ZM59.55 18.1H65.73V15.55H59.55V18.1Z" fill="#D6D2D2"/>
<path d="M77.91 15.46H71.56V18.18H77.91V15.46Z" fill="white"/>
<path d="M77.99 18.27H71.47V15.38H77.99V18.27ZM71.64 18.1H77.82V15.55H71.64V18.1Z" fill="#D6D2D2"/>
<path d="M90 15.46H83.65V18.18H90V15.46Z" fill="white"/>
<path d="M90.09 18.27H83.57V15.38H90.09V18.27ZM83.74 18.1H89.92V15.55H83.74V18.1Z" fill="#D6D2D2"/>
<path d="M102.1 15.46H95.75V18.18H102.1V15.46Z" fill="white"/>
<path d="M102.18 18.27H95.66V15.38H102.18V18.27ZM95.83 18.1H102.01V15.55H95.83V18.1Z" fill="#D6D2D2"/>
<path d="M13.68 31.19H5.45001V22.96H13.68V31.19ZM5.62 31.02H13.51V23.13H5.62V31.02Z" fill="#D6D2D2"/>
<path d="M21.73 31.19H13.5V22.96H21.73V31.19ZM13.67 31.02H21.56V23.13H13.67V31.02Z" fill="#D6D2D2"/>
<path d="M13.68 39.25H5.45001V31.02H13.68V39.25ZM5.62 39.08H13.51V31.19H5.62V39.08Z" fill="#D6D2D2"/>
<path d="M21.73 39.25H13.5V31.02H21.73V39.25ZM13.67 39.08H21.56V31.19H13.67V39.08Z" fill="#D6D2D2"/>
<path d="M29.79 31.19H21.56V22.96H29.79V31.19ZM21.73 31.02H29.62V23.13H21.73V31.02Z" fill="#D6D2D2"/>
<path d="M37.85 31.19H29.62V22.96H37.85V31.19ZM29.79 31.02H37.68V23.13H29.79V31.02Z" fill="#D6D2D2"/>
<path d="M29.79 39.25H21.56V31.02H29.79V39.25ZM21.73 39.08H29.62V31.19H21.73V39.08Z" fill="#D6D2D2"/>
<path d="M37.85 39.25H29.62V31.02H37.85V39.25ZM29.79 39.08H37.68V31.19H29.79V39.08Z" fill="#D6D2D2"/>
<path d="M21.73 47.3H13.5V39.07H21.73V47.3ZM13.67 47.13H21.56V39.24H13.67V47.13Z" fill="#D6D2D2"/>
<path d="M13.68 55.36H5.45001V47.13H13.68V55.36ZM5.62 55.19H13.51V47.3H5.62V55.19Z" fill="#D6D2D2"/>
<path d="M21.73 55.36H13.5V47.13H21.73V55.36ZM13.67 55.19H21.56V47.3H13.67V55.19Z" fill="#D6D2D2"/>
<path d="M29.79 47.3H21.56V39.07H29.79V47.3ZM21.73 47.13H29.62V39.24H21.73V47.13Z" fill="#D6D2D2"/>
<path d="M37.85 47.3H29.62V39.07H37.85V47.3ZM29.79 47.13H37.68V39.24H29.79V47.13Z" fill="#D6D2D2"/>
<path d="M29.79 55.36H21.56V47.13H29.79V55.36ZM21.73 55.19H29.62V47.3H21.73V55.19Z" fill="#D6D2D2"/>
<path d="M37.85 55.36H29.62V47.13H37.85V55.36ZM29.79 55.19H37.68V47.3H29.79V55.19Z" fill="#D6D2D2"/>
<path d="M45.91 31.19H37.68V22.96H45.91V31.19ZM37.85 31.02H45.74V23.13H37.85V31.02Z" fill="#D6D2D2"/>
<path d="M53.97 31.19H45.74V22.96H53.97V31.19ZM45.91 31.02H53.8V23.13H45.91V31.02Z" fill="#D6D2D2"/>
<path d="M45.91 39.25H37.68V31.02H45.91V39.25ZM37.85 39.08H45.74V31.19H37.85V39.08Z" fill="#D6D2D2"/>
<path d="M53.97 39.25H45.74V31.02H53.97V39.25ZM45.91 39.08H53.8V31.19H45.91V39.08Z" fill="#D6D2D2"/>
<path d="M62.02 31.19H53.79V22.96H62.02V31.19ZM53.96 31.02H61.85V23.13H53.96V31.02Z" fill="#D6D2D2"/>
<path d="M70.08 31.19H61.85V22.96H70.08V31.19ZM62.02 31.02H69.91V23.13H62.02V31.02Z" fill="#D6D2D2"/>
<path d="M62.02 39.25H53.79V31.02H62.02V39.25ZM53.96 39.08H61.85V31.19H53.96V39.08Z" fill="#D6D2D2"/>
<path d="M70.08 39.25H61.85V31.02H70.08V39.25ZM62.02 39.08H69.91V31.19H62.02V39.08Z" fill="#D6D2D2"/>
<path d="M45.91 47.3H37.68V39.07H45.91V47.3ZM37.85 47.13H45.74V39.24H37.85V47.13Z" fill="#D6D2D2"/>
<path d="M53.97 47.3H45.74V39.07H53.97V47.3ZM45.91 47.13H53.8V39.24H45.91V47.13Z" fill="#D6D2D2"/>
<path d="M45.91 55.36H37.68V47.13H45.91V55.36ZM37.85 55.19H45.74V47.3H37.85V55.19Z" fill="#D6D2D2"/>
<path d="M53.97 55.36H45.74V47.13H53.97V55.36ZM45.91 55.19H53.8V47.3H45.91V55.19Z" fill="#D6D2D2"/>
<path d="M62.02 47.3H53.79V39.07H62.02V47.3ZM53.96 47.13H61.85V39.24H53.96V47.13Z" fill="#D6D2D2"/>
<path d="M70.08 47.3H61.85V39.07H70.08V47.3ZM62.02 47.13H69.91V39.24H62.02V47.13Z" fill="#D6D2D2"/>
<path d="M62.02 55.36H53.79V47.13H62.02V55.36ZM53.96 55.19H61.85V47.3H53.96V55.19Z" fill="#D6D2D2"/>
<path d="M70.08 55.36H61.85V47.13H70.08V55.36ZM62.02 55.19H69.91V47.3H62.02V55.19Z" fill="#D6D2D2"/>
<path d="M78.14 31.19H69.91V22.96H78.14V31.19ZM70.08 31.02H77.97V23.13H70.08V31.02Z" fill="#D6D2D2"/>
<path d="M86.2 31.19H77.97V22.96H86.2V31.19ZM78.14 31.02H86.03V23.13H78.14V31.02Z" fill="#D6D2D2"/>
<path d="M78.14 39.25H69.91V31.02H78.14V39.25ZM70.08 39.08H77.97V31.19H70.08V39.08Z" fill="#D6D2D2"/>
<path d="M86.2 39.25H77.97V31.02H86.2V39.25ZM78.14 39.08H86.03V31.19H78.14V39.08Z" fill="#D6D2D2"/>
<path d="M94.26 31.19H86.03V22.96H94.26V31.19ZM86.2 31.02H94.09V23.13H86.2V31.02Z" fill="#D6D2D2"/>
<path d="M102.31 31.19H94.08V22.96H102.31V31.19ZM94.25 31.02H102.14V23.13H94.25V31.02Z" fill="#D6D2D2"/>
<path d="M94.26 39.25H86.03V31.02H94.26V39.25ZM86.2 39.08H94.09V31.19H86.2V39.08Z" fill="#D6D2D2"/>
<path d="M102.31 39.25H94.08V31.02H102.31V39.25ZM94.25 39.08H102.14V31.19H94.25V39.08Z" fill="#D6D2D2"/>
<path d="M78.14 47.3H69.91V39.07H78.14V47.3ZM70.08 47.13H77.97V39.24H70.08V47.13Z" fill="#D6D2D2"/>
<path d="M86.2 47.3H77.97V39.07H86.2V47.3ZM78.14 47.13H86.03V39.24H78.14V47.13Z" fill="#D6D2D2"/>
<path d="M78.14 55.36H69.91V47.13H78.14V55.36ZM70.08 55.19H77.97V47.3H70.08V55.19Z" fill="#D6D2D2"/>
<path d="M86.2 55.36H77.97V47.13H86.2V55.36ZM78.14 55.19H86.03V47.3H78.14V55.19Z" fill="#D6D2D2"/>
<path d="M94.26 47.3H86.03V39.07H94.26V47.3ZM86.2 47.13H94.09V39.24H86.2V47.13Z" fill="#D6D2D2"/>
<path d="M94.26 55.36H86.03V47.13H94.26V55.36ZM86.2 55.19H94.09V47.3H86.2V55.19Z" fill="#D6D2D2"/>
<path d="M102.31 55.36H94.08V47.13H102.31V55.36ZM94.25 55.19H102.14V47.3H94.25V55.19Z" fill="#D6D2D2"/>
<path d="M21.73 63.42H13.5V55.19H21.73V63.42ZM13.67 63.25H21.56V55.36H13.67V63.25Z" fill="#D6D2D2"/>
<path d="M13.68 71.48H5.45001V63.25H13.68V71.48ZM5.62 71.31H13.51V63.42H5.62V71.31Z" fill="#D6D2D2"/>
<path d="M21.73 71.48H13.5V63.25H21.73V71.48ZM13.67 71.31H21.56V63.42H13.67V71.31Z" fill="#D6D2D2"/>
<path d="M29.79 63.42H21.56V55.19H29.79V63.42ZM21.73 63.25H29.62V55.36H21.73V63.25Z" fill="#D6D2D2"/>
<path d="M37.85 63.42H29.62V55.19H37.85V63.42ZM29.79 63.25H37.68V55.36H29.79V63.25Z" fill="#D6D2D2"/>
<path d="M29.79 71.48H21.56V63.25H29.79V71.48ZM21.73 71.31H29.62V63.42H21.73V71.31Z" fill="#D6D2D2"/>
<path d="M37.85 71.48H29.62V63.25H37.85V71.48ZM29.79 71.31H37.68V63.42H29.79V71.31Z" fill="#D6D2D2"/>
<path d="M21.73 79.54H13.5V71.31H21.73V79.54ZM13.67 79.37H21.56V71.48H13.67V79.37Z" fill="#D6D2D2"/>
<path d="M37.85 79.54H29.62V71.31H37.85V79.54ZM29.79 79.37H37.68V71.48H29.79V79.37Z" fill="#D6D2D2"/>
<path d="M45.91 63.42H37.68V55.19H45.91V63.42ZM37.85 63.25H45.74V55.36H37.85V63.25Z" fill="#D6D2D2"/>
<path d="M53.97 63.42H45.74V55.19H53.97V63.42ZM45.91 63.25H53.8V55.36H45.91V63.25Z" fill="#D6D2D2"/>
<path d="M45.91 71.48H37.68V63.25H45.91V71.48ZM37.85 71.31H45.74V63.42H37.85V71.31Z" fill="#D6D2D2"/>
<path d="M53.97 71.48H45.74V63.25H53.97V71.48ZM45.91 71.31H53.8V63.42H45.91V71.31Z" fill="#D6D2D2"/>
<path d="M62.02 63.42H53.79V55.19H62.02V63.42ZM53.96 63.25H61.85V55.36H53.96V63.25Z" fill="#D6D2D2"/>
<path d="M70.08 63.42H61.85V55.19H70.08V63.42ZM62.02 63.25H69.91V55.36H62.02V63.25Z" fill="#D6D2D2"/>
<path d="M62.02 71.48H53.79V63.25H62.02V71.48ZM53.96 71.31H61.85V63.42H53.96V71.31Z" fill="#D6D2D2"/>
<path d="M70.08 71.48H61.85V63.25H70.08V71.48ZM62.02 71.31H69.91V63.42H62.02V71.31Z" fill="#D6D2D2"/>
<path d="M53.97 79.54H45.74V71.31H53.97V79.54ZM45.91 79.37H53.8V71.48H45.91V79.37Z" fill="#D6D2D2"/>
<path d="M70.08 79.54H61.85V71.31H70.08V79.54ZM62.02 79.37H69.91V71.48H62.02V79.37Z" fill="#D6D2D2"/>
<path d="M78.14 63.42H69.91V55.19H78.14V63.42ZM70.08 63.25H77.97V55.36H70.08V63.25Z" fill="#D6D2D2"/>
<path d="M86.2 63.42H77.97V55.19H86.2V63.42ZM78.14 63.25H86.03V55.36H78.14V63.25Z" fill="#D6D2D2"/>
<path d="M78.14 71.48H69.91V63.25H78.14V71.48ZM70.08 71.31H77.97V63.42H70.08V71.31Z" fill="#D6D2D2"/>
<path d="M86.2 71.48H77.97V63.25H86.2V71.48ZM78.14 71.31H86.03V63.42H78.14V71.31Z" fill="#D6D2D2"/>
<path d="M94.26 63.42H86.03V55.19H94.26V63.42ZM86.2 63.25H94.09V55.36H86.2V63.25Z" fill="#D6D2D2"/>
<path d="M94.26 71.48H86.03V63.25H94.26V71.48ZM86.2 71.31H94.09V63.42H86.2V71.31Z" fill="#D6D2D2"/>
<path d="M102.31 71.48H94.08V63.25H102.31V71.48ZM94.25 71.31H102.14V63.42H94.25V71.31Z" fill="#D6D2D2"/>
<path d="M78.14 79.54H69.91V71.31H78.14V79.54ZM70.08 79.37H77.97V71.48H70.08V79.37Z" fill="#D6D2D2"/>
<path d="M94.26 79.54H86.03V71.31H94.26V79.54ZM86.2 79.37H94.09V71.48H86.2V79.37Z" fill="#D6D2D2"/>
<path d="M104.81 23.04H2.31V28.2H104.81V23.04Z" fill="#D3D3D3"/>
<path d="M53.56 28.2C67.71 28.2 81.2 28.06 93.46 27.8C96.53 27.73 99.52 27.66 102.42 27.58C103.87 27.54 105.3 27.5 106.71 27.46H105.15V22.71H1.96997V27.46H0.409973C1.81997 27.5 3.25001 27.55 4.70001 27.58C7.60001 27.66 10.59 27.73 13.66 27.8C25.92 28.06 39.4 28.2 53.56 28.2Z" fill="#D3D3D3"/>
<path d="M53.56 27.86C66.77 27.86 79.35 27.72 90.8 27.48C96.52 27.36 101.96 27.21 107.05 27.04H105.15V22.71H1.96997V27.04H0.0700073C5.16001 27.21 10.6 27.36 16.32 27.48C27.77 27.72 40.35 27.86 53.56 27.86Z" fill="#D2D2D2"/>
<path d="M53.56 27.51C65.83 27.51 77.51 27.39 88.14 27.16C93.45 27.05 98.5 26.91 103.23 26.75C104.41 26.71 105.57 26.67 106.71 26.63H105.15V22.71H1.96997V26.63H0.409973C1.54997 26.67 2.71001 26.71 3.89001 26.75C8.62001 26.91 13.67 27.05 18.98 27.16C29.61 27.39 41.29 27.51 53.56 27.51Z" fill="#D1D1D1"/>
<path d="M53.56 27.17C64.88 27.17 75.67 27.06 85.48 26.85C90.39 26.75 95.05 26.62 99.41 26.47C101.59 26.4 103.7 26.32 105.72 26.23H105.15V22.71H1.96997V26.23H1.40002C3.43002 26.31 5.53002 26.39 7.71002 26.47C12.07 26.62 16.73 26.75 21.64 26.85C31.45 27.06 42.24 27.17 53.56 27.17Z" fill="#D0D0D0"/>
<path d="M53.56 26.83C74.32 26.83 93.11 26.41 106.71 25.72H105.15V22.71H1.96997V25.72H0.409973C14.01 26.4 32.8 26.83 53.56 26.83Z" fill="#CFCFCF"/>
<path d="M53.56 26.48C72.43 26.48 89.51 26.09 101.88 25.47C103.43 25.39 104.9 25.31 106.29 25.23H105.15V22.7H1.96997V25.23H0.830017C2.22002 25.32 3.68999 25.4 5.23999 25.47C17.6 26.09 34.69 26.48 53.56 26.48Z" fill="#CECECE"/>
<path d="M53.56 26.14C70.54 26.14 85.92 25.79 97.05 25.23C99.83 25.09 102.35 24.94 104.56 24.77C105.11 24.73 105.65 24.69 106.16 24.64H105.15V22.7H1.96997V24.64H0.960022C1.47002 24.68 2.01 24.72 2.56 24.77C4.77 24.93 7.29001 25.09 10.07 25.23C21.2 25.79 36.57 26.14 53.56 26.14Z" fill="#CDCDCD"/>
<path d="M53.56 25.79C68.66 25.79 82.32 25.48 92.22 24.99C97.17 24.74 101.17 24.44 103.93 24.11C105.31 23.95 106.39 23.77 107.12 23.59H105.15V22.7H1.96997V23.59H0C0.73 23.77 1.79999 23.94 3.17999 24.11C5.94999 24.44 9.95002 24.74 14.9 24.99C24.79 25.49 38.46 25.79 53.55 25.79" fill="#CCCCCC"/>
<path d="M53.56 25.45C79.98 25.45 101.39 24.37 101.39 23.04C101.39 21.71 79.97 20.63 53.56 20.63C27.15 20.63 5.72998 21.71 5.72998 23.04C5.72998 24.37 27.15 25.45 53.56 25.45Z" fill="#CBCBCB"/>
<path d="M53.56 25.11C76.2 25.11 94.56 24.19 94.56 23.05C94.56 21.91 76.2 20.99 53.56 20.99C30.92 20.99 12.56 21.91 12.56 23.05C12.56 24.19 30.92 25.11 53.56 25.11Z" fill="#CACACA"/>
<path d="M53.56 24.76C72.43 24.76 87.73 23.99 87.73 23.04C87.73 22.09 72.43 21.32 53.56 21.32C34.69 21.32 19.39 22.09 19.39 23.04C19.39 23.99 34.69 24.76 53.56 24.76Z" fill="#C9C9C9"/>
<path d="M53.56 24.42C68.66 24.42 80.89 23.8 80.89 23.04C80.89 22.28 68.65 21.66 53.56 21.66C38.47 21.66 26.23 22.27 26.23 23.04C26.23 23.81 38.47 24.42 53.56 24.42Z" fill="#C8C8C8"/>
<path d="M53.56 24.08C64.88 24.08 74.06 23.62 74.06 23.05C74.06 22.48 64.88 22.02 53.56 22.02C42.24 22.02 33.06 22.48 33.06 23.05C33.06 23.62 42.24 24.08 53.56 24.08Z" fill="#C7C7C7"/>
<path d="M53.56 23.73C61.11 23.73 67.23 23.42 67.23 23.04C67.23 22.66 61.11 22.35 53.56 22.35C46.01 22.35 39.89 22.66 39.89 23.04C39.89 23.42 46.01 23.73 53.56 23.73Z" fill="#C6C6C6"/>
<path d="M53.56 23.39C57.33 23.39 60.39 23.24 60.39 23.05C60.39 22.86 57.33 22.71 53.56 22.71C49.79 22.71 46.73 22.86 46.73 23.05C46.73 23.24 49.79 23.39 53.56 23.39Z" fill="#C5C5C4"/>
<path d="M104.72 1.12999H2.31V23.6H104.72V1.12999Z" fill="white"/>
<path d="M82.1 23.81C82.01 23.81 81.93 23.73 81.93 23.64V1.16998C81.93 1.07998 82.01 0.999985 82.1 0.999985C82.19 0.999985 82.27 1.07998 82.27 1.16998V23.64C82.27 23.73 82.19 23.81 82.1 23.81Z" fill="#BBBBBB"/>
<path d="M70.24 23.99C70.15 23.99 70.07 23.91 70.07 23.82V1.34999C70.07 1.25999 70.15 1.17999 70.24 1.17999C70.33 1.17999 70.41 1.25999 70.41 1.34999V23.82C70.41 23.91 70.33 23.99 70.24 23.99Z" fill="#BBBBBB"/>
<path d="M43.81 24.04C43.72 24.04 43.64 23.96 43.64 23.87V1.39999C43.64 1.30999 43.72 1.22999 43.81 1.22999C43.9 1.22999 43.98 1.30999 43.98 1.39999V23.87C43.98 23.96 43.9 24.04 43.81 24.04Z" fill="#BBBBBB"/>
<path d="M64.86 3.46999C65.94 3.46999 66.82 4.34999 66.82 5.42999V19.75C66.82 20.83 65.94 21.71 64.86 21.71H49.35C48.27 21.71 47.39 20.83 47.39 19.75V5.42999C47.39 4.34999 48.27 3.46999 49.35 3.46999H64.86Z" fill="white"/>
<path d="M64.86 21.88H49.35C48.18 21.88 47.22 20.93 47.22 19.75V5.42999C47.22 4.25999 48.18 3.29999 49.35 3.29999H64.86C66.03 3.29999 66.99 4.25999 66.99 5.42999V19.75C66.99 20.93 66.03 21.88 64.86 21.88ZM49.35 3.63999C48.36 3.63999 47.56 4.43999 47.56 5.42999V19.75C47.56 20.74 48.36 21.54 49.35 21.54H64.86C65.85 21.54 66.65 20.74 66.65 19.75V5.42999C66.65 4.43999 65.85 3.63999 64.86 3.63999H49.35Z" fill="#BBBBBB"/>
<path d="M63.72 20.23H50.48C49.46 20.23 48.64 19.51 48.64 18.62V8.06999C48.64 7.17999 49.47 6.45999 50.48 6.45999H63.72C64.73 6.45999 65.56 7.17999 65.56 8.06999V18.62C65.56 19.51 64.73 20.23 63.72 20.23ZM50.48 6.78999C49.65 6.78999 48.98 7.35999 48.98 8.05999V18.61C48.98 19.31 49.65 19.88 50.48 19.88H63.72C64.55 19.88 65.22 19.31 65.22 18.61V8.06999C65.22 7.36999 64.55 6.79999 63.72 6.79999H50.48V6.78999Z" fill="#BBBBBB"/>
<path d="M58.08 5.27998H56.15V13.75H58.08V5.27998Z" fill="white"/>
<path d="M58.08 13.92H56.15C56.06 13.92 55.98 13.84 55.98 13.75V5.27999C55.98 5.18999 56.06 5.10999 56.15 5.10999H58.08C58.17 5.10999 58.25 5.18999 58.25 5.27999V13.75C58.25 13.84 58.17 13.92 58.08 13.92ZM56.32 13.58H57.91V5.44999H56.32V13.58Z" fill="#BBBBBB"/>
<path d="M99.34 12.58H87.34C87.25 12.58 87.17 12.5 87.17 12.41C87.17 12.32 87.25 12.24 87.34 12.24H99.34C99.43 12.24 99.51 12.32 99.51 12.41C99.51 12.5 99.43 12.58 99.34 12.58Z" fill="#BBBBBB"/>
<path d="M93.33 18.58C93.24 18.58 93.16 18.5 93.16 18.41V6.39999C93.16 6.30999 93.24 6.22999 93.33 6.22999C93.42 6.22999 93.5 6.30999 93.5 6.39999V18.41C93.5 18.5 93.42 18.58 93.33 18.58Z" fill="#BBBBBB"/>
<path d="M97.58 16.82C97.58 16.82 97.49 16.8 97.46 16.77L88.97 8.27999C88.9 8.20999 88.9 8.10999 88.97 8.03999C89.04 7.96999 89.14 7.96999 89.21 8.03999L97.7 16.53C97.77 16.6 97.77 16.7 97.7 16.77C97.67 16.8 97.62 16.82 97.58 16.82Z" fill="#BBBBBB"/>
<path d="M89.09 16.82C89.09 16.82 89 16.8 88.97 16.77C88.9 16.7 88.9 16.6 88.97 16.53L97.46 8.03999C97.53 7.96999 97.63 7.96999 97.7 8.03999C97.77 8.10999 97.77 8.20999 97.7 8.27999L89.21 16.77C89.21 16.77 89.13 16.82 89.09 16.82Z" fill="#BBBBBB"/>
<path d="M10.84 23.81C10.75 23.81 10.67 23.73 10.67 23.64V1.16998C10.67 1.07998 10.75 0.999985 10.84 0.999985C10.93 0.999985 11.01 1.07998 11.01 1.16998V23.64C11.01 23.73 10.93 23.81 10.84 23.81Z" fill="#BBBBBB"/>
<path d="M33.63 23.81C33.54 23.81 33.46 23.73 33.46 23.64V1.16998C33.46 1.07998 33.54 0.999985 33.63 0.999985C33.72 0.999985 33.8 1.07998 33.8 1.16998V23.64C33.8 23.73 33.72 23.81 33.63 23.81Z" fill="#BBBBBB"/>
<path d="M27.59 11.94C25.46 11.94 23.73 10.21 23.73 8.07999C23.73 5.94999 25.46 4.21999 27.59 4.21999C29.72 4.21999 31.45 5.94999 31.45 8.07999C31.45 10.21 29.72 11.94 27.59 11.94ZM27.59 4.55999C25.65 4.55999 24.07 6.13999 24.07 8.07999C24.07 10.02 25.65 11.6 27.59 11.6C29.53 11.6 31.11 10.02 31.11 8.07999C31.11 6.13999 29.53 4.55999 27.59 4.55999Z" fill="#BBBBBB"/>
<path d="M27.59 20.16C26.11 20.16 24.91 18.96 24.91 17.48C24.91 16 26.11 14.8 27.59 14.8C29.07 14.8 30.27 16 30.27 17.48C30.27 18.96 29.07 20.16 27.59 20.16ZM27.59 15.14C26.3 15.14 25.25 16.19 25.25 17.48C25.25 18.77 26.3 19.82 27.59 19.82C28.88 19.82 29.93 18.77 29.93 17.48C29.93 16.19 28.88 15.14 27.59 15.14Z" fill="#BBBBBB"/>
<path d="M16.86 20.16C14.73 20.16 13 18.43 13 16.3C13 14.17 14.73 12.44 16.86 12.44C18.99 12.44 20.72 14.17 20.72 16.3C20.72 18.43 18.99 20.16 16.86 20.16ZM16.86 12.78C14.92 12.78 13.34 14.36 13.34 16.3C13.34 18.24 14.92 19.82 16.86 19.82C18.8 19.82 20.38 18.24 20.38 16.3C20.38 14.36 18.8 12.78 16.86 12.78Z" fill="#BBBBBB"/>
<path d="M16.86 9.57999C15.38 9.57999 14.18 8.37999 14.18 6.89999C14.18 5.41999 15.38 4.21999 16.86 4.21999C18.34 4.21999 19.54 5.41999 19.54 6.89999C19.54 8.37999 18.34 9.57999 16.86 9.57999ZM16.86 4.55999C15.57 4.55999 14.52 5.60999 14.52 6.89999C14.52 8.18999 15.57 9.23999 16.86 9.23999C18.15 9.23999 19.2 8.18999 19.2 6.89999C19.2 5.60999 18.15 4.55999 16.86 4.55999Z" fill="#BBBBBB"/>
<path d="M104.76 23.98H2.34998C2.15998 23.98 2.01001 23.83 2.01001 23.64V1.16999C2.01001 0.979987 2.15998 0.829987 2.34998 0.829987H104.76C104.95 0.829987 105.1 0.979987 105.1 1.16999V23.64C105.1 23.83 104.95 23.98 104.76 23.98ZM2.69 23.3H104.42V1.50999H2.69V23.3Z" fill="#595A5C"/>
<path d="M72.82 61.96C68.93 61.46 66.34 57.74 67.03 53.65C67.72 49.56 71.43 46.65 75.31 47.15C79.2 47.65 81.79 51.37 81.1 55.46C80.41 59.55 76.7 62.46 72.82 61.96Z" fill="white"/>
<path d="M73.69 62.19C73.4 62.19 73.1 62.17 72.8 62.13C70.95 61.89 69.31 60.93 68.19 59.42C66.98 57.79 66.51 55.73 66.86 53.63C67.56 49.46 71.36 46.48 75.33 46.99C77.18 47.23 78.82 48.19 79.94 49.7C81.15 51.33 81.62 53.39 81.27 55.49C80.62 59.35 77.32 62.19 73.69 62.19ZM72.84 61.8C76.63 62.29 80.26 59.43 80.93 55.44C81.27 53.43 80.82 51.46 79.66 49.9C78.6 48.47 77.04 47.55 75.28 47.32C71.49 46.83 67.86 49.69 67.19 53.68C66.85 55.69 67.3 57.66 68.46 59.22C69.52 60.65 71.08 61.57 72.84 61.8Z" fill="#BBBBBB"/>
<path d="M79.53 55.37C78.86 59.41 73.95 62.12 76.72 62.48C79.49 62.84 82.29 59.86 82.96 55.82C83.63 51.78 81.93 48.21 79.16 47.85C76.39 47.49 80.21 51.33 79.54 55.38" fill="white"/>
<path d="M77.18 62.68C77.02 62.68 76.86 62.67 76.71 62.65C76.17 62.58 75.87 62.42 75.76 62.15C75.56 61.66 76.1 60.97 76.85 60.02C77.78 58.84 79.06 57.22 79.37 55.34C79.68 53.46 78.99 51.59 78.48 50.22C78.07 49.12 77.78 48.33 78.12 47.91C78.31 47.67 78.65 47.6 79.19 47.67C80.25 47.81 81.2 48.4 81.92 49.37C83.09 50.95 83.55 53.37 83.14 55.83C82.49 59.73 79.88 62.67 77.19 62.67M78.8401 47.98C78.6101 47.98 78.46 48.03 78.39 48.12C78.17 48.39 78.47 49.18 78.81 50.1C79.33 51.5 80.04 53.42 79.71 55.39C79.38 57.35 78.08 59.01 77.13 60.22C76.5 61.02 75.9601 61.71 76.0901 62.01C76.1501 62.15 76.38 62.25 76.77 62.3C79.45 62.65 82.16 59.72 82.82 55.78C83.21 53.4 82.78 51.08 81.66 49.57C80.99 48.67 80.13 48.13 79.16 48C79.05 47.99 78.94 47.98 78.85 47.98" fill="#BBBBBB"/>
<path d="M58.72 39.8C66.38 39.8 72.58 46.01 72.58 53.66C72.58 61.31 66.38 67.52 58.72 67.52C51.06 67.52 44.86 61.31 44.86 53.66C44.86 46.01 51.07 39.8 58.72 39.8Z" fill="#C5C5C4"/>
<path fill-rule="evenodd" clip-rule="evenodd" d="M33.63 40.12C33.76 39.84 33.61 39.6 33.04 39.38C30.74 38.5 27.9 40.35 26.7 43.51C25.5 46.67 26.39 49.95 28.69 50.83C29.27 51.05 29.53 50.97 29.63 50.67C30.73 51.72 32.21 52.37 33.85 52.37C37.22 52.37 39.95 49.63 39.95 46.24C39.95 42.85 37.22 40.11 33.85 40.11C33.78 40.11 33.71 40.11 33.64 40.11" fill="#B8B8B8"/>
<path d="M33.65 51.09C29.62 51.09 26.36 47.81 26.36 43.77C26.36 39.73 29.63 36.44 33.65 36.44C37.67 36.44 40.94 39.72 40.94 43.77C40.94 47.82 37.67 51.09 33.65 51.09Z" fill="white"/>
<path d="M33.65 51.26C29.53 51.26 26.18 47.9 26.18 43.77C26.18 39.64 29.53 36.28 33.65 36.28C37.77 36.28 41.11 39.64 41.11 43.77C41.11 47.9 37.76 51.26 33.65 51.26ZM33.65 36.61C29.72 36.61 26.53 39.82 26.53 43.76C26.53 47.7 29.73 50.91 33.65 50.91C37.57 50.91 40.77 47.7 40.77 43.76C40.77 39.82 37.57 36.61 33.65 36.61Z" fill="#BBBBBB"/>
<path d="M28.51 41.8C29.95 38.02 35.44 36.61 32.69 35.56C29.94 34.51 26.54 36.72 25.11 40.5C23.68 44.28 24.74 48.2 27.49 49.25C30.24 50.3 27.08 45.58 28.51 41.8Z" fill="white"/>
<path d="M28.13 49.56C27.94 49.56 27.71 49.51 27.43 49.4C24.6 48.32 23.48 44.29 24.95 40.43C25.79 38.21 27.38 36.39 29.19 35.58C30.41 35.03 31.64 34.97 32.75 35.39C33.29 35.6 33.57 35.84 33.61 36.13C33.69 36.66 33.02 37.19 32.09 37.92C30.93 38.84 29.33 40.09 28.67 41.85C28 43.6 28.36 45.61 28.62 47.07C28.83 48.24 28.98 49.08 28.57 49.42C28.46 49.51 28.31 49.56 28.14 49.56M31.26 35.46C30.63 35.46 29.99 35.61 29.34 35.9C27.61 36.68 26.09 38.42 25.28 40.56C23.88 44.25 24.9 48.07 27.56 49.09C27.96 49.24 28.24 49.27 28.36 49.17C28.62 48.96 28.47 48.12 28.3 47.14C28.03 45.64 27.67 43.58 28.37 41.74C29.07 39.9 30.71 38.61 31.9 37.67C32.67 37.06 33.34 36.53 33.29 36.2C33.27 36.04 33.04 35.87 32.64 35.72C32.2 35.55 31.74 35.47 31.26 35.47" fill="#BBBBBB"/>
<path d="M38.64 55.8C38.78 55.88 38.85 56.01 38.81 56.08C38.77 56.16 38.98 56.36 39.28 56.54C39.58 56.72 39.8699 56.8 39.9099 56.72C39.9499 56.64 40.12 56.65 40.27 56.74C40.45 56.85 40.6 56.81 40.71 56.62C40.8 56.47 40.81 56.31 40.73 56.26C40.65 56.22 40.66 56.05 40.75 55.9C40.84 55.74 40.82 55.57 40.69 55.5C40.57 55.43 40.4 55.08 40.32 54.73C40.24 54.38 40.1 54.05 40.01 54C39.79 53.87 39.66 53.32 39.79 53.09C39.85 52.99 39.83 52.74 39.74 52.54C39.65 52.34 39.61 52.13 39.64 52.07C39.67 52.01 40.26 52.28 40.95 52.68C41.69 53.11 42.23 53.34 42.27 53.26C42.31 53.18 42.4599 53.19 42.5999 53.26C42.7399 53.34 43.01 53.33 43.2 53.24C43.5 53.11 43.72 53.17 44.5 53.62C45.03 53.93 45.47 54.1 45.52 54.02C45.56 53.94 45.76 53.97 45.95 54.08C46.34 54.31 48.44 53.84 48.21 53.58C48.14 53.5 48.18 53.24 48.31 53.02C48.52 52.66 48.49 52.59 48.13 52.38C47.9 52.25 47.68 52.2 47.64 52.28C47.6 52.36 47.37 52.31 47.15 52.18C46.92 52.05 46.6999 52 46.6599 52.08C46.6199 52.16 46.28 52.05 45.92 51.84C45.42 51.55 45.2499 51.36 45.2199 51.07C45.1799 50.71 45.02 50.58 43.55 49.74L41.92 48.8L42.45 47.88C42.93 47.04 42.9599 46.91 42.7899 46.34C42.6699 45.95 42.68 45.57 42.81 45.35C42.93 45.15 42.96 44.95 42.88 44.91C42.8 44.87 42.81 44.7 42.9 44.55C42.99 44.4 43 44.24 42.92 44.19C42.84 44.15 42.85 43.98 42.94 43.83C43.03 43.68 43.04 43.52 42.96 43.47C42.88 43.43 42.91 43.23 43.03 43.03C43.35 42.47 43.16 42.1 42.3 41.6C41.88 41.36 41.57 41.09 41.61 41.02C41.65 40.94 41.5699 40.81 41.4099 40.72C41.2599 40.63 41.17 40.5 41.21 40.42C41.25 40.34 41.04 40.14 40.74 39.96C40.44 39.78 40.22 39.58 40.27 39.5C40.31 39.42 39.94 39.12 39.38 38.8C38.82 38.48 38.45 38.18 38.49 38.1C38.54 38.02 38.1099 37.7 37.4699 37.32C36.8199 36.95 36.33 36.74 36.29 36.82C36.25 36.9 35.9599 36.82 35.6599 36.64C35.3599 36.47 35.07 36.38 35.03 36.46C34.99 36.54 34.64 36.42 34.26 36.2C33.88 35.98 33.53 35.86 33.49 35.94C33.45 36.02 33.31 36.02 33.19 35.95C32.92 35.8 32.39 35.93 32.24 36.18C32.18 36.28 31.96 36.39 31.74 36.41C31.4 36.45 31.2599 36.61 30.5999 37.75C29.8599 39.03 29.49 39.37 29.08 39.13C29 39.08 28.49 39.16 27.95 39.31C27.08 39.55 26.93 39.64 26.61 40.2C26.41 40.55 26.31 40.86 26.39 40.91C26.47 40.95 26.4699 41.09 26.4099 41.2C26.2499 41.48 26.63 42.89 26.9 43.05C27.02 43.12 27.08 43.23 27.03 43.31C26.99 43.39 27.11 43.54 27.3 43.65C27.75 43.91 27.88 44.38 27.62 44.84C27.51 45.04 27.48 45.23 27.55 45.28C27.63 45.32 27.63 45.45 27.57 45.57C27.36 45.94 28.16 48.59 28.55 48.82C28.74 48.93 28.86 49.08 28.82 49.16C28.77 49.24 29.27 49.6 30.06 50.06L31.38 50.82L32.36 50.56C32.9 50.41 33.37 50.23 33.42 50.15C33.47 50.07 33.7499 49.94 34.0399 49.86C34.4799 49.74 34.71 49.79 35.34 50.16C35.76 50.4 36.14 50.54 36.19 50.46C36.23 50.38 36.6399 50.53 37.0999 50.8L37.93 51.28L37.4 52.19C36.86 53.13 36.82 53.6 37.26 53.85C37.38 53.92 37.44 54.04 37.4 54.11C37.36 54.19 37.55 54.38 37.84 54.55C38.2 54.76 38.37 54.97 38.4 55.24C38.42 55.46 38.55 55.7 38.68 55.78" fill="#010101"/>
<path d="M58.72 67.52C51.07 67.52 44.86 61.31 44.86 53.66C44.86 46.01 51.07 39.8 58.72 39.8C66.37 39.8 72.58 46.01 72.58 53.66C72.58 61.31 66.37 67.52 58.72 67.52Z" fill="white"/>
<path d="M58.72 67.69C50.98 67.69 44.69 61.4 44.69 53.66C44.69 45.92 50.98 39.63 58.72 39.63C66.46 39.63 72.75 45.92 72.75 53.66C72.75 61.4 66.46 67.69 58.72 67.69ZM58.72 39.97C51.17 39.97 45.03 46.11 45.03 53.66C45.03 61.21 51.17 67.35 58.72 67.35C66.27 67.35 72.41 61.21 72.41 53.66C72.41 46.11 66.27 39.97 58.72 39.97Z" fill="#BBBBBB"/>
<path d="M51.3 54.63C49.88 54.63 48.72 53.48 48.72 52.05C48.72 50.62 49.87 49.47 51.3 49.47C52.73 49.47 53.88 50.62 53.88 52.05C53.88 53.48 52.73 54.63 51.3 54.63Z" fill="white"/>
<path d="M51.3 54.8C49.78 54.8 48.55 53.57 48.55 52.05C48.55 50.53 49.78 49.3 51.3 49.3C52.82 49.3 54.05 50.53 54.05 52.05C54.05 53.57 52.82 54.8 51.3 54.8ZM51.3 49.64C49.97 49.64 48.89 50.72 48.89 52.05C48.89 53.38 49.97 54.46 51.3 54.46C52.63 54.46 53.71 53.38 53.71 52.05C53.71 50.72 52.63 49.64 51.3 49.64Z" fill="#BBBBBB"/>
<path d="M50.6161 47.0434L50.5901 47.3823L54.7778 47.7038L54.8038 47.3649L50.6161 47.0434Z" fill="#BBBBBB"/>
<path d="M47.24 54.09L47.17 53.76L51.27 52.84L51.34 53.17L47.24 54.09Z" fill="#BBBBBB"/>
<path d="M57.11 51.28C56.47 51.28 55.95 50.76 55.95 50.12C55.95 49.48 56.47 48.96 57.11 48.96C57.75 48.96 58.27 49.48 58.27 50.12C58.27 50.76 57.75 51.28 57.11 51.28ZM57.11 49.3C56.66 49.3 56.29 49.67 56.29 50.12C56.29 50.57 56.66 50.94 57.11 50.94C57.56 50.94 57.93 50.57 57.93 50.12C57.93 49.67 57.56 49.3 57.11 49.3Z" fill="#BBBBBB"/>
</svg>
