<svg width="108" height="80" viewBox="0 0 108 80" fill="none" xmlns="http://www.w3.org/2000/svg">
<path d="M34.3 59.36C34.14 59.36 33.98 59.32 33.84 59.24L31.34 57.78C31.06 57.62 30.88 57.31 30.88 56.99V54.07C30.88 53.75 31.06 53.44 31.34 53.28L33.84 51.82C34.13 51.65 34.48 51.65 34.76 51.82L37.26 53.28C37.54 53.44 37.72 53.75 37.72 54.07V56.99C37.72 57.31 37.54 57.62 37.26 57.78L34.76 59.24C34.62 59.32 34.46 59.36 34.3 59.36ZM34.3 51.86C34.17 51.86 34.04 51.89 33.92 51.96L31.42 53.42C31.19 53.55 31.05 53.8 31.05 54.07V56.99C31.05 57.26 31.19 57.5 31.42 57.64L33.92 59.1C34.15 59.24 34.44 59.24 34.67 59.1L37.17 57.64C37.4 57.51 37.54 57.26 37.54 56.99V54.07C37.54 53.81 37.4 53.56 37.17 53.42L34.67 51.96C34.55 51.89 34.42 51.86 34.29 51.86" fill="#D6D2D2"/>
<path d="M37.63 53.52C37.47 53.52 37.31 53.48 37.17 53.4L34.67 51.94C34.39 51.78 34.21 51.47 34.21 51.15V48.23C34.21 47.91 34.39 47.6 34.67 47.44L37.17 45.98C37.46 45.81 37.81 45.81 38.09 45.98L40.59 47.44C40.87 47.6 41.05 47.91 41.05 48.23V51.15C41.05 51.47 40.88 51.78 40.59 51.94L38.09 53.4C37.95 53.48 37.79 53.52 37.63 53.52ZM37.63 46.02C37.5 46.02 37.37 46.05 37.25 46.12L34.75 47.58C34.52 47.71 34.38 47.96 34.38 48.23V51.15C34.38 51.42 34.52 51.66 34.75 51.8L37.25 53.26C37.48 53.39 37.77 53.39 38 53.26L40.5 51.8C40.73 51.67 40.87 51.42 40.87 51.15V48.23C40.87 47.97 40.73 47.72 40.5 47.58L38 46.12C37.88 46.05 37.75 46.02 37.62 46.02" fill="#D6D2D2"/>
<path d="M37.63 65.2C37.47 65.2 37.31 65.16 37.17 65.08L34.67 63.62C34.39 63.46 34.21 63.15 34.21 62.83V59.91C34.21 59.59 34.39 59.28 34.67 59.12L37.17 57.66C37.46 57.49 37.81 57.49 38.09 57.66L40.59 59.12C40.87 59.28 41.05 59.59 41.05 59.91V62.83C41.05 63.16 40.88 63.46 40.59 63.62L38.09 65.08C37.95 65.16 37.79 65.2 37.63 65.2ZM37.63 57.7C37.5 57.7 37.37 57.73 37.25 57.8L34.75 59.26C34.52 59.39 34.38 59.64 34.38 59.91V62.83C34.38 63.09 34.52 63.34 34.75 63.48L37.25 64.94C37.48 65.07 37.77 65.07 38 64.94L40.5 63.48C40.73 63.35 40.87 63.1 40.87 62.83V59.91C40.87 59.65 40.73 59.4 40.5 59.26L38 57.8C37.88 57.73 37.75 57.7 37.62 57.7" fill="#D6D2D2"/>
<path d="M40.97 59.36C40.81 59.36 40.65 59.32 40.51 59.24L38.01 57.78C37.73 57.62 37.55 57.31 37.55 56.99V54.07C37.55 53.75 37.73 53.44 38.01 53.28L40.51 51.82C40.8 51.65 41.15 51.65 41.43 51.82L43.93 53.28C44.21 53.44 44.39 53.75 44.39 54.07V56.99C44.39 57.31 44.21 57.62 43.93 57.78L41.43 59.24C41.29 59.32 41.13 59.36 40.97 59.36ZM40.97 51.86C40.84 51.86 40.71 51.89 40.59 51.96L38.09 53.42C37.86 53.55 37.72 53.8 37.72 54.07V56.99C37.72 57.26 37.86 57.5 38.09 57.64L40.59 59.1C40.82 59.24 41.11 59.24 41.34 59.1L43.84 57.64C44.07 57.51 44.21 57.26 44.21 56.99V54.07C44.21 53.81 44.07 53.56 43.84 53.42L41.34 51.96C41.22 51.89 41.09 51.86 40.96 51.86" fill="#D6D2D2"/>
<path d="M47.64 59.36C47.48 59.36 47.32 59.32 47.18 59.24L44.68 57.78C44.4 57.62 44.22 57.31 44.22 56.99V54.07C44.22 53.74 44.4 53.44 44.68 53.28L47.18 51.82C47.47 51.65 47.82 51.65 48.1 51.82L50.6 53.28C50.88 53.44 51.06 53.75 51.06 54.07V56.99C51.06 57.32 50.88 57.62 50.6 57.78L48.1 59.24C47.96 59.32 47.8 59.36 47.64 59.36ZM47.64 51.86C47.51 51.86 47.38 51.89 47.26 51.96L44.76 53.42C44.53 53.55 44.39 53.8 44.39 54.07V56.99C44.39 57.26 44.53 57.5 44.76 57.64L47.26 59.1C47.49 59.24 47.78 59.24 48.01 59.1L50.51 57.64C50.74 57.51 50.88 57.26 50.88 56.99V54.07C50.88 53.8 50.74 53.56 50.51 53.42L48.01 51.96C47.89 51.89 47.76 51.86 47.63 51.86" fill="#D6D2D2"/>
<path d="M40.97 47.69C40.81 47.69 40.65 47.65 40.51 47.57L38.01 46.11C37.73 45.95 37.55 45.64 37.55 45.32V42.4C37.55 42.08 37.73 41.77 38.01 41.61L40.51 40.15C40.8 39.98 41.15 39.98 41.43 40.15L43.93 41.61C44.21 41.77 44.39 42.08 44.39 42.4V45.32C44.39 45.65 44.22 45.95 43.93 46.11L41.43 47.57C41.29 47.65 41.13 47.69 40.97 47.69ZM40.97 40.19C40.84 40.19 40.71 40.22 40.59 40.29L38.09 41.75C37.86 41.88 37.72 42.13 37.72 42.4V45.32C37.72 45.59 37.86 45.83 38.09 45.97L40.59 47.43C40.82 47.56 41.11 47.56 41.34 47.43L43.84 45.97C44.07 45.84 44.21 45.59 44.21 45.32V42.4C44.21 42.14 44.07 41.89 43.84 41.75L41.34 40.29C41.22 40.22 41.09 40.19 40.96 40.19" fill="#D6D2D2"/>
<path d="M44.3 41.85C44.14 41.85 43.98 41.81 43.84 41.73L41.34 40.27C41.06 40.11 40.88 39.8 40.88 39.48V36.56C40.88 36.23 41.05 35.93 41.34 35.77L43.84 34.31C44.13 34.14 44.48 34.14 44.76 34.31L47.26 35.77C47.54 35.93 47.72 36.24 47.72 36.56V39.48C47.72 39.81 47.54 40.11 47.26 40.27L44.76 41.73C44.62 41.81 44.46 41.85 44.3 41.85ZM44.3 34.35C44.17 34.35 44.04 34.38 43.92 34.45L41.42 35.91C41.19 36.04 41.05 36.29 41.05 36.56V39.48C41.05 39.75 41.19 39.99 41.42 40.13L43.92 41.59C44.15 41.73 44.44 41.73 44.67 41.59L47.17 40.13C47.4 40 47.54 39.75 47.54 39.48V36.56C47.54 36.29 47.4 36.05 47.17 35.91L44.67 34.45C44.55 34.38 44.42 34.35 44.29 34.35" fill="#D6D2D2"/>
<path d="M44.3 53.52C44.14 53.52 43.98 53.48 43.84 53.4L41.34 51.94C41.06 51.78 40.88 51.47 40.88 51.15V48.23C40.88 47.9 41.06 47.6 41.34 47.44L43.84 45.98C44.13 45.81 44.48 45.81 44.76 45.98L47.26 47.44C47.54 47.6 47.72 47.91 47.72 48.23V51.15C47.72 51.48 47.54 51.78 47.26 51.94L44.76 53.4C44.62 53.48 44.46 53.52 44.3 53.52ZM44.3 46.02C44.17 46.02 44.04 46.05 43.92 46.12L41.42 47.58C41.19 47.71 41.05 47.96 41.05 48.23V51.15C41.05 51.42 41.19 51.66 41.42 51.8L43.92 53.26C44.15 53.4 44.44 53.4 44.67 53.26L47.17 51.8C47.4 51.67 47.54 51.42 47.54 51.15V48.23C47.54 47.97 47.4 47.72 47.17 47.58L44.67 46.12C44.55 46.05 44.42 46.02 44.29 46.02" fill="#D6D2D2"/>
<path d="M47.64 47.69C47.48 47.69 47.32 47.65 47.18 47.57L44.68 46.11C44.4 45.95 44.22 45.64 44.22 45.32V42.4C44.22 42.08 44.4 41.77 44.68 41.61L47.18 40.15C47.47 39.98 47.82 39.98 48.1 40.15L50.6 41.61C50.88 41.77 51.06 42.08 51.06 42.4V45.32C51.06 45.64 50.88 45.95 50.6 46.11L48.1 47.57C47.96 47.65 47.8 47.69 47.64 47.69ZM47.64 40.19C47.51 40.19 47.38 40.22 47.26 40.29L44.76 41.75C44.53 41.88 44.39 42.13 44.39 42.4V45.32C44.39 45.59 44.53 45.83 44.76 45.97L47.26 47.43C47.49 47.57 47.78 47.57 48.01 47.43L50.51 45.97C50.74 45.84 50.88 45.59 50.88 45.32V42.4C50.88 42.14 50.74 41.89 50.51 41.75L48.01 40.29C47.89 40.22 47.76 40.19 47.63 40.19" fill="#D6D2D2"/>
<path d="M30.96 41.85C30.8 41.85 30.64 41.81 30.5 41.73L28 40.27C27.72 40.11 27.54 39.8 27.54 39.48V36.56C27.54 36.23 27.72 35.93 28 35.77L30.5 34.31C30.79 34.14 31.14 34.14 31.42 34.31L33.92 35.77C34.2 35.93 34.38 36.24 34.38 36.56V39.48C34.38 39.8 34.2 40.11 33.92 40.27L31.42 41.73C31.28 41.81 31.12 41.85 30.96 41.85ZM30.96 34.35C30.83 34.35 30.7 34.38 30.58 34.45L28.08 35.91C27.85 36.04 27.71 36.29 27.71 36.56V39.48C27.71 39.74 27.85 39.99 28.08 40.13L30.58 41.59C30.81 41.73 31.1 41.73 31.33 41.59L33.83 40.13C34.06 40 34.2 39.75 34.2 39.48V36.56C34.2 36.29 34.06 36.05 33.83 35.91L31.33 34.45C31.21 34.38 31.08 34.35 30.95 34.35" fill="#D6D2D2"/>
<path d="M34.3 36.01C34.14 36.01 33.98 35.97 33.84 35.89L31.34 34.43C31.06 34.26 30.88 33.96 30.88 33.64V30.72C30.88 30.39 31.06 30.09 31.34 29.93L33.84 28.47C34.13 28.3 34.48 28.3 34.76 28.47L37.26 29.93C37.54 30.09 37.72 30.4 37.72 30.72V33.64C37.72 33.97 37.54 34.27 37.26 34.43L34.76 35.89C34.62 35.97 34.46 36.01 34.3 36.01ZM34.3 28.51C34.17 28.51 34.04 28.54 33.92 28.61L31.42 30.07C31.19 30.2 31.05 30.45 31.05 30.72V33.64C31.05 33.91 31.19 34.15 31.42 34.29L33.92 35.75C34.15 35.89 34.44 35.89 34.67 35.75L37.17 34.29C37.4 34.16 37.54 33.91 37.54 33.64V30.72C37.54 30.45 37.4 30.21 37.17 30.07L34.67 28.61C34.55 28.54 34.42 28.51 34.29 28.51" fill="#D6D2D2"/>
<path d="M34.3 47.69C34.14 47.69 33.98 47.65 33.84 47.57L31.34 46.11C31.06 45.95 30.88 45.64 30.88 45.32V42.4C30.88 42.08 31.06 41.77 31.34 41.61L33.84 40.15C34.13 39.98 34.48 39.98 34.76 40.15L37.26 41.61C37.54 41.77 37.72 42.08 37.72 42.4V45.32C37.72 45.65 37.54 45.95 37.26 46.11L34.76 47.57C34.62 47.65 34.46 47.69 34.3 47.69ZM34.3 40.19C34.17 40.19 34.04 40.22 33.92 40.29L31.42 41.75C31.19 41.88 31.05 42.13 31.05 42.4V45.32C31.05 45.59 31.19 45.83 31.42 45.97L33.92 47.43C34.15 47.56 34.44 47.56 34.67 47.43L37.17 45.97C37.4 45.84 37.54 45.59 37.54 45.32V42.4C37.54 42.14 37.4 41.89 37.17 41.75L34.67 40.29C34.55 40.22 34.42 40.19 34.29 40.19" fill="#D6D2D2"/>
<path d="M37.63 41.85C37.47 41.85 37.31 41.81 37.17 41.73L34.67 40.27C34.39 40.11 34.21 39.8 34.21 39.48V36.56C34.21 36.23 34.39 35.93 34.67 35.77L37.17 34.31C37.45 34.14 37.81 34.14 38.09 34.31L40.59 35.77C40.87 35.93 41.05 36.24 41.05 36.56V39.48C41.05 39.81 40.88 40.11 40.59 40.27L38.09 41.73C37.95 41.81 37.79 41.85 37.63 41.85ZM37.63 34.35C37.5 34.35 37.37 34.38 37.25 34.45L34.75 35.91C34.52 36.04 34.38 36.29 34.38 36.56V39.48C34.38 39.75 34.52 39.99 34.75 40.13L37.25 41.59C37.48 41.73 37.77 41.73 38 41.59L40.5 40.13C40.73 40 40.87 39.75 40.87 39.48V36.56C40.87 36.29 40.73 36.05 40.5 35.91L38 34.45C37.88 34.38 37.75 34.35 37.62 34.35" fill="#D6D2D2"/>
<path d="M24.29 53.52C24.13 53.52 23.97 53.48 23.83 53.4L21.33 51.94C21.05 51.78 20.87 51.47 20.87 51.15V48.23C20.87 47.91 21.05 47.6 21.33 47.44L23.83 45.98C24.12 45.81 24.47 45.81 24.75 45.98L27.25 47.44C27.53 47.6 27.71 47.91 27.71 48.23V51.15C27.71 51.47 27.53 51.78 27.25 51.94L24.75 53.4C24.61 53.48 24.45 53.52 24.29 53.52ZM24.29 46.02C24.16 46.02 24.03 46.05 23.91 46.12L21.41 47.58C21.18 47.71 21.04 47.96 21.04 48.23V51.15C21.04 51.42 21.18 51.66 21.41 51.8L23.91 53.26C24.14 53.4 24.43 53.4 24.66 53.26L27.16 51.8C27.39 51.67 27.53 51.42 27.53 51.15V48.23C27.53 47.97 27.39 47.72 27.16 47.58L24.66 46.12C24.54 46.05 24.41 46.02 24.28 46.02" fill="#D6D2D2"/>
<path d="M27.63 47.69C27.47 47.69 27.31 47.65 27.17 47.57L24.67 46.11C24.39 45.95 24.21 45.64 24.21 45.32V42.4C24.21 42.08 24.39 41.77 24.67 41.61L27.17 40.15C27.46 39.98 27.81 39.98 28.09 40.15L30.59 41.61C30.87 41.77 31.05 42.08 31.05 42.4V45.32C31.05 45.64 30.87 45.95 30.59 46.11L28.09 47.57C27.95 47.65 27.79 47.69 27.63 47.69ZM27.63 40.19C27.5 40.19 27.37 40.22 27.25 40.29L24.75 41.75C24.52 41.88 24.38 42.13 24.38 42.4V45.32C24.38 45.59 24.52 45.83 24.75 45.97L27.25 47.43C27.48 47.56 27.77 47.56 28 47.43L30.5 45.97C30.73 45.84 30.87 45.59 30.87 45.32V42.4C30.87 42.14 30.73 41.89 30.5 41.75L28 40.29C27.88 40.22 27.75 40.19 27.62 40.19" fill="#D6D2D2"/>
<path d="M27.63 59.36C27.47 59.36 27.31 59.32 27.17 59.24L24.67 57.78C24.39 57.62 24.21 57.31 24.21 56.99V54.07C24.21 53.75 24.39 53.44 24.67 53.28L27.17 51.82C27.46 51.65 27.81 51.65 28.09 51.82L30.59 53.28C30.87 53.44 31.05 53.75 31.05 54.07V56.99C31.05 57.31 30.87 57.62 30.59 57.78L28.09 59.24C27.95 59.32 27.79 59.36 27.63 59.36ZM27.63 51.86C27.5 51.86 27.37 51.89 27.25 51.96L24.75 53.42C24.52 53.55 24.38 53.8 24.38 54.07V56.99C24.38 57.26 24.52 57.5 24.75 57.64L27.25 59.1C27.48 59.24 27.77 59.24 28 59.1L30.5 57.64C30.73 57.51 30.87 57.26 30.87 56.99V54.07C30.87 53.81 30.73 53.56 30.5 53.42L28 51.96C27.88 51.89 27.75 51.86 27.62 51.86" fill="#D6D2D2"/>
<path d="M30.96 53.52C30.8 53.52 30.64 53.48 30.5 53.4L28 51.94C27.72 51.78 27.54 51.47 27.54 51.15V48.23C27.54 47.9 27.72 47.6 28 47.44L30.5 45.98C30.79 45.81 31.14 45.81 31.42 45.98L33.92 47.44C34.2 47.6 34.38 47.91 34.38 48.23V51.15C34.38 51.47 34.2 51.78 33.92 51.94L31.42 53.4C31.28 53.48 31.12 53.52 30.96 53.52ZM30.96 46.02C30.83 46.02 30.7 46.05 30.58 46.12L28.08 47.58C27.85 47.71 27.71 47.96 27.71 48.23V51.15C27.71 51.42 27.85 51.66 28.08 51.8L30.58 53.26C30.81 53.39 31.1 53.39 31.33 53.26L33.83 51.8C34.06 51.67 34.2 51.42 34.2 51.15V48.23C34.2 47.97 34.06 47.72 33.83 47.58L31.33 46.12C31.21 46.05 31.08 46.02 30.95 46.02" fill="#D6D2D2"/>
<path d="M60.98 59.36C60.82 59.36 60.66 59.32 60.52 59.24L58.02 57.78C57.74 57.62 57.56 57.31 57.56 56.99V54.07C57.56 53.75 57.73 53.44 58.02 53.28L60.52 51.82C60.81 51.65 61.16 51.65 61.44 51.82L63.94 53.28C64.22 53.44 64.4 53.75 64.4 54.07V56.99C64.4 57.32 64.23 57.62 63.94 57.78L61.44 59.24C61.3 59.32 61.14 59.36 60.98 59.36ZM60.98 51.86C60.85 51.86 60.72 51.89 60.6 51.96L58.1 53.42C57.87 53.55 57.73 53.8 57.73 54.07V56.99C57.73 57.26 57.87 57.5 58.1 57.64L60.6 59.1C60.83 59.23 61.12 59.23 61.35 59.1L63.85 57.64C64.08 57.51 64.22 57.26 64.22 56.99V54.07C64.22 53.81 64.08 53.56 63.85 53.42L61.35 51.96C61.23 51.89 61.1 51.86 60.97 51.86" fill="#D6D2D2"/>
<path d="M64.31 53.52C64.15 53.52 63.99 53.48 63.85 53.4L61.35 51.94C61.07 51.78 60.89 51.47 60.89 51.15V48.23C60.89 47.9 61.06 47.6 61.35 47.44L63.85 45.98C64.14 45.81 64.49 45.81 64.77 45.98L67.27 47.44C67.55 47.6 67.73 47.91 67.73 48.23V51.15C67.73 51.47 67.55 51.78 67.27 51.94L64.77 53.4C64.63 53.48 64.47 53.52 64.31 53.52ZM64.31 46.02C64.18 46.02 64.05 46.05 63.93 46.12L61.43 47.58C61.2 47.71 61.06 47.96 61.06 48.23V51.15C61.06 51.42 61.2 51.66 61.43 51.8L63.93 53.26C64.16 53.4 64.45 53.4 64.68 53.26L67.18 51.8C67.41 51.67 67.55 51.42 67.55 51.15V48.23C67.55 47.97 67.41 47.72 67.18 47.58L64.68 46.12C64.56 46.05 64.43 46.02 64.3 46.02" fill="#D6D2D2"/>
<path d="M64.31 65.2C64.15 65.2 63.99 65.16 63.85 65.08L61.35 63.62C61.07 63.46 60.89 63.15 60.89 62.83V59.91C60.89 59.59 61.07 59.28 61.35 59.12L63.85 57.66C64.14 57.49 64.49 57.49 64.77 57.66L67.27 59.12C67.55 59.28 67.73 59.59 67.73 59.91V62.83C67.73 63.16 67.55 63.46 67.27 63.62L64.77 65.08C64.63 65.16 64.47 65.2 64.31 65.2ZM64.31 57.7C64.18 57.7 64.05 57.73 63.93 57.8L61.43 59.26C61.2 59.39 61.06 59.64 61.06 59.91V62.83C61.06 63.09 61.2 63.34 61.43 63.48L63.93 64.94C64.16 65.07 64.45 65.07 64.68 64.94L67.18 63.48C67.41 63.35 67.55 63.1 67.55 62.83V59.91C67.55 59.65 67.41 59.4 67.18 59.26L64.68 57.8C64.56 57.73 64.43 57.7 64.3 57.7" fill="#D6D2D2"/>
<path d="M67.65 59.36C67.49 59.36 67.33 59.32 67.19 59.24L64.69 57.78C64.41 57.62 64.23 57.31 64.23 56.99V54.07C64.23 53.74 64.41 53.44 64.69 53.28L67.19 51.82C67.48 51.65 67.83 51.65 68.11 51.82L70.61 53.28C70.89 53.44 71.07 53.75 71.07 54.07V56.99C71.07 57.32 70.9 57.62 70.61 57.78L68.11 59.24C67.97 59.32 67.81 59.36 67.65 59.36ZM67.65 51.86C67.52 51.86 67.39 51.89 67.27 51.96L64.77 53.42C64.54 53.55 64.4 53.8 64.4 54.07V56.99C64.4 57.26 64.54 57.5 64.77 57.64L67.27 59.1C67.5 59.24 67.79 59.24 68.02 59.1L70.52 57.64C70.75 57.51 70.89 57.26 70.89 56.99V54.07C70.89 53.8 70.75 53.56 70.52 53.42L68.02 51.96C67.9 51.89 67.77 51.86 67.64 51.86" fill="#D6D2D2"/>
<path d="M70.98 65.2C70.82 65.2 70.66 65.16 70.52 65.08L68.02 63.62C67.74 63.46 67.56 63.15 67.56 62.83V59.91C67.56 59.59 67.74 59.28 68.02 59.12L70.52 57.66C70.81 57.49 71.16 57.49 71.44 57.66L73.94 59.12C74.22 59.28 74.4 59.59 74.4 59.91V62.83C74.4 63.16 74.22 63.46 73.94 63.62L71.44 65.08C71.3 65.16 71.14 65.2 70.98 65.2ZM70.98 57.7C70.85 57.7 70.72 57.73 70.6 57.8L68.1 59.26C67.87 59.39 67.73 59.64 67.73 59.91V62.83C67.73 63.09 67.87 63.34 68.1 63.48L70.6 64.94C70.83 65.07 71.12 65.07 71.35 64.94L73.85 63.48C74.08 63.35 74.22 63.1 74.22 62.83V59.91C74.22 59.65 74.08 59.4 73.85 59.26L71.35 57.8C71.23 57.73 71.1 57.7 70.97 57.7" fill="#D6D2D2"/>
<path d="M74.32 59.36C74.16 59.36 74 59.32 73.86 59.24L71.36 57.78C71.08 57.62 70.9 57.31 70.9 56.99V54.07C70.9 53.74 71.08 53.44 71.36 53.28L73.86 51.82C74.15 51.65 74.5 51.65 74.78 51.82L77.28 53.28C77.56 53.44 77.74 53.75 77.74 54.07V56.99C77.74 57.32 77.57 57.62 77.28 57.78L74.78 59.24C74.64 59.32 74.48 59.36 74.32 59.36ZM74.32 51.86C74.19 51.86 74.06 51.89 73.94 51.96L71.44 53.42C71.21 53.55 71.07 53.8 71.07 54.07V56.99C71.07 57.26 71.21 57.5 71.44 57.64L73.94 59.1C74.17 59.24 74.46 59.24 74.69 59.1L77.19 57.64C77.42 57.51 77.56 57.26 77.56 56.99V54.07C77.56 53.8 77.42 53.56 77.19 53.42L74.69 51.96C74.57 51.89 74.44 51.86 74.31 51.86" fill="#D6D2D2"/>
<path d="M74.32 71.03C74.16 71.03 74 70.99 73.86 70.91L71.36 69.45C71.08 69.29 70.9 68.98 70.9 68.66V65.74C70.9 65.41 71.08 65.11 71.36 64.95L73.86 63.49C74.15 63.32 74.5 63.32 74.78 63.49L77.28 64.95C77.56 65.11 77.74 65.42 77.74 65.74V68.66C77.74 68.99 77.56 69.29 77.28 69.45L74.78 70.91C74.64 70.99 74.48 71.03 74.32 71.03ZM74.32 63.53C74.19 63.53 74.06 63.56 73.94 63.63L71.44 65.09C71.21 65.22 71.07 65.47 71.07 65.74V68.66C71.07 68.93 71.21 69.17 71.44 69.31L73.94 70.77C74.17 70.9 74.46 70.9 74.69 70.77L77.19 69.31C77.42 69.18 77.56 68.93 77.56 68.66V65.74C77.56 65.48 77.42 65.23 77.19 65.09L74.69 63.63C74.57 63.56 74.44 63.53 74.31 63.53" fill="#D6D2D2"/>
<path d="M77.65 65.2C77.49 65.2 77.33 65.16 77.19 65.08L74.69 63.62C74.41 63.46 74.23 63.15 74.23 62.83V59.91C74.23 59.59 74.41 59.28 74.69 59.12L77.19 57.66C77.48 57.49 77.83 57.49 78.11 57.66L80.61 59.12C80.89 59.28 81.07 59.59 81.07 59.91V62.83C81.07 63.15 80.89 63.46 80.61 63.62L78.11 65.08C77.97 65.16 77.81 65.2 77.65 65.2ZM77.65 57.7C77.52 57.7 77.39 57.73 77.27 57.8L74.77 59.26C74.54 59.39 74.4 59.64 74.4 59.91V62.83C74.4 63.09 74.54 63.34 74.77 63.48L77.27 64.94C77.5 65.07 77.79 65.07 78.02 64.94L80.52 63.48C80.75 63.35 80.89 63.1 80.89 62.83V59.91C80.89 59.65 80.75 59.4 80.52 59.26L78.02 57.8C77.9 57.73 77.77 57.7 77.64 57.7" fill="#D6D2D2"/>
<path d="M67.65 47.69C67.49 47.69 67.33 47.65 67.19 47.57L64.69 46.11C64.41 45.95 64.23 45.64 64.23 45.32V42.4C64.23 42.08 64.41 41.77 64.69 41.61L67.19 40.15C67.48 39.98 67.83 39.98 68.11 40.15L70.61 41.61C70.89 41.77 71.07 42.08 71.07 42.4V45.32C71.07 45.64 70.9 45.95 70.61 46.11L68.11 47.57C67.97 47.65 67.81 47.69 67.65 47.69ZM67.65 40.19C67.52 40.19 67.39 40.22 67.27 40.29L64.77 41.75C64.54 41.88 64.4 42.13 64.4 42.4V45.32C64.4 45.59 64.54 45.83 64.77 45.97L67.27 47.43C67.5 47.56 67.79 47.56 68.02 47.43L70.52 45.97C70.75 45.84 70.89 45.59 70.89 45.32V42.4C70.89 42.14 70.75 41.89 70.52 41.75L68.02 40.29C67.9 40.22 67.77 40.19 67.64 40.19" fill="#D6D2D2"/>
<path d="M70.98 41.85C70.82 41.85 70.66 41.81 70.52 41.73L68.02 40.27C67.74 40.11 67.56 39.8 67.56 39.48V36.56C67.56 36.23 67.73 35.93 68.02 35.77L70.52 34.31C70.81 34.14 71.16 34.14 71.44 34.31L73.94 35.77C74.22 35.93 74.4 36.24 74.4 36.56V39.48C74.4 39.81 74.22 40.11 73.94 40.27L71.44 41.73C71.3 41.81 71.14 41.85 70.98 41.85ZM70.98 34.35C70.85 34.35 70.72 34.38 70.6 34.45L68.1 35.91C67.87 36.04 67.73 36.29 67.73 36.56V39.48C67.73 39.75 67.87 39.99 68.1 40.13L70.6 41.59C70.83 41.73 71.12 41.73 71.35 41.59L73.85 40.13C74.08 40 74.22 39.75 74.22 39.48V36.56C74.22 36.29 74.08 36.05 73.85 35.91L71.35 34.45C71.23 34.38 71.1 34.35 70.97 34.35" fill="#D6D2D2"/>
<path d="M70.98 53.52C70.82 53.52 70.66 53.48 70.52 53.4L68.02 51.94C67.74 51.78 67.56 51.47 67.56 51.15V48.23C67.56 47.9 67.74 47.6 68.02 47.44L70.52 45.98C70.81 45.81 71.16 45.81 71.44 45.98L73.94 47.44C74.22 47.6 74.4 47.91 74.4 48.23V51.15C74.4 51.48 74.22 51.78 73.94 51.94L71.44 53.4C71.3 53.48 71.14 53.52 70.98 53.52ZM70.98 46.02C70.85 46.02 70.72 46.05 70.6 46.12L68.1 47.58C67.87 47.71 67.73 47.96 67.73 48.23V51.15C67.73 51.42 67.87 51.66 68.1 51.8L70.6 53.26C70.83 53.4 71.12 53.4 71.35 53.26L73.85 51.8C74.08 51.67 74.22 51.42 74.22 51.15V48.23C74.22 47.97 74.08 47.72 73.85 47.58L71.35 46.12C71.23 46.05 71.1 46.02 70.97 46.02" fill="#D6D2D2"/>
<path d="M74.32 47.69C74.16 47.69 74 47.65 73.86 47.57L71.36 46.11C71.08 45.95 70.9 45.64 70.9 45.32V42.4C70.9 42.08 71.08 41.77 71.36 41.61L73.86 40.15C74.15 39.98 74.5 39.98 74.78 40.15L77.28 41.61C77.56 41.77 77.74 42.08 77.74 42.4V45.32C77.74 45.64 77.56 45.95 77.28 46.11L74.78 47.57C74.64 47.65 74.48 47.69 74.32 47.69ZM74.32 40.19C74.19 40.19 74.06 40.22 73.94 40.29L71.44 41.75C71.21 41.88 71.07 42.13 71.07 42.4V45.32C71.07 45.59 71.21 45.83 71.44 45.97L73.94 47.43C74.17 47.56 74.46 47.56 74.69 47.43L77.19 45.97C77.42 45.84 77.56 45.59 77.56 45.32V42.4C77.56 42.14 77.42 41.89 77.19 41.75L74.69 40.29C74.57 40.22 74.44 40.19 74.31 40.19" fill="#D6D2D2"/>
<path d="M57.64 41.85C57.48 41.85 57.32 41.81 57.18 41.73L54.68 40.27C54.4 40.11 54.22 39.8 54.22 39.48V36.56C54.22 36.23 54.4 35.93 54.68 35.77L57.18 34.31C57.47 34.14 57.82 34.14 58.1 34.31L60.6 35.77C60.88 35.93 61.06 36.24 61.06 36.56V39.48C61.06 39.8 60.88 40.11 60.6 40.27L58.1 41.73C57.96 41.81 57.8 41.85 57.64 41.85ZM57.64 34.35C57.51 34.35 57.38 34.38 57.26 34.45L54.76 35.91C54.53 36.04 54.39 36.29 54.39 36.56V39.48C54.39 39.74 54.53 39.99 54.76 40.13L57.26 41.59C57.49 41.73 57.78 41.73 58.01 41.59L60.51 40.13C60.74 40 60.88 39.75 60.88 39.48V36.56C60.88 36.29 60.74 36.05 60.51 35.91L58.01 34.45C57.89 34.38 57.76 34.35 57.63 34.35" fill="#D6D2D2"/>
<path d="M60.98 36.01C60.82 36.01 60.66 35.97 60.52 35.89L58.02 34.43C57.74 34.27 57.56 33.96 57.56 33.64V30.72C57.56 30.39 57.73 30.09 58.02 29.93L60.52 28.47C60.81 28.3 61.16 28.3 61.44 28.47L63.94 29.93C64.22 30.09 64.4 30.4 64.4 30.72V33.64C64.4 33.97 64.22 34.27 63.94 34.43L61.44 35.89C61.3 35.97 61.14 36.01 60.98 36.01ZM60.98 28.51C60.85 28.51 60.72 28.54 60.6 28.61L58.1 30.07C57.87 30.2 57.73 30.45 57.73 30.72V33.64C57.73 33.91 57.87 34.15 58.1 34.29L60.6 35.75C60.83 35.88 61.12 35.88 61.35 35.75L63.85 34.29C64.08 34.16 64.22 33.91 64.22 33.64V30.72C64.22 30.45 64.08 30.21 63.85 30.07L61.35 28.61C61.23 28.54 61.1 28.51 60.97 28.51" fill="#D6D2D2"/>
<path d="M60.98 47.69C60.82 47.69 60.66 47.65 60.52 47.57L58.02 46.11C57.74 45.95 57.56 45.64 57.56 45.32V42.4C57.56 42.08 57.73 41.77 58.02 41.61L60.52 40.15C60.81 39.98 61.16 39.98 61.44 40.15L63.94 41.61C64.22 41.77 64.4 42.08 64.4 42.4V45.32C64.4 45.64 64.23 45.95 63.94 46.11L61.44 47.57C61.3 47.65 61.14 47.69 60.98 47.69ZM60.98 40.19C60.85 40.19 60.72 40.22 60.6 40.29L58.1 41.75C57.87 41.88 57.73 42.13 57.73 42.4V45.32C57.73 45.59 57.87 45.83 58.1 45.97L60.6 47.43C60.83 47.56 61.12 47.56 61.35 47.43L63.85 45.97C64.08 45.84 64.22 45.59 64.22 45.32V42.4C64.22 42.14 64.08 41.89 63.85 41.75L61.35 40.29C61.23 40.22 61.1 40.19 60.97 40.19" fill="#D6D2D2"/>
<path d="M64.31 41.85C64.15 41.85 63.99 41.81 63.85 41.73L61.35 40.27C61.07 40.11 60.89 39.8 60.89 39.48V36.56C60.89 36.23 61.06 35.93 61.35 35.77L63.85 34.31C64.14 34.14 64.49 34.14 64.77 34.31L67.27 35.77C67.55 35.93 67.73 36.24 67.73 36.56V39.48C67.73 39.8 67.55 40.11 67.27 40.27L64.77 41.73C64.63 41.81 64.47 41.85 64.31 41.85ZM64.31 34.35C64.18 34.35 64.05 34.38 63.93 34.45L61.43 35.91C61.2 36.04 61.06 36.29 61.06 36.56V39.48C61.06 39.75 61.2 39.99 61.43 40.13L63.93 41.59C64.16 41.73 64.45 41.73 64.68 41.59L67.18 40.13C67.41 40 67.55 39.75 67.55 39.48V36.56C67.55 36.29 67.41 36.05 67.18 35.91L64.68 34.45C64.56 34.38 64.43 34.35 64.3 34.35" fill="#D6D2D2"/>
<path d="M50.97 53.52C50.81 53.52 50.65 53.48 50.51 53.4L48.01 51.94C47.73 51.78 47.55 51.47 47.55 51.15V48.23C47.55 47.91 47.73 47.6 48.01 47.44L50.51 45.98C50.8 45.81 51.1501 45.81 51.4301 45.98L53.9301 47.44C54.2101 47.6 54.39 47.91 54.39 48.23V51.15C54.39 51.47 54.2101 51.78 53.9301 51.94L51.4301 53.4C51.2901 53.48 51.13 53.52 50.97 53.52ZM50.97 46.02C50.84 46.02 50.71 46.05 50.59 46.12L48.09 47.58C47.86 47.71 47.72 47.96 47.72 48.23V51.15C47.72 51.42 47.86 51.66 48.09 51.8L50.59 53.26C50.82 53.4 51.11 53.4 51.34 53.26L53.84 51.8C54.07 51.67 54.2101 51.42 54.2101 51.15V48.23C54.2101 47.97 54.07 47.72 53.84 47.58L51.34 46.12C51.22 46.05 51.0901 46.02 50.9601 46.02" fill="#D6D2D2"/>
<path d="M54.31 47.69C54.15 47.69 53.99 47.65 53.85 47.57L51.35 46.11C51.07 45.95 50.89 45.64 50.89 45.32V42.4C50.89 42.07 51.07 41.77 51.35 41.61L53.85 40.15C54.14 39.98 54.49 39.98 54.77 40.15L57.27 41.61C57.55 41.77 57.73 42.08 57.73 42.4V45.32C57.73 45.64 57.56 45.95 57.27 46.11L54.77 47.57C54.63 47.65 54.47 47.69 54.31 47.69ZM54.31 40.19C54.18 40.19 54.05 40.22 53.93 40.29L51.43 41.75C51.2 41.88 51.06 42.13 51.06 42.4V45.32C51.06 45.59 51.2 45.83 51.43 45.97L53.93 47.43C54.16 47.57 54.45 47.57 54.68 47.43L57.18 45.97C57.41 45.84 57.55 45.59 57.55 45.32V42.4C57.55 42.13 57.41 41.89 57.18 41.75L54.68 40.29C54.56 40.22 54.43 40.19 54.3 40.19" fill="#D6D2D2"/>
<path d="M54.31 59.36C54.15 59.36 53.99 59.32 53.85 59.24L51.35 57.78C51.07 57.62 50.89 57.31 50.89 56.99V54.07C50.89 53.75 51.07 53.44 51.35 53.28L53.85 51.82C54.14 51.65 54.49 51.65 54.77 51.82L57.27 53.28C57.55 53.44 57.73 53.75 57.73 54.07V56.99C57.73 57.32 57.55 57.62 57.27 57.78L54.77 59.24C54.63 59.32 54.47 59.36 54.31 59.36ZM54.31 51.86C54.18 51.86 54.05 51.89 53.93 51.96L51.43 53.42C51.2 53.55 51.06 53.8 51.06 54.07V56.99C51.06 57.26 51.2 57.5 51.43 57.64L53.93 59.1C54.16 59.24 54.45 59.24 54.68 59.1L57.18 57.64C57.41 57.51 57.55 57.26 57.55 56.99V54.07C57.55 53.81 57.41 53.56 57.18 53.42L54.68 51.96C54.56 51.89 54.43 51.86 54.3 51.86" fill="#D6D2D2"/>
<path d="M57.64 53.52C57.48 53.52 57.32 53.48 57.18 53.4L54.68 51.94C54.4 51.78 54.22 51.47 54.22 51.15V48.23C54.22 47.9 54.4 47.6 54.68 47.44L57.18 45.98C57.47 45.81 57.82 45.81 58.1 45.98L60.6 47.44C60.88 47.6 61.06 47.91 61.06 48.23V51.15C61.06 51.47 60.89 51.78 60.6 51.94L58.1 53.4C57.96 53.48 57.8 53.52 57.64 53.52ZM57.64 46.02C57.51 46.02 57.38 46.05 57.26 46.12L54.76 47.58C54.53 47.71 54.39 47.96 54.39 48.23V51.15C54.39 51.42 54.53 51.66 54.76 51.8L57.26 53.26C57.49 53.4 57.78 53.4 58.01 53.26L60.51 51.8C60.74 51.67 60.88 51.42 60.88 51.15V48.23C60.88 47.97 60.74 47.72 60.51 47.58L58.01 46.12C57.89 46.05 57.76 46.02 57.63 46.02" fill="#D6D2D2"/>
<path d="M64.18 30.15C64.02 30.15 63.86 30.11 63.72 30.03L61.22 28.57C60.94 28.4 60.76 28.1 60.76 27.78V24.86C60.76 24.53 60.94 24.23 61.22 24.07L63.72 22.61C64.01 22.44 64.36 22.44 64.64 22.61L67.14 24.07C67.42 24.23 67.6 24.54 67.6 24.86V27.78C67.6 28.11 67.42 28.41 67.14 28.57L64.64 30.03C64.5 30.11 64.34 30.15 64.18 30.15ZM64.18 22.65C64.05 22.65 63.92 22.68 63.8 22.75L61.3 24.21C61.07 24.34 60.93 24.59 60.93 24.86V27.78C60.93 28.05 61.07 28.29 61.3 28.43L63.8 29.89C64.03 30.03 64.32 30.03 64.55 29.89L67.05 28.43C67.28 28.3 67.42 28.05 67.42 27.78V24.86C67.42 24.59 67.28 24.35 67.05 24.21L64.55 22.75C64.43 22.68 64.3 22.65 64.17 22.65" fill="#D6D2D2"/>
<path d="M67.51 24.31C67.35 24.31 67.19 24.27 67.05 24.19L64.55 22.73C64.27 22.56 64.09 22.26 64.09 21.94V19.02C64.09 18.69 64.27 18.39 64.55 18.23L67.05 16.77C67.34 16.6 67.69 16.6 67.97 16.77L70.47 18.23C70.75 18.39 70.93 18.7 70.93 19.02V21.94C70.93 22.27 70.75 22.57 70.47 22.73L67.97 24.19C67.83 24.27 67.67 24.31 67.51 24.31ZM67.51 16.81C67.38 16.81 67.25 16.84 67.13 16.91L64.63 18.37C64.4 18.5 64.26 18.75 64.26 19.02V21.94C64.26 22.21 64.4 22.45 64.63 22.59L67.13 24.05C67.36 24.19 67.65 24.19 67.88 24.05L70.38 22.59C70.61 22.46 70.75 22.21 70.75 21.94V19.02C70.75 18.75 70.61 18.51 70.38 18.37L67.88 16.91C67.76 16.84 67.63 16.81 67.5 16.81" fill="#D6D2D2"/>
<path d="M67.51 35.98C67.35 35.98 67.19 35.94 67.05 35.86L64.55 34.4C64.27 34.24 64.09 33.93 64.09 33.61V30.69C64.09 30.36 64.27 30.06 64.55 29.9L67.05 28.44C67.34 28.27 67.69 28.27 67.97 28.44L70.47 29.9C70.75 30.06 70.93 30.37 70.93 30.69V33.61C70.93 33.94 70.76 34.24 70.47 34.4L67.97 35.86C67.83 35.94 67.67 35.98 67.51 35.98ZM67.51 28.48C67.38 28.48 67.25 28.51 67.13 28.58L64.63 30.04C64.4 30.17 64.26 30.42 64.26 30.69V33.61C64.26 33.88 64.4 34.12 64.63 34.26L67.13 35.72C67.36 35.85 67.65 35.85 67.88 35.72L70.38 34.26C70.61 34.13 70.75 33.88 70.75 33.61V30.69C70.75 30.42 70.61 30.18 70.38 30.04L67.88 28.58C67.76 28.51 67.63 28.48 67.5 28.48" fill="#D6D2D2"/>
<path d="M70.84 30.15C70.68 30.15 70.52 30.11 70.38 30.03L67.88 28.57C67.6 28.4 67.42 28.1 67.42 27.78V24.86C67.42 24.53 67.6 24.23 67.88 24.07L70.38 22.61C70.67 22.44 71.02 22.44 71.3 22.61L73.8 24.07C74.08 24.23 74.26 24.54 74.26 24.86V27.78C74.26 28.11 74.08 28.41 73.8 28.57L71.3 30.03C71.16 30.11 71 30.15 70.84 30.15ZM70.84 22.65C70.71 22.65 70.5801 22.68 70.4601 22.75L67.9601 24.21C67.7301 24.34 67.59 24.59 67.59 24.86V27.78C67.59 28.05 67.7301 28.29 67.9601 28.43L70.4601 29.89C70.6901 30.03 70.9801 30.03 71.2101 29.89L73.7101 28.43C73.9401 28.3 74.08 28.05 74.08 27.78V24.86C74.08 24.59 73.9401 24.35 73.7101 24.21L71.2101 22.75C71.0901 22.68 70.96 22.65 70.83 22.65" fill="#D6D2D2"/>
<path d="M74.18 35.98C74.02 35.98 73.86 35.94 73.72 35.86L71.22 34.4C70.94 34.23 70.76 33.93 70.76 33.61V30.69C70.76 30.36 70.94 30.06 71.22 29.9L73.72 28.44C74.01 28.27 74.36 28.27 74.64 28.44L77.14 29.9C77.42 30.06 77.6 30.37 77.6 30.69V33.61C77.6 33.94 77.42 34.24 77.14 34.4L74.64 35.86C74.5 35.94 74.34 35.98 74.18 35.98ZM74.18 28.48C74.05 28.48 73.92 28.51 73.8 28.58L71.3 30.04C71.07 30.17 70.93 30.42 70.93 30.69V33.61C70.93 33.88 71.07 34.12 71.3 34.26L73.8 35.72C74.03 35.86 74.32 35.86 74.55 35.72L77.05 34.26C77.28 34.13 77.42 33.88 77.42 33.61V30.69C77.42 30.42 77.28 30.18 77.05 30.04L74.55 28.58C74.43 28.51 74.3 28.48 74.17 28.48" fill="#D6D2D2"/>
<path d="M77.52 30.15C77.36 30.15 77.2 30.11 77.06 30.03L74.56 28.57C74.28 28.4 74.1 28.1 74.1 27.78V24.86C74.1 24.53 74.28 24.23 74.56 24.07L77.06 22.61C77.35 22.44 77.7 22.44 77.98 22.61L80.48 24.07C80.76 24.23 80.94 24.54 80.94 24.86V27.78C80.94 28.11 80.76 28.41 80.48 28.57L77.98 30.03C77.84 30.11 77.68 30.15 77.52 30.15ZM77.52 22.65C77.39 22.65 77.26 22.68 77.14 22.75L74.64 24.21C74.41 24.34 74.27 24.59 74.27 24.86V27.78C74.27 28.05 74.41 28.29 74.64 28.43L77.14 29.89C77.37 30.03 77.66 30.03 77.89 29.89L80.39 28.43C80.62 28.3 80.76 28.05 80.76 27.78V24.86C80.76 24.59 80.62 24.35 80.39 24.21L77.89 22.75C77.77 22.68 77.64 22.65 77.51 22.65" fill="#D6D2D2"/>
<path d="M77.51 41.82C77.35 41.82 77.19 41.78 77.05 41.7L74.55 40.24C74.27 40.08 74.09 39.77 74.09 39.45V36.53C74.09 36.2 74.27 35.9 74.55 35.74L77.05 34.28C77.34 34.11 77.69 34.11 77.97 34.28L80.47 35.74C80.75 35.9 80.93 36.21 80.93 36.53V39.45C80.93 39.78 80.75 40.08 80.47 40.24L77.97 41.7C77.83 41.78 77.67 41.82 77.51 41.82ZM77.51 34.32C77.38 34.32 77.25 34.35 77.13 34.42L74.63 35.88C74.4 36.01 74.26 36.26 74.26 36.53V39.45C74.26 39.72 74.4 39.96 74.63 40.1L77.13 41.56C77.36 41.7 77.65 41.7 77.88 41.56L80.38 40.1C80.61 39.97 80.75 39.72 80.75 39.45V36.53C80.75 36.26 80.61 36.02 80.38 35.88L77.88 34.42C77.76 34.35 77.63 34.32 77.5 34.32" fill="#D6D2D2"/>
<path d="M80.85 35.98C80.69 35.98 80.53 35.94 80.39 35.86L77.89 34.4C77.61 34.24 77.4301 33.93 77.4301 33.61V30.69C77.4301 30.36 77.6 30.06 77.89 29.9L80.39 28.44C80.68 28.27 81.03 28.27 81.31 28.44L83.81 29.9C84.09 30.07 84.2701 30.37 84.2701 30.69V33.61C84.2701 33.94 84.09 34.24 83.81 34.4L81.31 35.86C81.17 35.94 81.01 35.98 80.85 35.98ZM80.85 28.48C80.72 28.48 80.59 28.51 80.47 28.58L77.97 30.04C77.74 30.17 77.6 30.42 77.6 30.69V33.61C77.6 33.88 77.74 34.12 77.97 34.26L80.47 35.72C80.7 35.86 80.99 35.85 81.22 35.72L83.72 34.26C83.95 34.13 84.09 33.88 84.09 33.61V30.69C84.09 30.42 83.95 30.18 83.72 30.04L81.22 28.58C81.1 28.51 80.97 28.48 80.84 28.48" fill="#D6D2D2"/>
<path d="M70.84 18.47C70.68 18.47 70.52 18.43 70.38 18.35L67.88 16.89C67.6 16.72 67.42 16.42 67.42 16.1V13.18C67.42 12.85 67.6 12.55 67.88 12.39L70.38 10.93C70.67 10.76 71.02 10.76 71.3 10.93L73.8 12.39C74.08 12.55 74.26 12.86 74.26 13.18V16.1C74.26 16.43 74.08 16.73 73.8 16.89L71.3 18.35C71.16 18.43 71 18.47 70.84 18.47ZM70.84 10.97C70.71 10.97 70.5801 11 70.4601 11.07L67.9601 12.53C67.7301 12.66 67.59 12.91 67.59 13.18V16.1C67.59 16.37 67.7301 16.61 67.9601 16.75L70.4601 18.21C70.6901 18.35 70.9801 18.35 71.2101 18.21L73.7101 16.75C73.9401 16.62 74.08 16.37 74.08 16.1V13.18C74.08 12.91 73.9401 12.67 73.7101 12.53L71.2101 11.07C71.0901 11 70.96 10.97 70.83 10.97" fill="#D6D2D2"/>
<path d="M74.18 12.64C74.02 12.64 73.86 12.6 73.72 12.52L71.22 11.06C70.94 10.89 70.76 10.59 70.76 10.27V7.35C70.76 7.02 70.94 6.72 71.22 6.56L73.72 5.1C74.01 4.93 74.36 4.93 74.64 5.1L77.14 6.56C77.42 6.72 77.6 7.03 77.6 7.35V10.27C77.6 10.6 77.42 10.9 77.14 11.06L74.64 12.52C74.5 12.6 74.34 12.64 74.18 12.64ZM74.18 5.14C74.05 5.14 73.92 5.17 73.8 5.24L71.3 6.7C71.07 6.83 70.93 7.08 70.93 7.35V10.27C70.93 10.54 71.07 10.78 71.3 10.92L73.8 12.38C74.03 12.51 74.32 12.51 74.55 12.38L77.05 10.92C77.28 10.79 77.42 10.54 77.42 10.27V7.35C77.42 7.08 77.28 6.84 77.05 6.7L74.55 5.24C74.43 5.17 74.3 5.14 74.17 5.14" fill="#D6D2D2"/>
<path d="M74.18 24.31C74.02 24.31 73.86 24.27 73.72 24.19L71.22 22.73C70.94 22.57 70.76 22.26 70.76 21.94V19.02C70.76 18.69 70.94 18.39 71.22 18.23L73.72 16.77C74.01 16.6 74.36 16.6 74.64 16.77L77.14 18.23C77.42 18.39 77.6 18.7 77.6 19.02V21.94C77.6 22.27 77.42 22.57 77.14 22.73L74.64 24.19C74.5 24.27 74.34 24.31 74.18 24.31ZM74.18 16.81C74.05 16.81 73.92 16.84 73.8 16.91L71.3 18.37C71.07 18.5 70.93 18.75 70.93 19.02V21.94C70.93 22.21 71.07 22.45 71.3 22.59L73.8 24.05C74.03 24.19 74.32 24.19 74.55 24.05L77.05 22.59C77.28 22.46 77.42 22.21 77.42 21.94V19.02C77.42 18.75 77.28 18.51 77.05 18.37L74.55 16.91C74.43 16.84 74.3 16.81 74.17 16.81" fill="#D6D2D2"/>
<path d="M77.51 18.47C77.35 18.47 77.19 18.43 77.05 18.35L74.55 16.89C74.27 16.72 74.09 16.42 74.09 16.1V13.18C74.09 12.85 74.27 12.55 74.55 12.39L77.05 10.93C77.34 10.76 77.69 10.76 77.97 10.93L80.47 12.39C80.75 12.55 80.93 12.86 80.93 13.18V16.1C80.93 16.43 80.75 16.73 80.47 16.89L77.97 18.35C77.83 18.43 77.67 18.47 77.51 18.47ZM77.51 10.97C77.38 10.97 77.25 11 77.13 11.07L74.63 12.53C74.4 12.66 74.26 12.91 74.26 13.18V16.1C74.26 16.37 74.4 16.61 74.63 16.75L77.13 18.21C77.36 18.35 77.65 18.35 77.88 18.21L80.38 16.75C80.61 16.62 80.75 16.37 80.75 16.1V13.18C80.75 12.91 80.61 12.67 80.38 12.53L77.88 11.07C77.76 11 77.63 10.97 77.5 10.97" fill="#D6D2D2"/>
<path d="M54.17 24.31C54.01 24.31 53.85 24.27 53.71 24.19L51.21 22.73C50.93 22.56 50.75 22.26 50.75 21.94V19.02C50.75 18.69 50.92 18.39 51.21 18.23L53.71 16.77C54 16.6 54.35 16.6 54.63 16.77L57.13 18.23C57.41 18.39 57.59 18.7 57.59 19.02V21.94C57.59 22.27 57.41 22.57 57.13 22.73L54.63 24.19C54.49 24.27 54.33 24.31 54.17 24.31ZM54.17 16.81C54.04 16.81 53.91 16.84 53.79 16.91L51.29 18.37C51.06 18.5 50.92 18.75 50.92 19.02V21.94C50.92 22.21 51.06 22.45 51.29 22.59L53.79 24.05C54.02 24.19 54.31 24.19 54.54 24.05L57.04 22.59C57.27 22.46 57.41 22.21 57.41 21.94V19.02C57.41 18.75 57.27 18.51 57.04 18.37L54.54 16.91C54.42 16.84 54.29 16.81 54.16 16.81" fill="#D6D2D2"/>
<path d="M57.51 18.47C57.35 18.47 57.19 18.43 57.05 18.35L54.55 16.89C54.27 16.72 54.09 16.42 54.09 16.1V13.18C54.09 12.85 54.27 12.55 54.55 12.39L57.05 10.93C57.34 10.76 57.69 10.76 57.97 10.93L60.47 12.39C60.75 12.55 60.93 12.86 60.93 13.18V16.1C60.93 16.43 60.75 16.73 60.47 16.89L57.97 18.35C57.83 18.43 57.67 18.47 57.51 18.47ZM57.51 10.97C57.38 10.97 57.25 11 57.13 11.07L54.63 12.53C54.4 12.66 54.26 12.91 54.26 13.18V16.1C54.26 16.37 54.4 16.61 54.63 16.75L57.13 18.21C57.36 18.35 57.65 18.35 57.88 18.21L60.38 16.75C60.61 16.62 60.75 16.37 60.75 16.1V13.18C60.75 12.91 60.61 12.67 60.38 12.53L57.88 11.07C57.76 11 57.63 10.97 57.5 10.97" fill="#D6D2D2"/>
<path d="M57.5 30.15C57.34 30.15 57.18 30.11 57.04 30.03L54.54 28.57C54.26 28.4 54.08 28.1 54.08 27.78V24.86C54.08 24.53 54.26 24.23 54.54 24.07L57.04 22.61C57.33 22.44 57.68 22.44 57.96 22.61L60.46 24.07C60.74 24.23 60.92 24.54 60.92 24.86V27.78C60.92 28.11 60.74 28.41 60.46 28.57L57.96 30.03C57.82 30.11 57.66 30.15 57.5 30.15ZM57.5 22.65C57.37 22.65 57.24 22.68 57.12 22.75L54.62 24.21C54.39 24.34 54.25 24.59 54.25 24.86V27.78C54.25 28.05 54.39 28.29 54.62 28.43L57.12 29.89C57.35 30.03 57.64 30.03 57.87 29.89L60.37 28.43C60.6 28.3 60.74 28.05 60.74 27.78V24.86C60.74 24.59 60.6 24.35 60.37 24.21L57.87 22.75C57.75 22.68 57.62 22.65 57.49 22.65" fill="#D6D2D2"/>
<path d="M60.84 24.31C60.68 24.31 60.52 24.27 60.38 24.19L57.88 22.73C57.6 22.57 57.42 22.26 57.42 21.94V19.02C57.42 18.69 57.6 18.39 57.88 18.23L60.38 16.77C60.67 16.6 61.02 16.6 61.3 16.77L63.8 18.23C64.08 18.39 64.26 18.7 64.26 19.02V21.94C64.26 22.27 64.08 22.57 63.8 22.73L61.3 24.19C61.16 24.27 61 24.31 60.84 24.31ZM60.84 16.81C60.71 16.81 60.5801 16.84 60.4601 16.91L57.9601 18.37C57.7301 18.5 57.59 18.75 57.59 19.02V21.94C57.59 22.21 57.7301 22.45 57.9601 22.59L60.4601 24.05C60.6901 24.18 60.9801 24.18 61.2101 24.05L63.7101 22.59C63.9401 22.46 64.08 22.21 64.08 21.94V19.02C64.08 18.75 63.9401 18.51 63.7101 18.37L61.2101 16.91C61.0901 16.84 60.96 16.81 60.83 16.81" fill="#D6D2D2"/>
<path d="M87.41 59.36C87.25 59.36 87.09 59.32 86.95 59.24L84.45 57.78C84.17 57.62 83.99 57.31 83.99 56.99V54.07C83.99 53.74 84.17 53.44 84.45 53.28L86.95 51.82C87.24 51.65 87.59 51.65 87.87 51.82L90.37 53.28C90.65 53.44 90.83 53.75 90.83 54.07V56.99C90.83 57.32 90.66 57.62 90.37 57.78L87.87 59.24C87.73 59.32 87.57 59.36 87.41 59.36ZM87.41 51.86C87.28 51.86 87.15 51.89 87.03 51.96L84.53 53.42C84.3 53.55 84.16 53.8 84.16 54.07V56.99C84.16 57.26 84.3 57.5 84.53 57.64L87.03 59.1C87.26 59.24 87.55 59.24 87.78 59.1L90.28 57.64C90.51 57.51 90.65 57.26 90.65 56.99V54.07C90.65 53.8 90.51 53.56 90.28 53.42L87.78 51.96C87.66 51.89 87.53 51.86 87.4 51.86" fill="#D6D2D2"/>
<path d="M90.75 53.52C90.59 53.52 90.43 53.48 90.29 53.4L87.79 51.94C87.51 51.78 87.33 51.47 87.33 51.15V48.23C87.33 47.9 87.51 47.6 87.79 47.44L90.29 45.98C90.58 45.81 90.93 45.81 91.21 45.98L93.71 47.44C93.99 47.6 94.17 47.91 94.17 48.23V51.15C94.17 51.47 94 51.78 93.71 51.94L91.21 53.4C91.07 53.48 90.91 53.52 90.75 53.52ZM90.75 46.02C90.62 46.02 90.49 46.05 90.37 46.12L87.87 47.58C87.64 47.71 87.5 47.96 87.5 48.23V51.15C87.5 51.42 87.64 51.66 87.87 51.8L90.37 53.26C90.6 53.4 90.89 53.4 91.12 53.26L93.62 51.8C93.85 51.67 93.99 51.42 93.99 51.15V48.23C93.99 47.97 93.85 47.72 93.62 47.58L91.12 46.12C91 46.05 90.87 46.02 90.74 46.02" fill="#D6D2D2"/>
<path d="M90.75 65.2C90.59 65.2 90.43 65.16 90.29 65.08L87.79 63.62C87.51 63.46 87.33 63.15 87.33 62.83V59.91C87.33 59.59 87.51 59.28 87.79 59.12L90.29 57.66C90.58 57.49 90.93 57.49 91.21 57.66L93.71 59.12C93.99 59.28 94.17 59.59 94.17 59.91V62.83C94.17 63.15 93.99 63.46 93.71 63.62L91.21 65.08C91.07 65.16 90.91 65.2 90.75 65.2ZM90.75 57.7C90.62 57.7 90.49 57.73 90.37 57.8L87.87 59.26C87.64 59.39 87.5 59.64 87.5 59.91V62.83C87.5 63.09 87.64 63.34 87.87 63.48L90.37 64.94C90.6 65.07 90.89 65.07 91.12 64.94L93.62 63.48C93.85 63.35 93.99 63.1 93.99 62.83V59.91C93.99 59.65 93.85 59.4 93.62 59.26L91.12 57.8C91 57.73 90.87 57.7 90.74 57.7" fill="#D6D2D2"/>
<path d="M94.08 59.36C93.92 59.36 93.7601 59.32 93.6201 59.24L91.1201 57.78C90.8401 57.62 90.66 57.31 90.66 56.99V54.07C90.66 53.75 90.8401 53.44 91.1201 53.28L93.6201 51.82C93.9101 51.65 94.26 51.65 94.54 51.82L97.04 53.28C97.32 53.44 97.5 53.75 97.5 54.07V56.99C97.5 57.31 97.32 57.62 97.04 57.78L94.54 59.24C94.4 59.32 94.24 59.36 94.08 59.36ZM94.08 51.86C93.95 51.86 93.82 51.89 93.7 51.96L91.2 53.42C90.97 53.55 90.83 53.8 90.83 54.07V56.99C90.83 57.25 90.97 57.5 91.2 57.64L93.7 59.1C93.93 59.24 94.22 59.24 94.45 59.1L96.95 57.64C97.18 57.51 97.32 57.26 97.32 56.99V54.07C97.32 53.81 97.18 53.56 96.95 53.42L94.45 51.96C94.33 51.89 94.2 51.86 94.07 51.86" fill="#D6D2D2"/>
<path d="M84.08 41.85C83.92 41.85 83.7601 41.81 83.6201 41.73L81.1201 40.27C80.8401 40.11 80.66 39.8 80.66 39.48V36.56C80.66 36.23 80.8401 35.93 81.1201 35.77L83.6201 34.31C83.9101 34.14 84.26 34.14 84.54 34.31L87.04 35.77C87.32 35.93 87.5 36.24 87.5 36.56V39.48C87.5 39.8 87.32 40.11 87.04 40.27L84.54 41.73C84.4 41.81 84.24 41.85 84.08 41.85ZM84.08 34.35C83.95 34.35 83.82 34.38 83.7 34.45L81.2 35.91C80.97 36.04 80.83 36.29 80.83 36.56V39.48C80.83 39.74 80.97 39.99 81.2 40.13L83.7 41.59C83.93 41.72 84.22 41.72 84.45 41.59L86.95 40.13C87.18 40 87.32 39.75 87.32 39.48V36.56C87.32 36.29 87.18 36.05 86.95 35.91L84.45 34.45C84.33 34.38 84.2 34.35 84.07 34.35" fill="#D6D2D2"/>
<path d="M87.41 36.01C87.25 36.01 87.09 35.97 86.95 35.89L84.45 34.43C84.17 34.26 83.99 33.96 83.99 33.64V30.72C83.99 30.39 84.17 30.09 84.45 29.93L86.95 28.47C87.24 28.3 87.59 28.3 87.87 28.47L90.37 29.93C90.65 30.09 90.83 30.4 90.83 30.72V33.64C90.83 33.97 90.65 34.27 90.37 34.43L87.87 35.89C87.73 35.97 87.57 36.01 87.41 36.01ZM87.41 28.51C87.28 28.51 87.15 28.54 87.03 28.61L84.53 30.07C84.3 30.2 84.16 30.45 84.16 30.72V33.64C84.16 33.91 84.3 34.15 84.53 34.29L87.03 35.75C87.26 35.89 87.55 35.89 87.78 35.75L90.28 34.29C90.51 34.16 90.65 33.91 90.65 33.64V30.72C90.65 30.45 90.51 30.21 90.28 30.07L87.78 28.61C87.66 28.54 87.53 28.51 87.4 28.51" fill="#D6D2D2"/>
<path d="M87.41 47.69C87.25 47.69 87.09 47.65 86.95 47.57L84.45 46.11C84.17 45.95 83.99 45.64 83.99 45.32V42.4C83.99 42.08 84.17 41.77 84.45 41.61L86.95 40.15C87.24 39.98 87.59 39.98 87.87 40.15L90.37 41.61C90.65 41.77 90.83 42.08 90.83 42.4V45.32C90.83 45.65 90.65 45.95 90.37 46.11L87.87 47.57C87.73 47.65 87.57 47.69 87.41 47.69ZM87.41 40.19C87.28 40.19 87.15 40.22 87.03 40.29L84.53 41.75C84.3 41.88 84.16 42.13 84.16 42.4V45.32C84.16 45.59 84.3 45.83 84.53 45.97L87.03 47.43C87.26 47.56 87.55 47.56 87.78 47.43L90.28 45.97C90.51 45.84 90.65 45.59 90.65 45.32V42.4C90.65 42.14 90.51 41.89 90.28 41.75L87.78 40.29C87.66 40.22 87.53 40.19 87.4 40.19" fill="#D6D2D2"/>
<path d="M90.75 41.85C90.59 41.85 90.43 41.81 90.29 41.73L87.79 40.27C87.51 40.11 87.33 39.8 87.33 39.48V36.56C87.33 36.23 87.51 35.93 87.79 35.77L90.29 34.31C90.58 34.14 90.93 34.14 91.21 34.31L93.71 35.77C93.99 35.93 94.17 36.24 94.17 36.56V39.48C94.17 39.8 94 40.11 93.71 40.27L91.21 41.73C91.07 41.81 90.91 41.85 90.75 41.85ZM90.75 34.35C90.62 34.35 90.49 34.38 90.37 34.45L87.87 35.91C87.64 36.04 87.5 36.29 87.5 36.56V39.48C87.5 39.75 87.64 39.99 87.87 40.13L90.37 41.59C90.6 41.73 90.89 41.73 91.12 41.59L93.62 40.13C93.85 40 93.99 39.75 93.99 39.48V36.56C93.99 36.29 93.85 36.05 93.62 35.91L91.12 34.45C91 34.38 90.87 34.35 90.74 34.35" fill="#D6D2D2"/>
<path d="M77.41 53.52C77.25 53.52 77.09 53.48 76.95 53.4L74.45 51.94C74.17 51.78 73.99 51.47 73.99 51.15V48.23C73.99 47.9 74.17 47.6 74.45 47.44L76.95 45.98C77.24 45.81 77.59 45.81 77.87 45.98L80.37 47.44C80.65 47.6 80.83 47.91 80.83 48.23V51.15C80.83 51.47 80.65 51.78 80.37 51.94L77.87 53.4C77.73 53.48 77.57 53.52 77.41 53.52ZM77.41 46.02C77.28 46.02 77.15 46.05 77.03 46.12L74.53 47.58C74.3 47.71 74.16 47.96 74.16 48.23V51.15C74.16 51.42 74.3 51.66 74.53 51.8L77.03 53.26C77.26 53.4 77.55 53.4 77.78 53.26L80.28 51.8C80.51 51.67 80.65 51.42 80.65 51.15V48.23C80.65 47.97 80.51 47.72 80.28 47.58L77.78 46.12C77.66 46.05 77.53 46.02 77.4 46.02" fill="#D6D2D2"/>
<path d="M80.74 47.69C80.58 47.69 80.42 47.65 80.28 47.57L77.78 46.11C77.5 45.95 77.32 45.64 77.32 45.32V42.4C77.32 42.08 77.5 41.77 77.78 41.61L80.28 40.15C80.57 39.98 80.92 39.98 81.2 40.15L83.7 41.61C83.98 41.77 84.16 42.08 84.16 42.4V45.32C84.16 45.64 83.98 45.95 83.7 46.11L81.2 47.57C81.06 47.65 80.9 47.69 80.74 47.69ZM80.74 40.19C80.61 40.19 80.48 40.22 80.36 40.29L77.86 41.75C77.63 41.88 77.49 42.13 77.49 42.4V45.32C77.49 45.59 77.63 45.83 77.86 45.97L80.36 47.43C80.59 47.56 80.88 47.56 81.11 47.43L83.61 45.97C83.84 45.84 83.98 45.59 83.98 45.32V42.4C83.98 42.14 83.84 41.89 83.61 41.75L81.11 40.29C80.99 40.22 80.86 40.19 80.73 40.19" fill="#D6D2D2"/>
<path d="M80.74 59.36C80.58 59.36 80.42 59.32 80.28 59.24L77.78 57.78C77.5 57.62 77.32 57.31 77.32 56.99V54.07C77.32 53.74 77.5 53.44 77.78 53.28L80.28 51.82C80.57 51.65 80.92 51.65 81.2 51.82L83.7 53.28C83.98 53.44 84.16 53.75 84.16 54.07V56.99C84.16 57.32 83.99 57.62 83.7 57.78L81.2 59.24C81.06 59.32 80.9 59.36 80.74 59.36ZM80.74 51.86C80.61 51.86 80.48 51.89 80.36 51.96L77.86 53.42C77.63 53.55 77.49 53.8 77.49 54.07V56.99C77.49 57.25 77.63 57.5 77.86 57.64L80.36 59.1C80.59 59.24 80.88 59.24 81.11 59.1L83.61 57.64C83.84 57.51 83.98 57.26 83.98 56.99V54.07C83.98 53.8 83.84 53.56 83.61 53.42L81.11 51.96C80.99 51.89 80.86 51.86 80.73 51.86" fill="#D6D2D2"/>
<path d="M84.08 53.52C83.92 53.52 83.7601 53.48 83.6201 53.4L81.1201 51.94C80.8401 51.78 80.66 51.47 80.66 51.15V48.23C80.66 47.91 80.8301 47.6 81.1201 47.44L83.6201 45.98C83.9101 45.81 84.26 45.81 84.54 45.98L87.04 47.44C87.32 47.6 87.5 47.91 87.5 48.23V51.15C87.5 51.47 87.32 51.78 87.04 51.94L84.54 53.4C84.4 53.48 84.24 53.52 84.08 53.52ZM84.08 46.02C83.95 46.02 83.82 46.05 83.7 46.12L81.2 47.58C80.97 47.71 80.83 47.96 80.83 48.23V51.15C80.83 51.42 80.97 51.66 81.2 51.8L83.7 53.26C83.93 53.39 84.22 53.39 84.45 53.26L86.95 51.8C87.18 51.67 87.32 51.42 87.32 51.15V48.23C87.32 47.97 87.18 47.72 86.95 47.58L84.45 46.12C84.33 46.05 84.2 46.02 84.07 46.02" fill="#D6D2D2"/>
<path d="M37.62 30.15C37.46 30.15 37.3 30.11 37.16 30.03L34.66 28.57C34.38 28.4 34.2 28.1 34.2 27.78V24.86C34.2 24.53 34.38 24.23 34.66 24.07L37.16 22.61C37.45 22.44 37.8 22.44 38.08 22.61L40.58 24.07C40.86 24.23 41.04 24.54 41.04 24.86V27.78C41.04 28.11 40.86 28.41 40.58 28.57L38.08 30.03C37.94 30.11 37.78 30.15 37.62 30.15ZM37.62 22.65C37.49 22.65 37.36 22.68 37.24 22.75L34.74 24.21C34.51 24.34 34.37 24.59 34.37 24.86V27.78C34.37 28.05 34.51 28.29 34.74 28.43L37.24 29.89C37.47 30.03 37.76 30.03 37.99 29.89L40.49 28.43C40.72 28.3 40.86 28.05 40.86 27.78V24.86C40.86 24.59 40.72 24.35 40.49 24.21L37.99 22.75C37.87 22.68 37.74 22.65 37.61 22.65" fill="#D6D2D2"/>
<path d="M40.95 24.31C40.79 24.31 40.63 24.27 40.49 24.19L37.99 22.73C37.71 22.56 37.53 22.26 37.53 21.94V19.02C37.53 18.69 37.71 18.39 37.99 18.23L40.49 16.77C40.78 16.6 41.13 16.6 41.41 16.77L43.91 18.23C44.19 18.39 44.37 18.7 44.37 19.02V21.94C44.37 22.27 44.19 22.57 43.91 22.73L41.41 24.19C41.27 24.27 41.11 24.31 40.95 24.31ZM40.95 16.81C40.82 16.81 40.69 16.84 40.57 16.91L38.07 18.37C37.84 18.5 37.7 18.75 37.7 19.02V21.94C37.7 22.21 37.84 22.45 38.07 22.59L40.57 24.05C40.8 24.19 41.09 24.19 41.32 24.05L43.82 22.59C44.05 22.46 44.19 22.21 44.19 21.94V19.02C44.19 18.75 44.05 18.51 43.82 18.37L41.32 16.91C41.2 16.84 41.07 16.81 40.94 16.81" fill="#D6D2D2"/>
<path d="M40.95 35.98C40.79 35.98 40.63 35.94 40.49 35.86L37.99 34.4C37.71 34.23 37.53 33.93 37.53 33.61V30.69C37.53 30.36 37.7 30.06 37.99 29.9L40.49 28.44C40.78 28.27 41.13 28.27 41.41 28.44L43.91 29.9C44.19 30.06 44.37 30.37 44.37 30.69V33.61C44.37 33.94 44.19 34.24 43.91 34.4L41.41 35.86C41.27 35.94 41.11 35.98 40.95 35.98ZM40.95 28.48C40.82 28.48 40.69 28.51 40.57 28.58L38.07 30.04C37.84 30.17 37.7 30.42 37.7 30.69V33.61C37.7 33.88 37.84 34.12 38.07 34.26L40.57 35.72C40.8 35.86 41.09 35.86 41.32 35.72L43.82 34.26C44.05 34.13 44.19 33.88 44.19 33.61V30.69C44.19 30.42 44.05 30.18 43.82 30.04L41.32 28.58C41.2 28.51 41.07 28.48 40.94 28.48" fill="#D6D2D2"/>
<path d="M44.29 30.15C44.13 30.15 43.97 30.11 43.83 30.03L41.33 28.57C41.05 28.4 40.87 28.1 40.87 27.78V24.86C40.87 24.53 41.05 24.23 41.33 24.07L43.83 22.61C44.12 22.44 44.47 22.44 44.75 22.61L47.25 24.07C47.53 24.23 47.71 24.54 47.71 24.86V27.78C47.71 28.11 47.53 28.41 47.25 28.57L44.75 30.03C44.61 30.11 44.45 30.15 44.29 30.15ZM44.29 22.65C44.16 22.65 44.03 22.68 43.91 22.75L41.41 24.21C41.18 24.34 41.04 24.59 41.04 24.86V27.78C41.04 28.05 41.18 28.29 41.41 28.43L43.91 29.89C44.14 30.03 44.43 30.03 44.66 29.89L47.16 28.43C47.39 28.3 47.53 28.05 47.53 27.78V24.86C47.53 24.59 47.39 24.35 47.16 24.21L44.66 22.75C44.54 22.68 44.41 22.65 44.28 22.65" fill="#D6D2D2"/>
<path d="M47.62 35.98C47.46 35.98 47.3 35.94 47.16 35.86L44.66 34.4C44.38 34.23 44.2 33.93 44.2 33.61V30.69C44.2 30.36 44.37 30.06 44.66 29.9L47.16 28.44C47.45 28.27 47.8 28.27 48.08 28.44L50.58 29.9C50.86 30.06 51.04 30.37 51.04 30.69V33.61C51.04 33.94 50.86 34.24 50.58 34.4L48.08 35.86C47.94 35.94 47.78 35.98 47.62 35.98ZM47.62 28.48C47.49 28.48 47.36 28.51 47.24 28.58L44.74 30.04C44.51 30.17 44.37 30.42 44.37 30.69V33.61C44.37 33.88 44.51 34.12 44.74 34.26L47.24 35.72C47.47 35.86 47.76 35.86 47.99 35.72L50.49 34.26C50.72 34.13 50.86 33.88 50.86 33.61V30.69C50.86 30.42 50.72 30.18 50.49 30.04L47.99 28.58C47.87 28.51 47.74 28.48 47.61 28.48" fill="#D6D2D2"/>
<path d="M50.9601 30.15C50.8001 30.15 50.64 30.11 50.5 30.03L48 28.57C47.72 28.4 47.54 28.1 47.54 27.78V24.86C47.54 24.53 47.72 24.23 48 24.07L50.5 22.61C50.79 22.44 51.14 22.44 51.42 22.61L53.92 24.07C54.2 24.23 54.38 24.54 54.38 24.86V27.78C54.38 28.11 54.2 28.41 53.92 28.57L51.42 30.03C51.28 30.11 51.1201 30.15 50.9601 30.15ZM50.9601 22.65C50.8301 22.65 50.7 22.68 50.58 22.75L48.08 24.21C47.85 24.34 47.7101 24.59 47.7101 24.86V27.78C47.7101 28.05 47.85 28.29 48.08 28.43L50.58 29.89C50.81 30.03 51.1 30.03 51.33 29.89L53.83 28.43C54.06 28.3 54.2 28.05 54.2 27.78V24.86C54.2 24.59 54.06 24.35 53.83 24.21L51.33 22.75C51.21 22.68 51.08 22.65 50.95 22.65" fill="#D6D2D2"/>
<path d="M50.9601 41.82C50.8001 41.82 50.64 41.78 50.5 41.7L48 40.24C47.72 40.08 47.54 39.77 47.54 39.45V36.53C47.54 36.2 47.72 35.9 48 35.74L50.5 34.28C50.79 34.11 51.14 34.11 51.42 34.28L53.92 35.74C54.2 35.9 54.38 36.21 54.38 36.53V39.45C54.38 39.77 54.2 40.08 53.92 40.24L51.42 41.7C51.28 41.78 51.1201 41.82 50.9601 41.82ZM50.9601 34.32C50.8301 34.32 50.7 34.35 50.58 34.42L48.08 35.88C47.85 36.01 47.7101 36.26 47.7101 36.53V39.45C47.7101 39.72 47.85 39.96 48.08 40.1L50.58 41.56C50.81 41.7 51.1 41.7 51.33 41.56L53.83 40.1C54.06 39.97 54.2 39.72 54.2 39.45V36.53C54.2 36.26 54.06 36.02 53.83 35.88L51.33 34.42C51.21 34.35 51.08 34.32 50.95 34.32" fill="#D6D2D2"/>
<path d="M54.29 35.98C54.13 35.98 53.97 35.94 53.83 35.86L51.33 34.4C51.05 34.23 50.87 33.93 50.87 33.61V30.69C50.87 30.36 51.05 30.06 51.33 29.9L53.83 28.44C54.12 28.27 54.47 28.27 54.75 28.44L57.25 29.9C57.53 30.06 57.71 30.37 57.71 30.69V33.61C57.71 33.94 57.53 34.24 57.25 34.4L54.75 35.86C54.61 35.94 54.45 35.98 54.29 35.98ZM54.29 28.48C54.16 28.48 54.03 28.51 53.91 28.58L51.41 30.04C51.18 30.17 51.04 30.42 51.04 30.69V33.61C51.04 33.88 51.18 34.12 51.41 34.26L53.91 35.72C54.14 35.86 54.43 35.86 54.66 35.72L57.16 34.26C57.39 34.13 57.53 33.88 57.53 33.61V30.69C57.53 30.42 57.39 30.18 57.16 30.04L54.66 28.58C54.54 28.51 54.41 28.48 54.28 28.48" fill="#D6D2D2"/>
<path d="M44.29 18.47C44.13 18.47 43.97 18.43 43.83 18.35L41.33 16.89C41.05 16.72 40.87 16.42 40.87 16.1V13.18C40.87 12.85 41.05 12.55 41.33 12.39L43.83 10.93C44.12 10.76 44.47 10.76 44.75 10.93L47.25 12.39C47.53 12.55 47.71 12.86 47.71 13.18V16.1C47.71 16.43 47.53 16.73 47.25 16.89L44.75 18.35C44.61 18.43 44.45 18.47 44.29 18.47ZM44.29 10.97C44.16 10.97 44.03 11 43.91 11.07L41.41 12.53C41.18 12.66 41.04 12.91 41.04 13.18V16.1C41.04 16.37 41.18 16.61 41.41 16.75L43.91 18.21C44.14 18.35 44.43 18.35 44.66 18.21L47.16 16.75C47.39 16.62 47.53 16.37 47.53 16.1V13.18C47.53 12.91 47.39 12.67 47.16 12.53L44.66 11.07C44.54 11 44.41 10.97 44.28 10.97" fill="#D6D2D2"/>
<path d="M47.62 12.64C47.46 12.64 47.3 12.6 47.16 12.52L44.66 11.06C44.38 10.89 44.2 10.59 44.2 10.27V7.35C44.2 7.02 44.38 6.72 44.66 6.56L47.16 5.1C47.45 4.93 47.8 4.93 48.08 5.1L50.58 6.56C50.86 6.72 51.04 7.03 51.04 7.35V10.27C51.04 10.6 50.86 10.9 50.58 11.06L48.08 12.52C47.94 12.6 47.78 12.64 47.62 12.64ZM47.62 5.14C47.49 5.14 47.36 5.17 47.24 5.24L44.74 6.7C44.51 6.83 44.37 7.08 44.37 7.35V10.27C44.37 10.54 44.51 10.78 44.74 10.92L47.24 12.38C47.47 12.52 47.76 12.52 47.99 12.38L50.49 10.92C50.72 10.79 50.86 10.54 50.86 10.27V7.35C50.86 7.08 50.72 6.84 50.49 6.7L47.99 5.24C47.87 5.17 47.74 5.14 47.61 5.14" fill="#D6D2D2"/>
<path d="M47.62 24.31C47.46 24.31 47.3 24.27 47.16 24.19L44.66 22.73C44.38 22.57 44.2 22.26 44.2 21.94V19.02C44.2 18.69 44.38 18.39 44.66 18.23L47.16 16.77C47.45 16.6 47.8 16.6 48.08 16.77L50.58 18.23C50.86 18.39 51.04 18.7 51.04 19.02V21.94C51.04 22.27 50.86 22.57 50.58 22.73L48.08 24.19C47.94 24.27 47.78 24.31 47.62 24.31ZM47.62 16.81C47.49 16.81 47.36 16.84 47.24 16.91L44.74 18.37C44.51 18.5 44.37 18.75 44.37 19.02V21.94C44.37 22.21 44.51 22.45 44.74 22.59L47.24 24.05C47.47 24.19 47.76 24.19 47.99 24.05L50.49 22.59C50.72 22.46 50.86 22.21 50.86 21.94V19.02C50.86 18.75 50.72 18.51 50.49 18.37L47.99 16.91C47.87 16.84 47.74 16.81 47.61 16.81" fill="#D6D2D2"/>
<path d="M50.9601 18.47C50.8001 18.47 50.64 18.43 50.5 18.35L48 16.89C47.72 16.72 47.54 16.42 47.54 16.1V13.18C47.54 12.85 47.72 12.55 48 12.39L50.5 10.93C50.79 10.76 51.14 10.76 51.42 10.93L53.92 12.39C54.2 12.55 54.38 12.86 54.38 13.18V16.1C54.38 16.43 54.2 16.73 53.92 16.89L51.42 18.35C51.28 18.43 51.1201 18.47 50.9601 18.47ZM50.9601 10.97C50.8301 10.97 50.7 11 50.58 11.07L48.08 12.53C47.85 12.66 47.7101 12.91 47.7101 13.18V16.1C47.7101 16.37 47.85 16.61 48.08 16.75L50.58 18.21C50.81 18.35 51.1 18.35 51.33 18.21L53.83 16.75C54.06 16.62 54.2 16.37 54.2 16.1V13.18C54.2 12.91 54.06 12.67 53.83 12.53L51.33 11.07C51.21 11 51.08 10.97 50.95 10.97" fill="#D6D2D2"/>
<path d="M27.61 24.31C27.45 24.31 27.29 24.27 27.15 24.19L24.65 22.73C24.37 22.56 24.19 22.26 24.19 21.94V19.02C24.19 18.69 24.37 18.39 24.65 18.23L27.15 16.77C27.44 16.6 27.79 16.6 28.07 16.77L30.57 18.23C30.85 18.39 31.03 18.7 31.03 19.02V21.94C31.03 22.27 30.85 22.57 30.57 22.73L28.07 24.19C27.93 24.27 27.77 24.31 27.61 24.31ZM27.61 16.81C27.48 16.81 27.35 16.84 27.23 16.91L24.73 18.37C24.5 18.5 24.36 18.75 24.36 19.02V21.94C24.36 22.21 24.5 22.45 24.73 22.59L27.23 24.05C27.46 24.19 27.75 24.19 27.98 24.05L30.48 22.59C30.71 22.46 30.85 22.21 30.85 21.94V19.02C30.85 18.75 30.71 18.51 30.48 18.37L27.98 16.91C27.86 16.84 27.73 16.81 27.6 16.81" fill="#D6D2D2"/>
<path d="M30.95 18.47C30.79 18.47 30.63 18.43 30.49 18.35L27.99 16.89C27.71 16.72 27.53 16.42 27.53 16.1V13.18C27.53 12.85 27.7 12.55 27.99 12.39L30.49 10.93C30.78 10.76 31.13 10.76 31.41 10.93L33.91 12.39C34.19 12.55 34.37 12.86 34.37 13.18V16.1C34.37 16.43 34.19 16.73 33.91 16.89L31.41 18.35C31.27 18.43 31.11 18.47 30.95 18.47ZM30.95 10.97C30.82 10.97 30.69 11 30.57 11.07L28.07 12.53C27.84 12.66 27.7 12.91 27.7 13.18V16.1C27.7 16.37 27.84 16.61 28.07 16.75L30.57 18.21C30.8 18.35 31.09 18.35 31.32 18.21L33.82 16.75C34.05 16.62 34.19 16.37 34.19 16.1V13.18C34.19 12.91 34.05 12.67 33.82 12.53L31.32 11.07C31.2 11 31.07 10.97 30.94 10.97" fill="#D6D2D2"/>
<path d="M30.95 30.15C30.79 30.15 30.63 30.11 30.49 30.03L27.99 28.57C27.71 28.4 27.53 28.1 27.53 27.78V24.86C27.53 24.53 27.71 24.23 27.99 24.07L30.49 22.61C30.78 22.44 31.13 22.44 31.41 22.61L33.91 24.07C34.19 24.23 34.37 24.54 34.37 24.86V27.78C34.37 28.11 34.2 28.41 33.91 28.57L31.41 30.03C31.27 30.11 31.11 30.15 30.95 30.15ZM30.95 22.65C30.82 22.65 30.69 22.68 30.57 22.75L28.07 24.21C27.84 24.34 27.7 24.59 27.7 24.86V27.78C27.7 28.05 27.84 28.29 28.07 28.43L30.57 29.89C30.8 30.03 31.09 30.03 31.32 29.89L33.82 28.43C34.05 28.3 34.19 28.05 34.19 27.78V24.86C34.19 24.59 34.05 24.35 33.82 24.21L31.32 22.75C31.2 22.68 31.07 22.65 30.94 22.65" fill="#D6D2D2"/>
<path d="M34.28 24.31C34.12 24.31 33.96 24.27 33.82 24.19L31.32 22.73C31.04 22.56 30.86 22.26 30.86 21.94V19.02C30.86 18.69 31.04 18.39 31.32 18.23L33.82 16.77C34.11 16.6 34.46 16.6 34.74 16.77L37.24 18.23C37.52 18.39 37.7 18.7 37.7 19.02V21.94C37.7 22.27 37.52 22.57 37.24 22.73L34.74 24.19C34.6 24.27 34.44 24.31 34.28 24.31ZM34.28 16.81C34.15 16.81 34.02 16.84 33.9 16.91L31.4 18.37C31.17 18.5 31.03 18.75 31.03 19.02V21.94C31.03 22.21 31.17 22.45 31.4 22.59L33.9 24.05C34.13 24.19 34.42 24.19 34.65 24.05L37.15 22.59C37.38 22.46 37.52 22.21 37.52 21.94V19.02C37.52 18.75 37.38 18.51 37.15 18.37L34.65 16.91C34.53 16.84 34.4 16.81 34.27 16.81" fill="#D6D2D2"/>
<path d="M17.73 30.42C17.57 30.42 17.41 30.38 17.27 30.3L14.77 28.84C14.49 28.68 14.31 28.37 14.31 28.05V25.13C14.31 24.8 14.48 24.5 14.77 24.34L17.27 22.88C17.56 22.71 17.91 22.71 18.19 22.88L20.69 24.34C20.97 24.51 21.15 24.81 21.15 25.13V28.05C21.15 28.38 20.97 28.68 20.69 28.84L18.19 30.3C18.05 30.38 17.89 30.42 17.73 30.42ZM17.73 22.92C17.6 22.92 17.47 22.95 17.35 23.02L14.85 24.48C14.62 24.61 14.48 24.86 14.48 25.13V28.05C14.48 28.32 14.62 28.56 14.85 28.7L17.35 30.16C17.58 30.3 17.87 30.3 18.1 30.16L20.6 28.7C20.83 28.57 20.97 28.32 20.97 28.05V25.13C20.97 24.86 20.83 24.62 20.6 24.48L18.1 23.02C17.98 22.95 17.85 22.92 17.72 22.92" fill="#D6D2D2"/>
<path d="M14.4 36.26C14.24 36.26 14.08 36.22 13.94 36.14L11.44 34.68C11.16 34.52 10.98 34.21 10.98 33.89V30.97C10.98 30.64 11.16 30.34 11.44 30.18L13.94 28.72C14.23 28.55 14.58 28.55 14.86 28.72L17.36 30.18C17.64 30.35 17.82 30.65 17.82 30.97V33.89C17.82 34.22 17.64 34.52 17.36 34.68L14.86 36.14C14.72 36.22 14.56 36.26 14.4 36.26ZM14.4 28.76C14.27 28.76 14.14 28.79 14.02 28.86L11.52 30.32C11.29 30.45 11.15 30.7 11.15 30.97V33.89C11.15 34.16 11.29 34.4 11.52 34.54L14.02 36C14.25 36.14 14.54 36.14 14.77 36L17.27 34.54C17.5 34.41 17.64 34.16 17.64 33.89V30.97C17.64 30.7 17.5 30.46 17.27 30.32L14.77 28.86C14.65 28.79 14.52 28.76 14.39 28.76" fill="#D6D2D2"/>
<path d="M14.4 24.59C14.24 24.59 14.08 24.55 13.94 24.47L11.44 23.01C11.16 22.85 10.98 22.54 10.98 22.22V19.3C10.98 18.97 11.16 18.67 11.44 18.51L13.94 17.05C14.23 16.88 14.58 16.88 14.86 17.05L17.36 18.51C17.64 18.68 17.82 18.98 17.82 19.3V22.22C17.82 22.55 17.64 22.85 17.36 23.01L14.86 24.47C14.72 24.55 14.56 24.59 14.4 24.59ZM14.4 17.09C14.27 17.09 14.14 17.12 14.02 17.19L11.52 18.65C11.29 18.78 11.15 19.03 11.15 19.3V22.22C11.15 22.49 11.29 22.73 11.52 22.87L14.02 24.33C14.25 24.47 14.54 24.47 14.77 24.33L17.27 22.87C17.5 22.74 17.64 22.49 17.64 22.22V19.3C17.64 19.03 17.5 18.79 17.27 18.65L14.77 17.19C14.65 17.12 14.52 17.09 14.39 17.09" fill="#D6D2D2"/>
<path d="M11.06 30.42C10.9 30.42 10.74 30.38 10.6 30.3L8.10001 28.84C7.82001 28.68 7.64001 28.37 7.64001 28.05V25.13C7.64001 24.8 7.82001 24.5 8.10001 24.34L10.6 22.88C10.89 22.71 11.24 22.71 11.52 22.88L14.02 24.34C14.3 24.5 14.48 24.81 14.48 25.13V28.05C14.48 28.38 14.3 28.68 14.02 28.84L11.52 30.3C11.38 30.38 11.22 30.42 11.06 30.42ZM11.06 22.92C10.93 22.92 10.8 22.95 10.68 23.02L8.18002 24.48C7.95002 24.61 7.81 24.86 7.81 25.13V28.05C7.81 28.32 7.95002 28.56 8.18002 28.7L10.68 30.16C10.91 30.3 11.2 30.3 11.43 30.16L13.93 28.7C14.16 28.57 14.3 28.32 14.3 28.05V25.13C14.3 24.86 14.16 24.62 13.93 24.48L11.43 23.02C11.31 22.95 11.18 22.92 11.05 22.92" fill="#D6D2D2"/>
<path d="M7.73001 24.59C7.57001 24.59 7.41002 24.55 7.27002 24.47L4.77002 23.01C4.49002 22.85 4.31 22.54 4.31 22.22V19.3C4.31 18.97 4.49002 18.67 4.77002 18.51L7.27002 17.05C7.56002 16.88 7.91 16.88 8.19 17.05L10.69 18.51C10.97 18.67 11.15 18.98 11.15 19.3V22.22C11.15 22.55 10.98 22.85 10.69 23.01L8.19 24.47C8.05 24.55 7.89001 24.59 7.73001 24.59ZM7.73001 17.09C7.60001 17.09 7.47001 17.12 7.35001 17.19L4.85001 18.65C4.62001 18.78 4.48001 19.03 4.48001 19.3V22.22C4.48001 22.49 4.62001 22.73 4.85001 22.87L7.35001 24.33C7.58001 24.47 7.87001 24.47 8.10001 24.33L10.6 22.87C10.83 22.74 10.97 22.49 10.97 22.22V19.3C10.97 19.03 10.83 18.79 10.6 18.65L8.10001 17.19C7.98001 17.12 7.85 17.09 7.72 17.09" fill="#D6D2D2"/>
<path d="M4.39001 30.42C4.23001 30.42 4.07002 30.38 3.93002 30.3L1.43002 28.84C1.15002 28.68 0.970001 28.37 0.970001 28.05V25.13C0.970001 24.8 1.15002 24.5 1.43002 24.34L3.93002 22.88C4.22002 22.71 4.57001 22.71 4.85001 22.88L7.35001 24.34C7.63001 24.51 7.81 24.81 7.81 25.13V28.05C7.81 28.38 7.63001 28.68 7.35001 28.84L4.85001 30.3C4.71001 30.38 4.55001 30.42 4.39001 30.42ZM4.39001 22.92C4.26001 22.92 4.13001 22.95 4.01001 23.02L1.51001 24.48C1.28001 24.61 1.14001 24.86 1.14001 25.13V28.05C1.14001 28.32 1.28001 28.56 1.51001 28.7L4.01001 30.16C4.24001 30.3 4.53001 30.3 4.76001 30.16L7.26001 28.7C7.49001 28.57 7.63 28.32 7.63 28.05V25.13C7.63 24.86 7.49001 24.62 7.26001 24.48L4.76001 23.02C4.64001 22.95 4.51 22.92 4.38 22.92" fill="#D6D2D2"/>
<path d="M11.06 42.1C10.9 42.1 10.74 42.06 10.6 41.98L8.10001 40.52C7.82001 40.36 7.64001 40.05 7.64001 39.73V36.81C7.64001 36.48 7.82001 36.18 8.10001 36.02L10.6 34.56C10.89 34.39 11.24 34.39 11.52 34.56L14.02 36.02C14.3 36.18 14.48 36.49 14.48 36.81V39.73C14.48 40.05 14.3 40.36 14.02 40.52L11.52 41.98C11.38 42.06 11.22 42.1 11.06 42.1ZM11.06 34.6C10.93 34.6 10.8 34.63 10.68 34.7L8.18002 36.16C7.95002 36.29 7.81 36.54 7.81 36.81V39.73C7.81 39.99 7.95002 40.24 8.18002 40.38L10.68 41.84C10.91 41.98 11.2 41.98 11.43 41.84L13.93 40.38C14.16 40.25 14.3 40 14.3 39.73V36.81C14.3 36.54 14.16 36.3 13.93 36.16L11.43 34.7C11.31 34.63 11.18 34.6 11.05 34.6" fill="#D6D2D2"/>
<path d="M7.73001 47.93C7.57001 47.93 7.41002 47.89 7.27002 47.81L4.77002 46.35C4.49002 46.19 4.31 45.88 4.31 45.56V42.64C4.31 42.31 4.49002 42.01 4.77002 41.85L7.27002 40.39C7.56002 40.22 7.91 40.22 8.19 40.39L10.69 41.85C10.97 42.01 11.15 42.32 11.15 42.64V45.56C11.15 45.89 10.97 46.19 10.69 46.35L8.19 47.81C8.05 47.89 7.89001 47.93 7.73001 47.93ZM7.73001 40.43C7.60001 40.43 7.47001 40.46 7.35001 40.53L4.85001 41.99C4.62001 42.12 4.48001 42.37 4.48001 42.64V45.56C4.48001 45.82 4.62001 46.07 4.85001 46.21L7.35001 47.67C7.58001 47.8 7.87001 47.8 8.10001 47.67L10.6 46.21C10.83 46.08 10.97 45.83 10.97 45.56V42.64C10.97 42.37 10.83 42.13 10.6 41.99L8.10001 40.53C7.98001 40.46 7.85 40.43 7.72 40.43" fill="#D6D2D2"/>
<path d="M7.73001 36.26C7.57001 36.26 7.41002 36.22 7.27002 36.14L4.77002 34.68C4.49002 34.52 4.31 34.21 4.31 33.89V30.97C4.31 30.64 4.49002 30.34 4.77002 30.18L7.27002 28.72C7.56002 28.55 7.91 28.55 8.19 28.72L10.69 30.18C10.97 30.35 11.15 30.65 11.15 30.97V33.89C11.15 34.22 10.97 34.52 10.69 34.68L8.19 36.14C8.05 36.22 7.89001 36.26 7.73001 36.26ZM7.73001 28.76C7.60001 28.76 7.47001 28.79 7.35001 28.86L4.85001 30.32C4.62001 30.45 4.48001 30.7 4.48001 30.97V33.89C4.48001 34.16 4.62001 34.4 4.85001 34.54L7.35001 36C7.58001 36.14 7.87001 36.14 8.10001 36L10.6 34.54C10.83 34.41 10.97 34.16 10.97 33.89V30.97C10.97 30.7 10.83 30.46 10.6 30.32L8.10001 28.86C7.98001 28.79 7.85 28.76 7.72 28.76" fill="#D6D2D2"/>
<path d="M4.39001 42.1C4.23001 42.1 4.07002 42.06 3.93002 41.98L1.43002 40.52C1.15002 40.36 0.970001 40.05 0.970001 39.73V36.81C0.970001 36.48 1.15002 36.18 1.43002 36.02L3.93002 34.56C4.21002 34.39 4.57001 34.39 4.85001 34.56L7.35001 36.02C7.63001 36.18 7.81 36.49 7.81 36.81V39.73C7.81 40.05 7.64001 40.36 7.35001 40.52L4.85001 41.98C4.71001 42.06 4.55001 42.1 4.39001 42.1ZM4.39001 34.6C4.26001 34.6 4.13001 34.63 4.01001 34.7L1.51001 36.16C1.28001 36.29 1.14001 36.54 1.14001 36.81V39.73C1.14001 39.99 1.28001 40.24 1.51001 40.38L4.01001 41.84C4.24001 41.98 4.53001 41.98 4.76001 41.84L7.26001 40.38C7.49001 40.25 7.63 40 7.63 39.73V36.81C7.63 36.54 7.49001 36.3 7.26001 36.16L4.76001 34.7C4.64001 34.63 4.51 34.6 4.38 34.6" fill="#D6D2D2"/>
<path d="M27.74 36.26C27.58 36.26 27.42 36.22 27.28 36.14L24.78 34.68C24.5 34.52 24.32 34.21 24.32 33.89V30.97C24.32 30.64 24.5 30.34 24.78 30.18L27.28 28.72C27.57 28.55 27.92 28.55 28.2 28.72L30.7 30.18C30.98 30.35 31.16 30.65 31.16 30.97V33.89C31.16 34.22 30.98 34.52 30.7 34.68L28.2 36.14C28.06 36.22 27.9 36.26 27.74 36.26ZM27.74 28.76C27.61 28.76 27.48 28.79 27.36 28.86L24.86 30.32C24.63 30.45 24.49 30.7 24.49 30.97V33.89C24.49 34.16 24.63 34.4 24.86 34.54L27.36 36C27.59 36.14 27.88 36.14 28.11 36L30.61 34.54C30.84 34.41 30.98 34.16 30.98 33.89V30.97C30.98 30.7 30.84 30.46 30.61 30.32L28.11 28.86C27.99 28.79 27.86 28.76 27.73 28.76" fill="#D6D2D2"/>
<path d="M24.4 42.1C24.24 42.1 24.08 42.06 23.94 41.98L21.44 40.52C21.16 40.36 20.98 40.05 20.98 39.73V36.81C20.98 36.48 21.16 36.18 21.44 36.02L23.94 34.56C24.23 34.39 24.58 34.39 24.86 34.56L27.36 36.02C27.64 36.18 27.82 36.49 27.82 36.81V39.73C27.82 40.06 27.64 40.36 27.36 40.52L24.86 41.98C24.72 42.06 24.56 42.1 24.4 42.1ZM24.4 34.6C24.27 34.6 24.14 34.63 24.02 34.7L21.52 36.16C21.29 36.29 21.15 36.54 21.15 36.81V39.73C21.15 39.99 21.29 40.24 21.52 40.38L24.02 41.84C24.25 41.97 24.54 41.97 24.77 41.84L27.27 40.38C27.5 40.25 27.64 40 27.64 39.73V36.81C27.64 36.54 27.5 36.3 27.27 36.16L24.77 34.7C24.65 34.63 24.52 34.6 24.39 34.6" fill="#D6D2D2"/>
<path d="M24.4 30.42C24.24 30.42 24.08 30.38 23.94 30.3L21.44 28.84C21.16 28.68 20.98 28.37 20.98 28.05V25.13C20.98 24.8 21.16 24.5 21.44 24.34L23.94 22.88C24.23 22.71 24.58 22.71 24.86 22.88L27.36 24.34C27.64 24.51 27.82 24.81 27.82 25.13V28.05C27.82 28.38 27.64 28.68 27.36 28.84L24.86 30.3C24.72 30.38 24.56 30.42 24.4 30.42ZM24.4 22.92C24.27 22.92 24.14 22.95 24.02 23.02L21.52 24.48C21.29 24.61 21.15 24.86 21.15 25.13V28.05C21.15 28.32 21.29 28.56 21.52 28.7L24.02 30.16C24.25 30.3 24.54 30.3 24.77 30.16L27.27 28.7C27.5 28.57 27.64 28.32 27.64 28.05V25.13C27.64 24.86 27.5 24.62 27.27 24.48L24.77 23.02C24.65 22.95 24.52 22.92 24.39 22.92" fill="#D6D2D2"/>
<path d="M21.07 36.26C20.91 36.26 20.75 36.22 20.61 36.14L18.11 34.68C17.83 34.52 17.65 34.21 17.65 33.89V30.97C17.65 30.64 17.83 30.34 18.11 30.18L20.61 28.72C20.9 28.55 21.25 28.55 21.53 28.72L24.03 30.18C24.31 30.35 24.49 30.65 24.49 30.97V33.89C24.49 34.22 24.31 34.52 24.03 34.68L21.53 36.14C21.39 36.22 21.23 36.26 21.07 36.26ZM21.07 28.76C20.94 28.76 20.81 28.79 20.69 28.86L18.19 30.32C17.96 30.45 17.82 30.7 17.82 30.97V33.89C17.82 34.16 17.96 34.4 18.19 34.54L20.69 36C20.92 36.14 21.21 36.14 21.44 36L23.94 34.54C24.17 34.41 24.31 34.16 24.31 33.89V30.97C24.31 30.7 24.17 30.46 23.94 30.32L21.44 28.86C21.32 28.79 21.19 28.76 21.06 28.76" fill="#D6D2D2"/>
<path d="M21.08 59.5C20.92 59.5 20.76 59.46 20.62 59.38L18.12 57.92C17.84 57.76 17.66 57.45 17.66 57.13V54.21C17.66 53.88 17.83 53.58 18.12 53.42L20.62 51.96C20.91 51.79 21.26 51.79 21.54 51.96L24.04 53.42C24.32 53.58 24.5 53.89 24.5 54.21V57.13C24.5 57.46 24.32 57.76 24.04 57.92L21.54 59.38C21.4 59.46 21.24 59.5 21.08 59.5ZM21.08 52C20.95 52 20.82 52.03 20.7 52.1L18.2 53.56C17.97 53.69 17.83 53.94 17.83 54.21V57.13C17.83 57.4 17.97 57.64 18.2 57.78L20.7 59.24C20.93 59.37 21.22 59.37 21.45 59.24L23.95 57.78C24.18 57.65 24.32 57.4 24.32 57.13V54.21C24.32 53.95 24.18 53.7 23.95 53.56L21.45 52.1C21.33 52.03 21.2 52 21.07 52" fill="#D6D2D2"/>
<path d="M14.41 47.82C14.25 47.82 14.09 47.78 13.95 47.7L11.45 46.24C11.17 46.08 10.99 45.77 10.99 45.45V42.53C10.99 42.2 11.17 41.9 11.45 41.74L13.95 40.28C14.24 40.11 14.59 40.11 14.87 40.28L17.37 41.74C17.65 41.9 17.83 42.21 17.83 42.53V45.45C17.83 45.78 17.65 46.08 17.37 46.24L14.87 47.7C14.73 47.78 14.57 47.82 14.41 47.82ZM14.41 40.32C14.28 40.32 14.15 40.35 14.03 40.42L11.53 41.88C11.3 42.01 11.16 42.26 11.16 42.53V45.45C11.16 45.72 11.3 45.96 11.53 46.1L14.03 47.56C14.26 47.7 14.55 47.7 14.78 47.56L17.28 46.1C17.51 45.97 17.65 45.72 17.65 45.45V42.53C17.65 42.27 17.51 42.02 17.28 41.88L14.78 40.42C14.66 40.35 14.53 40.32 14.4 40.32" fill="#D6D2D2"/>
<path d="M17.75 41.99C17.59 41.99 17.43 41.95 17.29 41.87L14.79 40.41C14.51 40.25 14.33 39.94 14.33 39.62V36.7C14.33 36.37 14.51 36.07 14.79 35.91L17.29 34.45C17.58 34.28 17.93 34.28 18.21 34.45L20.71 35.91C20.99 36.07 21.17 36.38 21.17 36.7V39.62C21.17 39.94 20.99 40.25 20.71 40.41L18.21 41.87C18.07 41.95 17.91 41.99 17.75 41.99ZM17.75 34.49C17.62 34.49 17.49 34.52 17.37 34.59L14.87 36.05C14.64 36.18 14.5 36.43 14.5 36.7V39.62C14.5 39.89 14.64 40.13 14.87 40.27L17.37 41.73C17.6 41.86 17.89 41.86 18.12 41.73L20.62 40.27C20.85 40.14 20.99 39.89 20.99 39.62V36.7C20.99 36.43 20.85 36.19 20.62 36.05L18.12 34.59C18 34.52 17.87 34.49 17.74 34.49" fill="#D6D2D2"/>
<path d="M17.75 53.66C17.59 53.66 17.43 53.62 17.29 53.54L14.79 52.08C14.51 51.92 14.33 51.61 14.33 51.29V48.37C14.33 48.04 14.51 47.74 14.79 47.58L17.29 46.12C17.58 45.95 17.93 45.95 18.21 46.12L20.71 47.58C20.99 47.74 21.17 48.05 21.17 48.37V51.29C21.17 51.61 21 51.92 20.71 52.08L18.21 53.54C18.07 53.62 17.91 53.66 17.75 53.66ZM17.75 46.16C17.62 46.16 17.49 46.19 17.37 46.26L14.87 47.72C14.64 47.85 14.5 48.1 14.5 48.37V51.29C14.5 51.56 14.64 51.8 14.87 51.94L17.37 53.4C17.6 53.54 17.89 53.54 18.12 53.4L20.62 51.94C20.85 51.81 20.99 51.56 20.99 51.29V48.37C20.99 48.11 20.85 47.86 20.62 47.72L18.12 46.26C18 46.19 17.87 46.16 17.74 46.16" fill="#D6D2D2"/>
<path d="M21.08 47.83C20.92 47.83 20.76 47.79 20.62 47.71L18.12 46.25C17.84 46.09 17.66 45.78 17.66 45.46V42.54C17.66 42.22 17.84 41.91 18.12 41.75L20.62 40.29C20.91 40.12 21.26 40.12 21.54 40.29L24.04 41.75C24.32 41.91 24.5 42.22 24.5 42.54V45.46C24.5 45.79 24.32 46.09 24.04 46.25L21.54 47.71C21.4 47.79 21.24 47.83 21.08 47.83ZM21.08 40.33C20.95 40.33 20.82 40.36 20.7 40.43L18.2 41.89C17.97 42.02 17.83 42.27 17.83 42.54V45.46C17.83 45.73 17.97 45.97 18.2 46.11L20.7 47.57C20.93 47.71 21.22 47.71 21.45 47.57L23.95 46.11C24.18 45.98 24.32 45.73 24.32 45.46V42.54C24.32 42.28 24.18 42.03 23.95 41.89L21.45 40.43C21.33 40.36 21.2 40.33 21.07 40.33" fill="#D6D2D2"/>
<path d="M57.78 65.3C57.62 65.3 57.46 65.26 57.32 65.18L54.82 63.72C54.54 63.56 54.36 63.25 54.36 62.93V60.01C54.36 59.69 54.53 59.38 54.82 59.22L57.32 57.76C57.61 57.59 57.96 57.59 58.24 57.76L60.74 59.22C61.02 59.38 61.2 59.69 61.2 60.01V62.93C61.2 63.26 61.02 63.56 60.74 63.72L58.24 65.18C58.1 65.26 57.94 65.3 57.78 65.3ZM57.78 57.8C57.65 57.8 57.52 57.83 57.4 57.9L54.9 59.36C54.67 59.49 54.53 59.74 54.53 60.01V62.93C54.53 63.2 54.67 63.44 54.9 63.58L57.4 65.04C57.63 65.17 57.92 65.17 58.15 65.04L60.65 63.58C60.88 63.45 61.02 63.2 61.02 62.93V60.01C61.02 59.75 60.88 59.5 60.65 59.36L58.15 57.9C58.03 57.83 57.9 57.8 57.77 57.8" fill="#D6D2D2"/>
<path d="M47.47 71.14C47.31 71.14 47.15 71.1 47.01 71.02L44.51 69.56C44.23 69.4 44.05 69.09 44.05 68.77V65.85C44.05 65.52 44.23 65.22 44.51 65.06L47.01 63.6C47.29 63.43 47.6501 63.43 47.9301 63.6L50.4301 65.06C50.7101 65.22 50.89 65.53 50.89 65.85V68.77C50.89 69.09 50.7101 69.4 50.4301 69.56L47.9301 71.02C47.7901 71.1 47.63 71.14 47.47 71.14ZM47.47 63.64C47.34 63.64 47.21 63.67 47.09 63.74L44.59 65.2C44.36 65.33 44.22 65.58 44.22 65.85V68.77C44.22 69.04 44.36 69.28 44.59 69.42L47.09 70.88C47.32 71.02 47.61 71.02 47.84 70.88L50.34 69.42C50.57 69.29 50.7101 69.04 50.7101 68.77V65.85C50.7101 65.59 50.57 65.34 50.34 65.2L47.84 63.74C47.72 63.67 47.5901 63.64 47.4601 63.64" fill="#D6D2D2"/>
<path d="M50.81 65.3C50.65 65.3 50.49 65.26 50.35 65.18L47.85 63.72C47.57 63.56 47.39 63.25 47.39 62.93V60.01C47.39 59.69 47.57 59.38 47.85 59.22L50.35 57.76C50.64 57.59 50.99 57.59 51.27 57.76L53.77 59.22C54.05 59.38 54.23 59.69 54.23 60.01V62.93C54.23 63.26 54.05 63.56 53.77 63.72L51.27 65.18C51.13 65.26 50.97 65.3 50.81 65.3ZM50.81 57.8C50.68 57.8 50.55 57.83 50.43 57.9L47.93 59.36C47.7 59.49 47.56 59.74 47.56 60.01V62.93C47.56 63.2 47.7 63.44 47.93 63.58L50.43 65.04C50.66 65.17 50.95 65.17 51.18 65.04L53.68 63.58C53.91 63.45 54.05 63.2 54.05 62.93V60.01C54.05 59.75 53.91 59.5 53.68 59.36L51.18 57.9C51.06 57.83 50.93 57.8 50.8 57.8" fill="#D6D2D2"/>
<path d="M50.81 76.97C50.65 76.97 50.49 76.93 50.35 76.85L47.85 75.39C47.57 75.23 47.39 74.92 47.39 74.6V71.68C47.39 71.35 47.57 71.05 47.85 70.89L50.35 69.43C50.64 69.26 50.99 69.26 51.27 69.43L53.77 70.89C54.05 71.05 54.23 71.36 54.23 71.68V74.6C54.23 74.93 54.05 75.23 53.77 75.39L51.27 76.85C51.13 76.93 50.97 76.97 50.81 76.97ZM50.81 69.47C50.68 69.47 50.55 69.5 50.43 69.57L47.93 71.03C47.7 71.16 47.56 71.41 47.56 71.68V74.6C47.56 74.86 47.7 75.11 47.93 75.25L50.43 76.71C50.66 76.84 50.95 76.84 51.18 76.71L53.68 75.25C53.91 75.12 54.05 74.87 54.05 74.6V71.68C54.05 71.41 53.91 71.17 53.68 71.03L51.18 69.57C51.06 69.5 50.93 69.47 50.8 69.47" fill="#D6D2D2"/>
<path d="M54.14 71.14C53.98 71.14 53.82 71.1 53.68 71.02L51.18 69.56C50.9 69.4 50.72 69.09 50.72 68.77V65.85C50.72 65.52 50.89 65.22 51.18 65.06L53.68 63.6C53.97 63.43 54.32 63.43 54.6 63.6L57.1 65.06C57.38 65.22 57.56 65.53 57.56 65.85V68.77C57.56 69.09 57.38 69.4 57.1 69.56L54.6 71.02C54.46 71.1 54.3 71.14 54.14 71.14ZM54.14 63.64C54.01 63.64 53.88 63.67 53.76 63.74L51.26 65.2C51.03 65.33 50.89 65.58 50.89 65.85V68.77C50.89 69.04 51.03 69.28 51.26 69.42L53.76 70.88C53.99 71.02 54.28 71.02 54.51 70.88L57.01 69.42C57.24 69.29 57.38 69.04 57.38 68.77V65.85C57.38 65.59 57.24 65.34 57.01 65.2L54.51 63.74C54.39 63.67 54.26 63.64 54.13 63.64" fill="#D6D2D2"/>
<path d="M105.1 23.76H23.87V28.92H105.1V23.76Z" fill="#D3D3D3"/>
<path d="M64.48 28.91C75.69 28.91 86.38 28.77 96.1 28.51C98.53 28.44 100.9 28.37 103.2 28.29C104.35 28.25 105.48 28.21 106.6 28.17H105.43V23.42H23.53V28.17H22.36C23.48 28.21 24.61 28.26 25.76 28.29C28.06 28.37 30.43 28.44 32.86 28.51C42.58 28.77 53.26 28.91 64.48 28.91Z" fill="#D3D3D3"/>
<path d="M64.48 28.57C74.95 28.57 84.92 28.43 93.99 28.19C98.53 28.07 102.83 27.92 106.87 27.75H105.44V23.42H23.54V27.75H22.11C26.14 27.92 30.45 28.07 34.99 28.19C44.06 28.43 54.03 28.57 64.5 28.57" fill="#D2D2D2"/>
<path d="M64.48 28.23C74.2 28.23 83.46 28.11 91.88 27.88C96.09 27.77 100.09 27.63 103.84 27.47C104.78 27.43 105.7 27.39 106.6 27.35H105.43V23.43H23.53V27.35H22.36C23.26 27.39 24.18 27.43 25.12 27.47C28.87 27.63 32.87 27.77 37.08 27.88C45.5 28.11 54.76 28.23 64.48 28.23Z" fill="#D1D1D1"/>
<path d="M64.48 27.88C73.45 27.88 82 27.77 89.77 27.56C93.66 27.46 97.35 27.33 100.81 27.18C102.54 27.11 104.21 27.03 105.81 26.94H105.43V23.42H23.53V26.94H23.15C24.75 27.02 26.42 27.1 28.15 27.18C31.61 27.33 35.3 27.46 39.19 27.56C46.96 27.77 55.51 27.88 64.48 27.88Z" fill="#D0D0D0"/>
<path d="M64.48 27.54C80.93 27.54 95.82 27.12 106.6 26.43H105.43V23.42H23.53V26.43H22.36C33.14 27.11 48.03 27.54 64.48 27.54Z" fill="#CFCFCF"/>
<path d="M64.48 27.2C79.43 27.2 92.97 26.81 102.77 26.19C103.99 26.11 105.16 26.03 106.26 25.95H105.43V23.42H23.53V25.95H22.7C23.8 26.04 24.97 26.12 26.19 26.19C35.99 26.81 49.53 27.2 64.48 27.2Z" fill="#CECECE"/>
<path d="M64.48 26.85C77.94 26.85 90.12 26.5 98.94 25.94C101.14 25.8 103.14 25.65 104.89 25.48C105.77 25.4 106.58 25.31 107.33 25.23H105.43V23.41H23.53V25.23H21.63C22.38 25.32 23.2 25.4 24.07 25.48C25.82 25.64 27.82 25.8 30.02 25.94C38.84 26.5 51.02 26.85 64.48 26.85Z" fill="#CDCDCD"/>
<path d="M64.48 26.51C88.4 26.51 107.8 25.28 107.8 23.76C107.8 23 102.95 22.31 95.11 21.81V23.42H33.85V21.81C26.01 22.31 21.16 23 21.16 23.76C21.16 25.28 40.56 26.51 64.48 26.51Z" fill="#CCCCCC"/>
<path d="M64.48 26.16C85.41 26.16 102.38 25.08 102.38 23.75C102.38 22.42 85.41 21.34 64.48 21.34C43.55 21.34 26.58 22.42 26.58 23.75C26.58 25.08 43.55 26.16 64.48 26.16Z" fill="#CBCBCB"/>
<path d="M64.48 25.82C82.42 25.82 96.97 24.9 96.97 23.76C96.97 22.62 82.42 21.7 64.48 21.7C46.54 21.7 31.99 22.62 31.99 23.76C31.99 24.9 46.54 25.82 64.48 25.82Z" fill="#CACACA"/>
<path d="M64.48 25.48C79.43 25.48 91.56 24.71 91.56 23.76C91.56 22.81 79.44 22.04 64.48 22.04C49.52 22.04 37.4 22.81 37.4 23.76C37.4 24.71 49.52 25.48 64.48 25.48Z" fill="#C9C9C9"/>
<path d="M64.48 25.13C76.44 25.13 86.14 24.51 86.14 23.75C86.14 22.99 76.44 22.37 64.48 22.37C52.52 22.37 42.82 22.98 42.82 23.75C42.82 24.52 52.52 25.13 64.48 25.13Z" fill="#C8C8C8"/>
<path d="M64.48 24.79C73.45 24.79 80.72 24.33 80.72 23.76C80.72 23.19 73.45 22.73 64.48 22.73C55.51 22.73 48.24 23.19 48.24 23.76C48.24 24.33 55.51 24.79 64.48 24.79Z" fill="#C7C7C7"/>
<path d="M64.48 24.45C70.46 24.45 75.31 24.14 75.31 23.76C75.31 23.38 70.46 23.07 64.48 23.07C58.5 23.07 53.65 23.38 53.65 23.76C53.65 24.14 58.5 24.45 64.48 24.45Z" fill="#C6C6C6"/>
<path d="M64.48 24.1C67.47 24.1 69.9 23.95 69.9 23.76C69.9 23.57 67.48 23.42 64.48 23.42C61.48 23.42 59.06 23.57 59.06 23.76C59.06 23.95 61.48 24.1 64.48 24.1Z" fill="#C5C5C4"/>
<path d="M28.43 23.76H23.27V76.62H28.43V23.76Z" fill="#D3D3D3"/>
<path d="M28.42 50.19C28.42 57.49 28.28 64.44 28.02 70.77C27.95 72.35 27.88 73.89 27.8 75.39C27.76 76.14 27.72 76.88 27.68 77.6V76.96H22.93V23.42H27.68V22.78C27.72 23.51 27.77 24.24 27.8 24.99C27.88 26.49 27.95 28.03 28.02 29.61C28.28 35.93 28.42 42.89 28.42 50.19Z" fill="#D3D3D3"/>
<path d="M28.08 50.19C28.08 57 27.94 63.49 27.7 69.39C27.58 72.34 27.43 75.15 27.26 77.77V76.95H22.93V23.42H27.26V22.6C27.43 25.22 27.58 28.03 27.7 30.98C27.94 36.88 28.08 43.37 28.08 50.18" fill="#D2D2D2"/>
<path d="M27.74 50.19C27.74 56.51 27.62 62.54 27.39 68.02C27.28 70.76 27.14 73.36 26.98 75.8C26.9 77.02 26.81 78.19 26.72 79.33V76.96H22.93V23.42H26.72V21.05C26.81 22.18 26.9 23.36 26.98 24.58C27.14 27.02 27.28 29.62 27.39 32.36C27.62 37.84 27.74 43.87 27.74 50.19Z" fill="#D1D1D1"/>
<path d="M27.39 50.19C27.39 56.03 27.27 61.59 27.07 66.65C26.97 69.18 26.84 71.58 26.69 73.83C26.62 74.95 26.54 76.04 26.45 77.09V76.96H22.93V23.42H26.45V23.29C26.53 24.34 26.61 25.42 26.69 26.55C26.84 28.8 26.97 31.2 27.07 33.73C27.28 38.79 27.39 44.35 27.39 50.19Z" fill="#D0D0D0"/>
<path d="M27.05 50.19C27.05 60.9 26.63 70.59 25.94 77.6V76.96H22.93V23.42H25.94V22.78C26.62 29.79 27.05 39.49 27.05 50.19Z" fill="#CFCFCF"/>
<path d="M26.71 50.19C26.71 59.92 26.32 68.73 25.7 75.11C25.62 75.91 25.54 76.67 25.46 77.38V76.96H22.93V23.42H25.46V23C25.54 23.72 25.63 24.48 25.7 25.27C26.32 31.65 26.71 40.46 26.71 50.19Z" fill="#CECECE"/>
<path d="M26.36 50.19C26.36 58.95 26.01 66.88 25.45 72.62C25.31 74.05 25.16 75.35 24.99 76.49C24.91 77.06 24.82 77.59 24.74 78.08V76.96H22.92V23.42H24.74V22.3C24.83 22.79 24.91 23.32 24.99 23.89C25.16 25.03 25.31 26.33 25.45 27.76C26.01 33.5 26.36 41.43 26.36 50.19Z" fill="#CDCDCD"/>
<path d="M26.02 50.19C26.02 65.76 24.79 78.38 23.27 78.38C22.51 78.38 21.82 75.22 21.32 70.12H22.93V30.25H21.32C21.82 25.15 22.5 21.99 23.27 21.99C24.79 21.99 26.02 34.61 26.02 50.18" fill="#CCCCCC"/>
<path d="M25.67 50.19C25.67 63.81 24.59 74.86 23.26 74.86C21.93 74.86 20.85 63.82 20.85 50.19C20.85 36.56 21.93 25.52 23.26 25.52C24.59 25.52 25.67 36.56 25.67 50.19Z" fill="#CBCBCB"/>
<path d="M25.33 50.19C25.33 61.87 24.41 71.34 23.27 71.34C22.13 71.34 21.21 61.87 21.21 50.19C21.21 38.51 22.13 29.05 23.27 29.05C24.41 29.05 25.33 38.52 25.33 50.19Z" fill="#CACACA"/>
<path d="M24.99 50.19C24.99 59.92 24.22 67.81 23.27 67.81C22.32 67.81 21.55 59.92 21.55 50.19C21.55 40.46 22.32 32.57 23.27 32.57C24.22 32.57 24.99 40.46 24.99 50.19Z" fill="#C9C9C9"/>
<path d="M24.64 50.19C24.64 57.98 24.02 64.29 23.26 64.29C22.5 64.29 21.88 57.98 21.88 50.19C21.88 42.4 22.49 36.09 23.26 36.09C24.03 36.09 24.64 42.4 24.64 50.19Z" fill="#C8C8C8"/>
<path d="M24.3 50.19C24.3 56.03 23.84 60.76 23.27 60.76C22.7 60.76 22.24 56.03 22.24 50.19C22.24 44.35 22.7 39.62 23.27 39.62C23.84 39.62 24.3 44.35 24.3 50.19Z" fill="#C7C7C7"/>
<path d="M23.96 50.19C23.96 54.08 23.65 57.24 23.27 57.24C22.89 57.24 22.58 54.09 22.58 50.19C22.58 46.29 22.89 43.14 23.27 43.14C23.65 43.14 23.96 46.29 23.96 50.19Z" fill="#C6C6C6"/>
<path d="M23.61 50.19C23.61 52.14 23.46 53.71 23.27 53.71C23.08 53.71 22.93 52.13 22.93 50.19C22.93 48.25 23.08 46.67 23.27 46.67C23.46 46.67 23.61 48.25 23.61 50.19Z" fill="#C5C5C4"/>
<path d="M104.76 0.339996V23.23H23.23V76.41H0.339996V23.23V0.339996H104.76Z" fill="white"/>
<path d="M82.22 23.4C82.13 23.4 82.05 23.32 82.05 23.23V0.339998C82.05 0.249998 82.13 0.169998 82.22 0.169998C82.31 0.169998 82.39 0.249998 82.39 0.339998V23.23C82.39 23.32 82.31 23.4 82.22 23.4Z" fill="#BBBBBB"/>
<path d="M23.23 53.78H0.339996C0.249996 53.78 0.170013 53.7 0.170013 53.61C0.170013 53.52 0.249996 53.44 0.339996 53.44H23.23C23.32 53.44 23.4 53.52 23.4 53.61C23.4 53.7 23.32 53.78 23.23 53.78Z" fill="#BBBBBB"/>
<path d="M63.91 23.4C63.82 23.4 63.74 23.32 63.74 23.23V0.339998C63.74 0.249998 63.82 0.169998 63.91 0.169998C64 0.169998 64.08 0.249998 64.08 0.339998V23.23C64.08 23.32 64 23.4 63.91 23.4Z" fill="#BBBBBB"/>
<path d="M23.19 48.23H0.300018C0.210018 48.23 0.130005 48.15 0.130005 48.06C0.130005 47.97 0.210018 47.89 0.300018 47.89H23.19C23.28 47.89 23.36 47.97 23.36 48.06C23.36 48.15 23.28 48.23 23.19 48.23Z" fill="#BBBBBB"/>
<path d="M23.23 23.4H0.339996C0.249996 23.4 0.170013 23.32 0.170013 23.23C0.170013 23.14 0.249996 23.06 0.339996 23.06H23.23C23.32 23.06 23.4 23.14 23.4 23.23C23.4 23.32 23.32 23.4 23.23 23.4Z" fill="#BBBBBB"/>
<path d="M41.37 23.4C41.28 23.4 41.2 23.32 41.2 23.23V0.339998C41.2 0.249998 41.28 0.169998 41.37 0.169998C41.46 0.169998 41.54 0.249998 41.54 0.339998V23.23C41.54 23.32 41.46 23.4 41.37 23.4Z" fill="#BBBBBB"/>
<path d="M23.32 23.4C23.23 23.4 23.15 23.32 23.15 23.23V0.339998C23.15 0.249998 23.23 0.169998 23.32 0.169998C23.41 0.169998 23.49 0.249998 23.49 0.339998V23.23C23.49 23.32 23.41 23.4 23.32 23.4Z" fill="#BBBBBB"/>
<path d="M11.79 70.66C11.7 70.66 11.62 70.58 11.62 70.49V58.25C11.62 58.16 11.7 58.08 11.79 58.08C11.88 58.08 11.96 58.16 11.96 58.25V70.49C11.96 70.58 11.88 70.66 11.79 70.66Z" fill="#BBBBBB"/>
<path d="M17.91 64.54H5.67001C5.58001 64.54 5.5 64.46 5.5 64.37C5.5 64.28 5.57001 64.2 5.67001 64.2H17.91C18 64.2 18.08 64.28 18.08 64.37C18.08 64.46 18 64.54 17.91 64.54Z" fill="#BBBBBB"/>
<path d="M16.11 68.86C16.11 68.86 16.02 68.84 15.99 68.81L7.34001 60.16C7.27001 60.09 7.27001 59.99 7.34001 59.92C7.41001 59.85 7.51003 59.85 7.58003 59.92L16.23 68.57C16.3 68.64 16.3 68.74 16.23 68.81C16.2 68.84 16.15 68.86 16.11 68.86Z" fill="#BBBBBB"/>
<path d="M7.46003 68.86C7.46003 68.86 7.37001 68.84 7.34001 68.81C7.27001 68.74 7.27001 68.64 7.34001 68.57L15.99 59.92C16.06 59.85 16.16 59.85 16.23 59.92C16.3 59.99 16.3 60.09 16.23 60.16L7.58003 68.81C7.58003 68.81 7.50003 68.86 7.46003 68.86Z" fill="#BBBBBB"/>
<path d="M2.46002 43.99C2.46002 45.09 3.36002 45.99 4.46002 45.99H19.04C20.14 45.99 21.04 45.09 21.04 43.99V28.17C21.04 27.07 20.14 26.17 19.04 26.17H4.46002C3.36002 26.17 2.46002 27.07 2.46002 28.17V43.99Z" fill="white"/>
<path d="M19.04 46.15H4.46002C3.27002 46.15 2.30001 45.19 2.29001 44V28.17C2.29001 26.97 3.26002 26 4.46002 26H19.04C20.23 26 21.21 26.97 21.21 28.17V43.99C21.21 45.18 20.24 46.16 19.04 46.16M2.63 43.98V44C2.63 45.01 3.45002 45.83 4.46002 45.83H19.04C20.05 45.83 20.87 45.01 20.87 44V28.18C20.87 27.17 20.05 26.35 19.04 26.35H4.46002C3.45002 26.35 2.63 27.17 2.63 28.18V43.98Z" fill="#BBBBBB"/>
<path d="M17.89 44.7H7.14001C6.24001 44.7 5.5 43.86 5.5 42.83V29.33C5.5 28.3 6.24001 27.46 7.14001 27.46H17.89C18.79 27.46 19.53 28.3 19.53 29.33V42.83C19.53 43.86 18.79 44.7 17.89 44.7ZM7.14001 27.8C6.42001 27.8 5.84 28.49 5.84 29.33V42.83C5.84 43.68 6.42001 44.36 7.14001 44.36H17.89C18.61 44.36 19.19 43.67 19.19 42.83V29.33C19.19 28.48 18.61 27.8 17.89 27.8H7.14001Z" fill="#BBBBBB"/>
<path d="M13.22 39.66C14.64 39.66 15.8 38.51 15.8 37.08C15.8 35.65 14.65 34.5 13.22 34.5C11.79 34.5 10.64 35.65 10.64 37.08C10.64 38.51 11.79 39.66 13.22 39.66Z" fill="white"/>
<path d="M13.22 39.83C11.7 39.83 10.47 38.6 10.47 37.08C10.47 35.56 11.7 34.33 13.22 34.33C14.74 34.33 15.97 35.56 15.97 37.08C15.97 38.6 14.74 39.83 13.22 39.83ZM13.22 34.67C11.89 34.67 10.81 35.75 10.81 37.08C10.81 38.41 11.89 39.49 13.22 39.49C14.55 39.49 15.63 38.41 15.63 37.08C15.63 35.75 14.55 34.67 13.22 34.67Z" fill="#BBBBBB"/>
<path d="M13.852 32.0675L9.6644 32.3897L9.69048 32.7287L13.8781 32.4065L13.852 32.0675Z" fill="#BBBBBB"/>
<path d="M17.28 39.13L13.18 38.2L13.26 37.87L17.36 38.79L17.28 39.13Z" fill="#BBBBBB"/>
<path d="M3.55002 37.73V35.8H7.74002H11.93V37.73H3.55002Z" fill="white"/>
<path d="M11.93 37.9H3.55002C3.46002 37.9 3.38 37.82 3.38 37.73V35.8C3.38 35.71 3.46002 35.63 3.55002 35.63H11.93C12.02 35.63 12.1 35.71 12.1 35.8V37.73C12.1 37.82 12.02 37.9 11.93 37.9ZM3.72 37.56H11.76V35.97H3.72V37.56Z" fill="#BBBBBB"/>
<path d="M23.23 76.75H0.339996C0.149996 76.75 0 76.6 0 76.41V0.34C0 0.15 0.149996 0 0.339996 0H104.76C104.95 0 105.1 0.15 105.1 0.34V23.23C105.1 23.42 104.95 23.57 104.76 23.57H23.57V76.41C23.57 76.6 23.42 76.75 23.23 76.75ZM0.680023 76.07H22.89V23.23C22.89 23.04 23.04 22.89 23.23 22.89H104.42V0.68H0.680023V76.07Z" fill="#595A5C"/>
<path d="M46.83 11.31C44.66 11.31 42.9 9.55 42.9 7.38C42.9 5.21 44.66 3.45 46.83 3.45C49 3.45 50.76 5.21 50.76 7.38C50.76 9.55 49 11.31 46.83 11.31ZM46.83 3.79C44.85 3.79 43.24 5.4 43.24 7.38C43.24 9.36 44.85 10.97 46.83 10.97C48.81 10.97 50.42 9.36 50.42 7.38C50.42 5.4 48.81 3.79 46.83 3.79Z" fill="#BBBBBB"/>
<path d="M46.83 19.68C45.33 19.68 44.1 18.46 44.1 16.95C44.1 15.44 45.32 14.22 46.83 14.22C48.34 14.22 49.56 15.44 49.56 16.95C49.56 18.46 48.34 19.68 46.83 19.68ZM46.83 14.57C45.51 14.57 44.44 15.64 44.44 16.96C44.44 18.28 45.51 19.35 46.83 19.35C48.15 19.35 49.22 18.28 49.22 16.96C49.22 15.64 48.15 14.57 46.83 14.57Z" fill="#BBBBBB"/>
<path d="M57.77 19.68C55.6 19.68 53.84 17.92 53.84 15.75C53.84 13.58 55.6 11.82 57.77 11.82C59.94 11.82 61.7 13.58 61.7 15.75C61.7 17.92 59.94 19.68 57.77 19.68ZM57.77 12.16C55.79 12.16 54.18 13.77 54.18 15.75C54.18 17.73 55.79 19.34 57.77 19.34C59.75 19.34 61.36 17.73 61.36 15.75C61.36 13.77 59.75 12.16 57.77 12.16Z" fill="#BBBBBB"/>
<path d="M57.78 8.9C56.28 8.9 55.05 7.68 55.05 6.17C55.05 4.66 56.27 3.44 57.78 3.44C59.29 3.44 60.51 4.66 60.51 6.17C60.51 7.68 59.29 8.9 57.78 8.9ZM57.78 3.79C56.46 3.79 55.39 4.86 55.39 6.18C55.39 7.5 56.46 8.57 57.78 8.57C59.1 8.57 60.17 7.5 60.17 6.18C60.17 4.86 59.1 3.79 57.78 3.79Z" fill="#BBBBBB"/>
<path d="M86.27 6.52C85.42 6.52 84.74 5.83 84.74 4.98C84.74 4.13 85.43 3.45 86.27 3.45C87.11 3.45 87.81 4.14 87.81 4.98C87.81 5.82 87.12 6.52 86.27 6.52ZM86.27 3.79C85.61 3.79 85.07 4.33 85.07 4.99C85.07 5.65 85.61 6.19 86.27 6.19C86.93 6.19 87.47 5.65 87.47 4.99C87.47 4.33 86.93 3.79 86.27 3.79Z" fill="#BBBBBB"/>
<path d="M18.85 31.51C19.37 31.51 19.63 31.38 19.97 30.96L20.42 30.41H22.72C24.13 30.41 25.02 30.47 25.02 30.58C25.02 30.69 25.68 30.77 26.64 30.77C27.6 30.77 28.26 30.7 28.26 30.58C28.26 30.48 28.74 30.39 29.34 30.39C29.94 30.39 30.42 30.47 30.42 30.58C30.42 30.69 30.63 30.77 30.88 30.77C31.4 30.77 31.86 31.16 31.86 31.59C31.86 31.75 31.94 31.88 32.04 31.88C32.14 31.88 32.22 32.05 32.22 32.25C32.22 32.54 32.34 32.62 32.76 32.62C33.06 32.62 33.3 32.7 33.3 32.81C33.3 32.92 33.46 33 33.66 33C33.86 33 34.02 33.08 34.02 33.19C34.02 33.3 34.14 33.38 34.3 33.38C34.66 33.38 35.82 34.58 35.82 34.96C35.82 35.12 35.9 35.25 36 35.25C36.1 35.25 36.18 35.41 36.18 35.61C36.18 35.81 36.28 36.01 36.4 36.07C36.58 36.16 36.58 36.2 36.4 36.29C36.28 36.35 36.18 36.73 36.18 37.13C36.18 37.53 36.1 37.86 36 37.86C35.9 37.86 35.82 38.11 35.82 38.42C35.82 38.83 35.74 38.98 35.5 38.98C35.32 38.98 35.06 39.15 34.92 39.35C34.78 39.56 34.55 39.72 34.42 39.72C34.01 39.72 33.3 40.61 33.3 41.11C33.3 41.37 33.22 41.58 33.12 41.58C33.02 41.58 32.94 41.91 32.94 42.32C32.94 42.73 32.86 43.06 32.76 43.06C32.66 43.06 32.58 43.19 32.58 43.34C32.58 43.66 30.71 45.66 30.41 45.66C30.3 45.66 29.74 46.16 29.15 46.78C28.18 47.8 27.53 48.18 27.53 47.71C27.53 47.61 27.05 47.52 26.45 47.52C25.85 47.52 25.37 47.44 25.37 47.33C25.37 47.22 25.05 47.14 24.65 47.14C24.25 47.14 23.93 47.06 23.93 46.95C23.93 46.84 23.56 46.76 23.11 46.76C22.31 46.76 21.77 46.46 21.77 46.02C21.77 45.58 21.23 45.28 20.43 45.28C19.98 45.28 19.61 45.2 19.61 45.09C19.61 44.98 19.45 44.9 19.25 44.9C19.05 44.9 18.89 44.82 18.89 44.71C18.89 44.6 18.75 44.52 18.57 44.52C18.39 44.52 18.13 44.35 17.99 44.15C17.85 43.94 17.62 43.78 17.49 43.78C17.16 43.78 16.73 43.31 16.73 42.96C16.73 42.8 16.65 42.67 16.55 42.67C16.45 42.67 16.37 42.42 16.37 42.11C16.37 41.8 16.29 41.55 16.19 41.55C16.09 41.55 16.01 41.38 16.01 41.18C16.01 40.93 16.13 40.81 16.37 40.81C16.57 40.81 16.73 40.89 16.73 41C16.73 41.11 16.87 41.19 17.05 41.19C17.23 41.19 17.49 41.36 17.63 41.56C17.77 41.76 17.95 41.93 18.03 41.93C18.11 41.93 18.17 41.76 18.17 41.56C18.17 41.35 18.29 41.19 18.45 41.19C18.78 41.19 19.25 41.63 19.25 41.93C19.25 42.23 20.09 43.05 20.41 43.05C20.56 43.05 20.69 43.13 20.69 43.24C20.69 43.35 20.85 43.43 21.05 43.43C21.25 43.43 21.41 43.51 21.41 43.62C21.41 43.73 21.82 43.81 22.31 43.81C22.8 43.81 23.21 43.73 23.21 43.62C23.21 43.51 23.44 43.43 23.71 43.43C24 43.43 24.32 43.28 24.47 43.06C24.61 42.85 24.84 42.69 24.97 42.69C25.34 42.69 25.87 42.09 25.59 41.99C25.47 41.95 25.37 41.67 25.37 41.37C25.37 41.07 25.29 40.83 25.19 40.83C25.09 40.83 25.01 40.27 25.01 39.53C25.01 38.79 24.93 38.23 24.83 38.23C24.73 38.23 24.65 37.5 24.65 36.41C24.65 34.8 24.61 34.56 24.29 34.32C24.09 34.17 23.93 33.9 23.93 33.72C23.93 33.42 23.71 33.39 21.6 33.39C19.92 33.39 19.25 33.33 19.17 33.16C19.09 32.97 19.04 32.97 18.96 33.16C18.9 33.29 18.72 33.39 18.55 33.39C18.38 33.39 18.13 33.56 17.99 33.76C17.85 33.96 17.59 34.13 17.41 34.13C17.23 34.13 17.09 34.21 17.09 34.32C17.09 34.43 16.93 34.51 16.73 34.51C16.53 34.51 16.37 34.59 16.37 34.7C16.37 34.81 16.21 34.89 16.01 34.89C15.77 34.89 15.65 34.77 15.65 34.52C15.65 34.21 15.53 34.15 14.93 34.15C14.25 34.15 14.21 34.12 14.21 33.59C14.21 33.16 14.29 33.03 14.57 33.03C14.77 33.03 14.93 32.95 14.93 32.84C14.93 32.73 15.09 32.65 15.29 32.65C15.49 32.65 15.65 32.57 15.65 32.46C15.65 32.35 15.81 32.27 16.01 32.27C16.21 32.27 16.37 32.19 16.37 32.08C16.37 31.97 16.78 31.89 17.27 31.89C17.76 31.89 18.17 31.81 18.17 31.7C18.17 31.59 18.47 31.51 18.84 31.51" fill="#010101"/>
</svg>
